<svg id="apeswap" width="25" height="24" viewBox="0 0 25 24" fill="none" xmlns="http://www.w3.org/2000/svg">
    <g clip-path="url(#clip0)">
        <path d="M0.00943601 9.61962C-0.149954 11.8682 1.74945 12.8262 2.71907 13.0241C2.33388 13.8818 1.8743 16.1435 3.11755 18.3287C4.6716 21.0602 8.25788 23 12.0832 23C15.9086 23 18.937 20.9019 20.5309 18.685C21.806 16.9115 21.5138 14.1457 21.2083 12.9845C21.4076 12.9449 21.8618 12.842 22.085 12.747C22.3639 12.6282 24.7548 11.5594 23.7586 8.90706C22.9616 6.7852 20.6903 6.83534 19.6543 7.12565C19.5879 6.9673 19.4311 6.58726 19.3355 6.33391C18.7936 4.49707 16.2672 2.77108 15.0718 2.13769V0.791738L13.1193 1.54389L12.7208 0C12.0195 0.0950086 10.755 1.17441 10.2104 1.70224C9.54628 1.91337 7.90722 2.56523 6.66398 3.48365C5.42073 4.40207 4.55206 6.26793 4.27313 7.08606C4.20671 7.03328 3.97825 6.92771 3.59572 6.92771C3.11755 6.92771 0.208674 6.80895 0.00943601 9.61962Z" fill="#A6715E"/>
        <path d="M3.95444 8.23409C4.05008 9.94424 3.46299 11.3747 3.15749 11.8761C2.44024 11.8497 1.04557 11.3615 1.20496 9.61963C1.36435 7.87781 3.10436 7.97018 3.95444 8.23409Z" fill="#F7EACC"/>
        <path d="M20.1326 10.451C19.9413 9.65922 19.9466 8.64315 19.9732 8.23409C20.0794 8.16811 20.4035 8.03615 20.8498 8.03615C21.4077 8.03615 22.8023 8.43202 22.8023 10.0155C22.8023 11.2823 21.4475 11.7573 20.7701 11.8365C20.6373 11.7045 20.3238 11.2427 20.1326 10.451Z" fill="#F7EACC"/>
        <path d="M6.14607 16.9828C6.14607 20.0231 9.97143 21.2318 11.8841 21.4561C14.793 21.4561 17.1041 19.8489 17.5823 18.0121C18.18 15.716 17.2635 15.9139 17.2635 14.6868C17.2635 13.4596 18.4988 13.0637 18.4988 10.8072C18.4988 9.30293 17.0245 7.67987 15.0719 7.67987C13.1194 7.67987 12.8803 8.82789 11.924 8.82789C10.9676 8.82789 11.0075 7.67987 8.53692 7.67987C6.06637 7.67987 4.7514 10.8468 5.62805 12.272C6.5047 13.6971 6.78363 14.6868 6.5047 15.241C6.28155 15.6843 6.17263 16.5869 6.14607 16.9828Z" fill="#F7EACC"/>
        <rect x="7.50073" y="9.65924" width="1.99238" height="2.53356" rx="0.996189" fill="#493F4D"/>
        <ellipse cx="8.49692" cy="10.3322" rx="0.438323" ry="0.435456" fill="white"/>
        <rect x="14.4343" y="9.65924" width="1.99238" height="2.53356" rx="0.996189" fill="#493F4D"/>
        <ellipse cx="15.4305" cy="10.3322" rx="0.438323" ry="0.435456" fill="white"/>
        <rect width="0.706934" height="1.54533" rx="0.353467" transform="matrix(0.502463 -0.864599 0.86744 0.497541 9.98047 14.2843)" fill="#493F4D"/>
        <rect width="0.706934" height="1.54533" rx="0.353467" transform="matrix(-0.502463 -0.864599 -0.86744 0.497541 13.9783 14.2843)" fill="#493F4D"/>
        <path d="M8.20223 16.8899C8.16042 16.6639 8.34497 16.4682 8.57621 16.4682H15.431C15.6622 16.4682 15.8468 16.6639 15.805 16.8899C15.4742 18.677 13.8981 20.031 12.0036 20.031C10.1091 20.031 8.53298 18.677 8.20223 16.8899Z" fill="#493F4D"/>
        <path d="M14.213 19.3423C13.5868 19.7764 12.8251 20.031 12.0036 20.031C11.1523 20.031 10.3652 19.7575 9.72656 19.2942C9.98466 18.3062 10.8884 17.5766 11.9638 17.5766C13.0564 17.5766 13.972 18.3299 14.213 19.3423Z" fill="#D76C71"/>
    </g>
    <defs>
        <clipPath id="clip0">
            <rect width="24" height="24" fill="white" transform="translate(0.00170898)"/>
        </clipPath>
    </defs>
</svg>
