<svg width="25" height="24" viewBox="0 0 25 24" fill="none" xmlns="http://www.w3.org/2000/svg">
<g clip-path="url(#clip0)">
<path d="M17.8724 11.5915C18.0545 11.5444 18.2393 11.658 18.2841 11.841L18.581 13.0551C18.6258 13.2354 18.5138 13.4211 18.3317 13.4654C18.1497 13.5126 17.9649 13.3989 17.9201 13.216L17.6231 12.0018C17.5783 11.8216 17.6903 11.6358 17.8724 11.5915ZM8.67176 2.71255C8.56818 2.55177 8.6158 2.34387 8.76699 2.2413L9.81455 1.5566C9.97417 1.45403 10.1842 1.50115 10.2879 1.65362C10.3914 1.8144 10.3438 2.02231 10.1926 2.12487L9.14516 2.80957C8.98827 2.91492 8.77823 2.86779 8.67176 2.71255Z" fill="white"/>
<path fill-rule="evenodd" clip-rule="evenodd" d="M14.0833 6.9572C12.8711 6.68677 11.5701 6.90904 10.5039 7.62465C12.1088 7.09237 13.9545 7.4611 15.2316 8.73903C17.0298 10.5381 17.0298 13.4682 15.2316 15.2673C15.016 15.4835 14.7807 15.6748 14.5314 15.8383C15.1896 15.6137 15.8114 15.2479 16.3352 14.7239C17.6067 13.4517 17.979 11.614 17.4523 10.0105C15.9854 9.43787 14.7845 8.34288 14.0833 6.9572Z" fill="#FFAE54"/>
<path d="M21.6479 17.28L21.6478 17.2801C18.7332 22.6121 12.047 24.5599 6.72331 21.6507C1.39775 18.7404 -0.565524 12.0541 2.35088 6.71905C4.26978 3.20871 7.82323 1.16279 11.5468 1.00539C12.0409 0.984506 12.4238 1.24217 12.6899 1.69912C12.9623 2.16712 13.0837 2.80971 13.0187 3.4175C12.9936 3.65291 12.9808 3.89182 12.9808 4.13354C12.9808 5.26807 13.2639 6.33712 13.7641 7.27532C11.4489 6.41007 8.78472 7.35908 7.5683 9.58189C6.23562 12.0173 7.1324 15.0858 9.57583 16.4223C12.0223 17.7604 15.0966 16.8546 16.4304 14.4173L16.4306 14.4169C17.1769 13.05 17.2227 11.4832 16.6868 10.1354C17.6181 10.6084 18.6737 10.8752 19.7923 10.8752C20.4194 10.8752 21.0273 10.7912 21.605 10.6338C21.9351 10.5438 22.2889 10.5823 22.5533 10.7164C22.809 10.8459 22.9611 11.0495 22.9778 11.3122C23.1054 13.3191 22.685 15.3846 21.6479 17.28Z" fill="url(#paint0_radial)" stroke="#AC562A" stroke-width="1.0716"/>
<path d="M18.8275 15.0842L19.2335 14.9431C19.2335 14.9432 19.2335 14.9432 19.2335 14.9433C19.5199 15.7504 19.1489 16.4532 18.8758 16.9707C18.8674 16.9866 18.8591 17.0024 18.8509 17.018C18.6853 17.3325 18.5533 17.5884 18.4932 17.8441C18.3989 18.248 18.4131 18.6239 18.529 18.9075C18.6374 19.1728 18.8426 19.3824 19.2114 19.4792C19.4569 19.5423 19.8337 19.4497 20.3295 19.1467C22.2385 16.9097 23.109 14.0922 22.94 11.3253C22.924 11.0629 22.7729 10.859 22.5183 10.7287C22.255 10.5938 21.9021 10.5538 21.5721 10.6419C21.0043 10.7937 20.4074 10.8746 19.7921 10.8746C18.6579 10.8746 17.5884 10.6002 16.6477 10.1148C17.1983 11.4641 17.1417 12.9999 16.4661 14.3062C16.3564 14.5187 16.2302 14.725 16.0876 14.9235C16.372 14.8364 16.7301 14.671 17.1723 14.3968C17.8361 13.9865 18.5839 14.394 18.8275 15.0842ZM18.8275 15.0842C19.0515 15.7154 18.7605 16.2681 18.4693 16.8213C18.3091 17.1257 18.1487 17.4303 18.0741 17.7482L18.8275 15.0842ZM11.081 7.04174L11.0632 7.04492L11.0457 7.04953C9.96485 7.33371 9.09609 7.19726 8.43112 6.84673C7.75964 6.49286 7.26256 5.90289 6.96636 5.22965C6.66912 4.55396 6.58506 3.8184 6.71344 3.19797C6.84038 2.58448 7.16588 2.11045 7.67276 1.8697C9.0158 1.30151 10.4481 1.01147 11.8819 1.00004C12.2892 0.996785 12.6121 1.21936 12.8325 1.6106C13.058 2.01083 13.1486 2.55233 13.0675 3.05548C13.0106 3.40842 12.9806 3.76975 12.9806 4.13286C12.9806 5.27788 13.269 6.35625 13.7778 7.30065C12.9164 6.9699 11.9823 6.88352 11.081 7.04174Z" fill="#AC562A" stroke="#AC562A" stroke-width="1.0716"/>
<path d="M3.65978 10.023C3.97658 10.023 4.23339 9.76878 4.23339 9.45523C4.23339 9.14169 3.97658 8.88751 3.65978 8.88751C3.34299 8.88751 3.08618 9.14169 3.08618 9.45523C3.08618 9.76878 3.34299 10.023 3.65978 10.023Z" fill="#AC562A"/>
<path d="M11.9769 19.9583C12.2937 19.9583 12.5505 19.7041 12.5505 19.3905C12.5505 19.077 12.2937 18.8228 11.9769 18.8228C11.6601 18.8228 11.4033 19.077 11.4033 19.3905C11.4033 19.7041 11.6601 19.9583 11.9769 19.9583Z" fill="#AC562A"/>
<path d="M8.46335 20.8098C8.97814 20.8098 9.39546 20.3967 9.39546 19.8872C9.39546 19.3777 8.97814 18.9647 8.46335 18.9647C7.94857 18.9647 7.53125 19.3777 7.53125 19.8872C7.53125 20.3967 7.94857 20.8098 8.46335 20.8098Z" fill="#AC562A"/>
</g>
<defs>
<radialGradient id="paint0_radial" cx="0" cy="0" r="1" gradientUnits="userSpaceOnUse" gradientTransform="translate(12 11.9979) rotate(90) scale(11.4282 11.4302)">
<stop offset="0.333505" stop-color="#F7B450"/>
<stop offset="0.64773" stop-color="#FFC977"/>
<stop offset="1" stop-color="#FF9900"/>
</radialGradient>
<clipPath id="clip0">
<rect width="24" height="24" fill="white" transform="translate(0.00170898)"/>
</clipPath>
</defs>
</svg>
