<svg id="biswap" width="24" height="24" viewBox="0 0 24 24" fill="none" xmlns="http://www.w3.org/2000/svg">
    <circle cx="12" cy="12" r="12" fill="url(#paint0_linear)"/>
    <path d="M4.32191 21.2225L8.84615 17.5385L13.7692 13.1538V7.15385L17.2308 5.23077L21.068 4.1402C18.8677 1.60397 15.6212 0 12 0C5.37258 0 0 5.37258 0 12C0 15.7069 1.68082 19.0213 4.32191 21.2225Z" fill="url(#paint1_linear)"/>
    <path d="M21.4303 4.57834C19.6906 4.76007 16.8384 5.46074 16.3077 7.1923C15.7993 8.85138 15.8866 9.84022 15.9868 10.9749C16.0306 11.4711 16.0769 11.9952 16.0769 12.6154C16.0769 14.6538 14.9616 17.3461 10.5385 19.3077C8.26478 20.316 6.33517 21.1666 5.00473 21.7513C4.58258 21.4479 4.18093 21.1178 3.80227 20.7634L7.69233 15.0385C8.58977 15.141 10.6 15.0615 11.4616 13.9231C10.3333 14.5385 7.00002 14.8923 2.69233 11.3846C2.536 11.2573 2.32506 11.0671 2.08223 10.8481L2.08195 10.8479L2.08167 10.8476C1.55677 10.3743 0.882963 9.7667 0.289307 9.36915C0.486497 8.48754 0.780696 7.64256 1.16012 6.84599C1.93318 7.03645 3.68181 7.53601 5.65387 8.30769C7.77695 9.13846 9.89746 9.96153 10.6923 10.2692C10.8846 9.80769 11.3077 8.70769 11.4616 8L11.4665 7.97731C11.6631 7.0722 12.2134 4.53846 14.6923 4.53846C15.2308 4.61538 16.4308 4.76923 16.9231 4.76923C17.3668 4.76923 19.5307 4.24858 20.8641 3.91112C21.0608 4.12648 21.2496 4.34904 21.4303 4.57834Z" fill="white"/>
    <path d="M10.3846 9.61538C10.1923 7.29487 9.46926 2.53846 8.1154 2.07692C8.07694 2.08974 7.97694 2.53077 7.88463 4.1923C7.85947 4.64538 7.81966 5.08382 7.78196 5.49883C7.6469 6.98623 7.53916 8.1727 8.23079 8.65384C9.1154 9.26923 9.73079 9.61538 10.3846 9.61538Z" fill="white"/>
    <defs>
        <linearGradient id="paint0_linear" x1="12" y1="0" x2="12" y2="24" gradientUnits="userSpaceOnUse">
            <stop stop-color="#EC586D"/>
            <stop offset="1" stop-color="#D33C4D"/>
        </linearGradient>
        <linearGradient id="paint1_linear" x1="14" y1="3.52087e-08" x2="10.534" y2="21.2225" gradientUnits="userSpaceOnUse">
            <stop stop-color="#4299E6"/>
            <stop offset="1" stop-color="#225DE8"/>
        </linearGradient>
    </defs>
</svg>
