<svg id="mdex" width="25" height="24" viewBox="0 0 25 24" fill="none" xmlns="http://www.w3.org/2000/svg">
    <g clip-path="url(#clip0)">
        <path d="M12.0017 24C18.6291 24 24.0017 18.6274 24.0017 12C24.0017 5.37258 18.6291 0 12.0017 0C5.37429 0 0.00170898 5.37258 0.00170898 12C0.00170898 18.6274 5.37429 24 12.0017 24Z" fill="#141833"/>
        <path d="M7.04878 9.17806V18C5.45528 18 5.01897 16.7579 5 16.1369V8.95887C5 6.24107 8.81301 5.50682 10.1789 6.49312C10.8049 7.0228 12.2163 8.22463 12.8537 8.79449C13.6504 9.50682 15.6423 10.6575 15.6423 12.5753C15.6423 14.7671 13.7642 16.1369 12.1138 16.1369C10.4634 16.1369 8.47154 14.8767 8.47154 12.6849C8.47154 10.9315 9.53388 10.0548 10.065 9.83558L11.5447 11.1506C11.5447 11.1506 10.7073 11.6986 10.5772 12.5753C10.4065 13.726 12.2276 14.3835 13.0244 13.726C13.8211 13.0685 13.5935 12.1917 13.3659 11.9178L9.49593 8.46574C8.41463 7.58901 7.04878 8.24656 7.04878 9.17806Z" fill="white"/>
        <path d="M16.9513 9.28766V18C18.5904 18 19.0001 16.831 19.0001 16.2466V9.17808C19.0001 7.64383 17.5204 6 15.4717 6C13.8326 6 12.6641 7.05936 12.2847 7.58904L13.8213 8.9589C13.8213 8.9589 14.5611 7.9726 15.4717 7.9726C16.3822 7.9726 16.9513 8.79451 16.9513 9.28766Z" fill="#53B8FF"/>
    </g>
    <defs>
        <clipPath id="clip0">
            <rect width="24" height="24" fill="white" transform="translate(0.00170898)"/>
        </clipPath>
    </defs>
</svg>
