<svg width="104" height="100" viewBox="0 0 104 100" fill="none" xmlns="http://www.w3.org/2000/svg">
<path d="M13.6462 83.5344V84.7369H13.2399C13.2 84.7394 13.1604 84.7272 13.1289 84.7026C13.0974 84.6779 13.0762 84.6426 13.0693 84.6032C13.0693 84.5607 13.049 84.4696 13.0347 84.3158H12.0007V87.9231C12.086 87.9372 12.1571 87.9514 12.2038 87.9575C12.2506 87.9636 12.2892 87.9798 12.3095 87.9798C12.3237 87.9789 12.3379 87.9789 12.3521 87.9798C12.4053 87.9849 12.4544 88.0107 12.4886 88.0517C12.5228 88.0926 12.5395 88.1453 12.535 88.1984V88.6032H10.5176V88.1984C10.513 88.1462 10.5288 88.0943 10.5618 88.0536C10.5947 88.0128 10.6423 87.9864 10.6944 87.9798C10.7086 87.9789 10.7228 87.9789 10.737 87.9798C10.7594 87.9798 10.7939 87.9656 10.8427 87.9575C10.8914 87.9494 10.9625 87.9372 11.0458 87.9231V84.3077H10.0097C9.99552 84.4636 9.9813 84.5607 9.97521 84.6032C9.97014 84.6419 9.95054 84.6772 9.92037 84.702C9.8902 84.7268 9.85172 84.7392 9.81268 84.7369H9.40637V83.5344H13.6462Z" fill="white"/>
<path d="M22.3779 87.1153C22.2599 87.4208 22.0824 87.7001 21.8557 87.9371C21.626 88.1727 21.3492 88.3576 21.0431 88.4796C20.7086 88.6137 20.3513 88.6824 19.9908 88.6821C19.6282 88.6824 19.269 88.6137 18.9323 88.4796C18.6263 88.3576 18.3494 88.1727 18.1197 87.9371C17.8911 87.7004 17.7116 87.4212 17.5915 87.1153C17.4637 86.7827 17.4009 86.4288 17.4066 86.0728C17.4007 85.72 17.4635 85.3694 17.5915 85.0404C17.7111 84.7336 17.8906 84.4536 18.1197 84.2165C18.349 83.9809 18.626 83.7966 18.9323 83.676C19.2688 83.5412 19.6282 83.4725 19.9908 83.4736C20.3517 83.4692 20.7097 83.5381 21.0431 83.676C21.3478 83.7997 21.6242 83.9835 21.8557 84.2165C22.0829 84.4539 22.2604 84.734 22.3779 85.0404C22.5079 85.369 22.5728 85.7196 22.5688 86.0728C22.5726 86.4292 22.5077 86.7831 22.3779 87.1153ZM21.4819 85.3278C21.4186 85.1195 21.3104 84.9275 21.165 84.7651C21.0221 84.6129 20.8483 84.4928 20.6551 84.4129C20.4422 84.3278 20.214 84.2872 19.9847 84.2934C19.7534 84.2874 19.5233 84.328 19.3082 84.4129C19.115 84.4946 18.9418 84.6168 18.8003 84.7711C18.6537 84.9341 18.543 85.1258 18.4752 85.3339C18.3955 85.5741 18.3571 85.8259 18.3615 86.0788C18.3571 86.3344 18.3956 86.5889 18.4752 86.8319C18.5425 87.0402 18.6533 87.232 18.8003 87.3946C18.9413 87.5496 19.1146 87.6719 19.3082 87.7529C19.5233 87.8377 19.7534 87.8784 19.9847 87.8723C20.214 87.8786 20.4422 87.838 20.6551 87.7529C20.8492 87.6719 21.0233 87.5496 21.165 87.3946C21.3109 87.2325 21.4191 87.0404 21.4819 86.8319C21.558 86.5881 21.5956 86.3341 21.5937 86.0788C21.5962 85.8242 21.5585 85.5708 21.4819 85.3278Z" fill="white"/>
<path d="M31.5484 88.2044V88.6092H29.5717V88.2044C29.567 88.1522 29.5829 88.1003 29.6158 88.0596C29.6488 88.0188 29.6963 87.9923 29.7484 87.9857C29.7673 87.9878 29.7864 87.9878 29.8053 87.9857L29.9048 87.9635L28.8241 86.5586C28.7812 86.5035 28.7254 86.4597 28.6615 86.4311C28.5838 86.399 28.4998 86.3844 28.4157 86.3886H28.111V87.9291L28.3141 87.9635C28.3649 87.9635 28.3995 87.9857 28.4198 87.9857C28.434 87.9845 28.4482 87.9845 28.4624 87.9857C28.5145 87.9923 28.5621 88.0188 28.595 88.0596C28.628 88.1003 28.6438 88.1522 28.6392 88.2044V88.6092H26.6198V88.2044C26.6152 88.1522 26.631 88.1003 26.664 88.0596C26.6969 88.0188 26.7445 87.9923 26.7966 87.9857C26.8107 87.9879 26.8251 87.9879 26.8392 87.9857C26.8738 87.9756 26.9091 87.9681 26.9449 87.9635C26.9957 87.9635 27.0729 87.9432 27.148 87.9291V84.2307C27.0627 84.2165 26.9855 84.1963 26.9449 84.1882C26.9042 84.1801 26.8616 84.174 26.8392 84.174C26.825 84.1749 26.8108 84.1749 26.7966 84.174C26.7433 84.1674 26.6948 84.1401 26.6617 84.098C26.6285 84.0559 26.6135 84.0024 26.6198 83.9493V83.5444H28.6392V83.9493C28.6455 84.0024 28.6305 84.0559 28.5973 84.098C28.5642 84.1401 28.5157 84.1674 28.4624 84.174C28.4482 84.1752 28.434 84.1752 28.4198 84.174C28.3851 84.1818 28.3497 84.1866 28.3141 84.1882C28.2654 84.1882 28.1882 84.2165 28.111 84.2307V85.6659H28.3324C28.4074 85.6707 28.4825 85.6582 28.5518 85.6295C28.6129 85.6038 28.6661 85.5626 28.7062 85.51L29.7586 84.1821C29.7443 84.1821 29.7301 84.1821 29.7098 84.1821C29.6956 84.1833 29.6813 84.1833 29.6672 84.1821C29.615 84.1755 29.5675 84.149 29.5346 84.1083C29.5016 84.0675 29.4858 84.0156 29.4904 83.9635V83.5586H31.3797V83.9635C31.3844 84.0156 31.3685 84.0675 31.3356 84.1083C31.3026 84.149 31.2551 84.1755 31.203 84.1821C31.1888 84.1821 31.1766 84.1821 31.1482 84.1821C31.1197 84.1821 31.077 84.1963 31.0202 84.2044C30.9633 84.2125 30.8942 84.2246 30.817 84.2388L29.6672 85.6558C29.618 85.7126 29.5658 85.7666 29.5107 85.8177C29.4614 85.8614 29.4068 85.8988 29.3482 85.9291C29.4215 85.9587 29.4899 85.9989 29.5514 86.0485C29.6218 86.1075 29.6839 86.1755 29.7362 86.2509L30.9917 87.9311C31.077 87.9453 31.14 87.9594 31.1949 87.9655C31.2497 87.9716 31.2944 87.9878 31.3229 87.9878C31.3513 87.9878 31.3635 87.9878 31.3777 87.9878C31.4283 87.9958 31.4741 88.0225 31.5057 88.0627C31.5373 88.1029 31.5526 88.1535 31.5484 88.2044Z" fill="white"/>
<path d="M39.3922 83.5344V84.8705H38.9858C38.9468 84.8728 38.9083 84.8604 38.8782 84.8356C38.848 84.8108 38.8284 84.7755 38.8233 84.7369C38.8233 84.6802 38.7969 84.5344 38.7746 84.2875H37.131V85.6943H38.8599V86.4251H37.131V87.8543H38.7746C38.7969 87.6073 38.8172 87.4595 38.8233 87.4028C38.8288 87.3644 38.8486 87.3294 38.8786 87.3047C38.9087 87.28 38.9469 87.2673 38.9858 87.2692H39.3922V88.6134H35.646V88.2085C35.6413 88.1567 35.6568 88.105 35.6894 88.0643C35.7219 88.0236 35.7689 87.997 35.8207 87.9899C35.8349 87.989 35.8491 87.989 35.8633 87.9899C35.8857 87.9899 35.9202 87.9757 35.969 87.9676C36.0177 87.9595 36.097 87.9474 36.1721 87.9332V84.2308C36.0868 84.2166 36.0096 84.2024 35.969 84.1964C35.9283 84.1903 35.8857 84.1741 35.8633 84.1741C35.8491 84.175 35.8349 84.175 35.8207 84.1741C35.7689 84.167 35.7219 84.1404 35.6894 84.0996C35.6568 84.0589 35.6413 84.0073 35.646 83.9555V83.5506H39.4003L39.3922 83.5344Z" fill="white"/>
<path d="M48.8734 83.5344V83.9393C48.878 83.9914 48.8622 84.0433 48.8293 84.0841C48.7963 84.1248 48.7488 84.1513 48.6967 84.1579C48.6825 84.1588 48.6682 84.1588 48.654 84.1579C48.6317 84.1579 48.5971 84.1721 48.5484 84.1802C48.4996 84.1883 48.4285 84.2004 48.3452 84.2146V88.6032H47.8515C47.7889 88.6044 47.7266 88.5927 47.6687 88.5688C47.6096 88.539 47.5587 88.4952 47.5204 88.4413L44.8489 85.0749C44.8575 85.1475 44.8622 85.2205 44.8631 85.2935C44.8631 85.3624 44.8631 85.4332 44.8631 85.496V87.9251L45.3202 87.9878C45.3723 87.9944 45.4199 88.0209 45.4528 88.0617C45.4858 88.1024 45.5016 88.1543 45.497 88.2065V88.6113H43.4939V88.2065C43.4892 88.1546 43.5047 88.103 43.5373 88.0623C43.5698 88.0216 43.6168 87.9949 43.6686 87.9878C43.6827 87.99 43.6971 87.99 43.7112 87.9878C43.7458 87.9777 43.7811 87.9702 43.8169 87.9656C43.8677 87.9656 43.9449 87.9453 44.0302 87.9312V84.2308C43.9449 84.2166 43.8677 84.2024 43.8169 84.1964C43.7661 84.1903 43.7336 84.1741 43.7112 84.1741C43.697 84.175 43.6828 84.175 43.6686 84.1741C43.6168 84.167 43.5698 84.1404 43.5373 84.0996C43.5047 84.0589 43.4892 84.0073 43.4939 83.9555V83.5506H44.5239C44.5665 83.5506 44.6011 83.5506 44.6295 83.5506C44.6567 83.5495 44.6836 83.5566 44.7067 83.5709C44.7314 83.5787 44.7532 83.5934 44.7697 83.6134C44.7956 83.6398 44.8193 83.6682 44.8408 83.6984L47.5224 87.0951C47.5224 87.0101 47.5102 86.9332 47.5021 86.8563C47.494 86.7793 47.5021 86.7004 47.5021 86.6296V84.2308L47.043 84.168C46.9909 84.1614 46.9434 84.135 46.9104 84.0942C46.8774 84.0534 46.8616 84.0015 46.8662 83.9494V83.5445H48.8714L48.8734 83.5344Z" fill="white"/>
<path d="M56.2581 87.0304C56.2584 87.2492 56.2177 87.4661 56.1382 87.6701C56.0638 87.87 55.945 88.0506 55.7908 88.1984C55.6322 88.353 55.4425 88.4724 55.2342 88.5486C54.9945 88.6374 54.7402 88.6806 54.4845 88.6762H54.3789C53.8807 88.6668 53.3873 88.5765 52.9182 88.409V87.1013H53.3245C53.3626 87.0972 53.4009 87.108 53.4312 87.1314C53.4615 87.1548 53.4815 87.189 53.4871 87.2268C53.5013 87.2895 53.5216 87.4879 53.55 87.8118C53.8668 87.8852 54.1921 87.9159 54.517 87.9029C54.743 87.9162 54.9663 87.8487 55.1468 87.7126C55.2219 87.6432 55.2805 87.5579 55.3181 87.4629C55.3557 87.368 55.3715 87.2658 55.3642 87.164C55.3686 87.0464 55.3344 86.9305 55.2667 86.8341C55.1934 86.7477 55.1018 86.6786 54.9985 86.6316C54.878 86.5727 54.753 86.5233 54.6247 86.4839C54.4825 86.4434 54.3342 86.4069 54.194 86.3583C54.0473 86.3101 53.9034 86.2533 53.7633 86.1883C53.6225 86.1236 53.4934 86.0361 53.3814 85.9292C53.2651 85.8191 53.1755 85.6842 53.1193 85.5345C53.0468 85.3487 53.0109 85.1508 53.0137 84.9515C53.0153 84.7621 53.0549 84.575 53.1303 84.4011C53.2056 84.2273 53.3152 84.0702 53.4525 83.9393C53.605 83.8002 53.782 83.6904 53.9746 83.6154C54.2016 83.5266 54.4439 83.4832 54.6877 83.4879C55.1888 83.4894 55.6848 83.5877 56.1484 83.7774V85.077H55.7421C55.703 85.0793 55.6645 85.0669 55.6344 85.0421C55.6042 85.0173 55.5846 84.982 55.5795 84.9434C55.5653 84.8806 55.545 84.6903 55.5166 84.3745C55.2505 84.2853 54.97 84.2469 54.6897 84.2612C54.5752 84.2591 54.4609 84.2734 54.3505 84.3037C54.2614 84.3337 54.1782 84.3789 54.1046 84.4373C54.0399 84.4941 53.9868 84.5629 53.9482 84.6397C53.914 84.7225 53.8974 84.8114 53.8995 84.9009C53.8991 85.0086 53.9365 85.1131 54.0051 85.1964C54.0768 85.2819 54.1662 85.3509 54.2672 85.3988C54.389 85.4617 54.5161 85.5139 54.6471 85.5547C54.7893 85.5972 54.9294 85.6458 55.0778 85.6944C55.2261 85.743 55.3683 85.8077 55.5084 85.8705C55.649 85.933 55.7781 86.0185 55.8904 86.1235C56.0056 86.227 56.0971 86.3541 56.1585 86.496C56.2303 86.6648 56.2643 86.8472 56.2581 87.0304Z" fill="white"/>
<path d="M64.5245 83.5344V84.7369H64.1182C64.0782 84.7394 64.0387 84.7272 64.0072 84.7026C63.9757 84.6779 63.9544 84.6426 63.9475 84.6032C63.9475 84.5607 63.9272 84.4696 63.913 84.3158H62.8749V87.9231C62.9602 87.9372 63.0313 87.9514 63.078 87.9575C63.1247 87.9636 63.1633 87.9798 63.1837 87.9798C63.1979 87.9789 63.2121 87.9789 63.2263 87.9798C63.2795 87.9849 63.3286 88.0107 63.3628 88.0517C63.397 88.0926 63.4137 88.1453 63.4092 88.1984V88.6032H61.3898V88.1984C61.3852 88.1462 61.401 88.0943 61.4339 88.0536C61.4669 88.0128 61.5144 87.9864 61.5665 87.9798C61.5807 87.9789 61.595 87.9789 61.6092 87.9798C61.6315 87.9798 61.6661 87.9656 61.7148 87.9575C61.7636 87.9494 61.8347 87.9372 61.918 87.9231V84.3077H60.8799C60.8656 84.4636 60.8514 84.5607 60.8453 84.6032C60.8403 84.6419 60.8207 84.6772 60.7905 84.702C60.7603 84.7268 60.7218 84.7392 60.6828 84.7369H60.2765V83.5344H64.5184H64.5245Z" fill="white"/>
<path d="M73.5243 88.2592V88.6175H71.8077V88.2592C71.8099 88.218 71.8247 88.1785 71.8502 88.1459C71.8756 88.1134 71.9104 88.0893 71.9499 88.077C71.9641 88.077 72.0129 88.0548 72.0901 88.0203L72.0616 87.9434L71.8077 87.2471H69.7761L69.514 87.9718L69.4937 88.0143C69.5709 88.0487 69.6197 88.0629 69.6339 88.071C69.6734 88.0833 69.7082 88.1073 69.7336 88.1399C69.759 88.1724 69.7739 88.2119 69.7761 88.2531V88.6114H68.0533V88.2592C68.0554 88.2183 68.07 88.1789 68.095 88.1464C68.12 88.1139 68.1544 88.0897 68.1935 88.077L68.5836 87.9151L70.3043 83.5325H71.2795L73.0083 87.9151L73.3963 88.077C73.4347 88.0893 73.4679 88.1138 73.491 88.1467C73.5141 88.1796 73.5258 88.2191 73.5243 88.2592ZM70.0158 86.5851H71.5619L70.9768 85.0021C70.9483 84.9252 70.9199 84.8402 70.8853 84.743C70.8508 84.6458 70.8203 84.5244 70.7858 84.4049C70.7513 84.5244 70.7147 84.6377 70.6863 84.743C70.6591 84.8372 70.6266 84.9298 70.5887 85.0203L70.0158 86.5851Z" fill="white"/>
<path d="M82.9812 83.5344V83.9393C82.9859 83.9914 82.97 84.0433 82.9371 84.0841C82.9041 84.1248 82.8566 84.1513 82.8045 84.1579C82.7903 84.1588 82.776 84.1588 82.7618 84.1579C82.7395 84.1579 82.7049 84.1721 82.6562 84.1802C82.6074 84.1883 82.5363 84.2004 82.453 84.2146V88.6032H81.9655C81.9022 88.6041 81.8393 88.5924 81.7806 88.5688C81.7221 88.5381 81.6713 88.4945 81.6323 88.4413L78.9649 85.0587C78.9735 85.1313 78.9782 85.2043 78.9791 85.2773C78.9791 85.3462 78.9791 85.417 78.9791 85.4798V87.9089L79.4362 87.9716C79.4883 87.9783 79.5358 88.0047 79.5688 88.0455C79.6017 88.0862 79.6176 88.1381 79.6129 88.1903V88.5951H77.6098V88.1903C77.6052 88.1384 77.6207 88.0868 77.6532 88.0461C77.6858 88.0054 77.7328 87.9787 77.7845 87.9716C77.7987 87.9738 77.8131 87.9738 77.8272 87.9716C77.8618 87.9615 77.8971 87.954 77.9328 87.9494C77.9836 87.9494 78.0608 87.9291 78.1462 87.915V84.2308C78.0608 84.2166 77.9836 84.2024 77.9328 84.1964C77.882 84.1903 77.8495 84.1741 77.8272 84.1741C77.813 84.175 77.7987 84.175 77.7845 84.1741C77.7328 84.167 77.6858 84.1404 77.6532 84.0996C77.6207 84.0589 77.6052 84.0073 77.6098 83.9555V83.5506H78.6398C78.6825 83.5506 78.717 83.5506 78.7455 83.5506C78.7726 83.5495 78.7995 83.5566 78.8227 83.5709C78.8473 83.5787 78.8692 83.5934 78.8856 83.6134C78.9115 83.6398 78.9353 83.6682 78.9567 83.6984L81.6384 87.0951C81.6384 87.0101 81.6242 86.9332 81.6181 86.8563C81.612 86.7793 81.6181 86.7004 81.6181 86.6296V84.2308L81.1589 84.168C81.1068 84.1614 81.0593 84.135 81.0264 84.0942C80.9934 84.0534 80.9776 84.0015 80.9822 83.9494V83.5445H82.9812V83.5344Z" fill="white"/>
<path d="M92.0339 86.0728C92.038 86.4246 91.9739 86.7738 91.8449 87.1012C91.7263 87.4028 91.5488 87.678 91.3228 87.9109C91.09 88.1373 90.8136 88.3143 90.5102 88.4311C90.1751 88.5618 89.8177 88.6264 89.4579 88.6214H87.0444V88.2166C87.0397 88.1644 87.0556 88.1125 87.0885 88.0718C87.1215 88.031 87.169 88.0045 87.2211 87.9979C87.2353 87.9967 87.2496 87.9967 87.2638 87.9979C87.2841 87.9979 87.3207 87.9838 87.3694 87.9757L87.5726 87.9413V84.2307L87.3694 84.1963C87.3207 84.1963 87.2841 84.1741 87.2638 84.1741C87.2496 84.1753 87.2353 84.1753 87.2211 84.1741C87.169 84.1674 87.1215 84.141 87.0885 84.1002C87.0556 84.0595 87.0397 84.0076 87.0444 83.9554V83.5506H89.4518C89.8116 83.5456 90.169 83.6102 90.5041 83.7408C90.8095 83.8528 91.0872 84.0288 91.3185 84.2568C91.5498 84.4849 91.7293 84.7597 91.8449 85.0627C91.9718 85.3844 92.0359 85.7272 92.0339 86.0728ZM91.0607 86.0728C91.0661 85.8199 91.0276 85.5678 90.947 85.3279C90.8806 85.1209 90.7728 84.9295 90.6301 84.7651C90.4882 84.6127 90.315 84.4925 90.1222 84.4129C89.9093 84.327 89.6814 84.2843 89.4518 84.2874H88.5335V87.8664H89.4518C89.6814 87.8695 89.9093 87.8268 90.1222 87.7409C90.315 87.6613 90.4882 87.5411 90.6301 87.3886C90.7744 87.2255 90.8825 87.0337 90.947 86.8259C91.0276 86.5831 91.0661 86.3285 91.0607 86.0728Z" fill="white"/>
<path d="M79.8791 49.0485V19.9331L79.4383 19.8623C69.8412 18.3036 58.0094 14.2692 53.2129 8.76716L52.8574 8.3623L52.4511 8.7287C47.5449 13.2672 37.0925 17.1761 25.8255 18.6862L25.3724 18.7469V49.008C25.3724 49.172 24.2713 65.3866 37.446 70.4453C50.9843 77.004 52.1016 77.5505 52.1016 77.5526L52.3454 77.67L52.5852 77.5424C52.6299 77.5181 53.8488 76.8704 67.3668 70.4574C80.5739 65.3845 79.8873 49.1902 79.8791 49.0485ZM66.9544 69.504C55.9839 74.7003 53.0788 76.1254 52.3271 76.4999C51.5877 76.1396 48.6805 74.7287 37.8686 69.4878C25.3887 64.6943 26.4126 49.2449 26.4248 49.0424V19.6558C37.4318 18.1153 47.6444 14.3097 52.7741 9.84813C58.176 15.6113 70.4486 19.3279 78.8268 20.8178V49.0748C78.8309 49.2307 79.483 64.6922 66.9544 69.504Z" fill="#5EA84E"/>
<path d="M77.7824 48.6884V22.2188C67.3016 20.6479 57.0727 16.4333 52.7394 11.4617C47.8027 16.0305 38.0878 19.1074 27.609 20.403L27.477 48.6884C27.477 48.6884 26.8777 63.3949 38.8822 68.0062C51.3966 74.0791 52.1482 74.569 52.1482 74.569C52.1482 74.569 53.3672 74.0811 66.1985 68.0062C78.203 63.3949 77.7824 48.6884 77.7824 48.6884ZM52.8268 64.3584C48.5901 64.3588 44.4484 63.1074 40.9255 60.7623C37.4026 58.4172 34.6567 55.0838 33.0351 51.1838C31.4135 47.2837 30.989 42.992 31.8153 38.8515C32.6416 34.711 34.6816 30.9077 37.6773 27.9224C40.6729 24.9372 44.4897 22.9042 48.645 22.0804C52.8003 21.2567 57.1074 21.6793 61.0216 23.2947C64.9359 24.9101 68.2815 27.6459 70.6353 31.1559C72.9891 34.666 74.2455 38.7927 74.2455 43.0143C74.2455 48.6748 71.989 54.1034 67.9722 58.1062C63.9555 62.1089 58.5076 64.3579 52.8268 64.3584Z" fill="#72BF65"/>
<path d="M52.6298 23.7996C48.8153 23.7992 45.0863 24.9259 41.9145 27.0373C38.7427 29.1487 36.2705 32.1499 34.8106 35.6613C33.3507 39.1728 32.9686 43.0368 33.7126 46.7646C34.4567 50.4925 36.2935 53.9167 38.9908 56.6043C41.6881 59.292 45.1246 61.1222 48.8658 61.8636C52.6071 62.605 56.4849 62.2243 60.009 60.7696C63.533 59.3149 66.545 56.8515 68.664 53.6911C70.783 50.5306 71.9137 46.815 71.9133 43.0141C71.909 37.9194 69.876 33.0346 66.2606 29.4321C62.6451 25.8296 57.7428 23.8038 52.6298 23.7996ZM52.6298 61.1862C49.0228 61.1862 45.4968 60.1204 42.4977 58.1236C39.4986 56.1269 37.1611 53.2888 35.7807 49.9683C34.4004 46.6478 34.0392 42.994 34.7429 39.4689C35.4466 35.9439 37.1835 32.706 39.7341 30.1645C42.2846 27.6231 45.5342 25.8924 49.0719 25.1912C52.6096 24.4901 56.2765 24.8499 59.6089 26.2253C62.9413 27.6007 65.7896 29.9299 67.7936 32.9183C69.7975 35.9067 70.8671 39.42 70.8671 43.0141C70.8617 47.832 68.9386 52.451 65.5196 55.8578C62.1006 59.2646 57.465 61.1808 52.6298 61.1862Z" fill="#5EA84E"/>
<path d="M51.2137 38.2025H51.0329V43.0993H51.2137H52.5079V38.2025H51.2137ZM51.2137 38.2025H51.0329V43.0993H51.2137H52.5079V38.2025H51.2137ZM43.4512 29.1155V33.826C43.7997 33.22 44.3525 32.7567 45.0114 32.5183C45.4569 32.3478 45.9298 32.2593 46.4071 32.2572H51.0329V49.5224C51.0281 50.0062 50.9395 50.4856 50.7709 50.9394C50.6402 51.2678 50.463 51.5759 50.2447 51.8543C50.0136 52.1068 49.7491 52.3268 49.4585 52.5082H55.7563C55.4651 52.3268 55.1999 52.1068 54.9681 51.8543C54.7484 51.5743 54.5667 51.2667 54.4277 50.9394C54.2484 50.489 54.1647 50.0065 54.1819 49.5224V32.2572H58.8057C59.2773 32.2624 59.7444 32.3508 60.1851 32.5183C60.5155 32.6461 60.8249 32.8221 61.1034 33.0406C61.3584 33.27 61.5793 33.5345 61.7596 33.826V29.1155H43.4512ZM60.2867 30.9718C59.8068 30.8335 59.3093 30.7653 58.8097 30.7693H52.711V35.8928L53.164 36.3442L52.9853 36.5203L52.7821 36.7228L52.7029 36.8017V44.241L53.032 44.5709L53.1559 44.6924L52.711 45.1519V49.5547C52.7096 49.8072 52.7313 50.0593 52.776 50.3078C52.8207 50.5466 52.8756 50.7855 52.9406 51.0264H52.3047L52.4367 50.3078C52.4804 50.0591 52.5022 49.8072 52.5018 49.5547V45.156L52.1178 44.7754L52.0447 44.7005L52.1666 44.579L52.5018 44.2471V36.8139L52.2214 36.5345L52.0447 36.3584L52.5018 35.9029V30.7835H46.4132C45.9132 30.7827 45.4155 30.8508 44.9342 30.9859V30.5952H60.2928L60.2867 30.9718ZM51.2137 38.1944H51.0329V43.0912H51.2137H52.5079V38.2025L51.2137 38.1944Z" fill="#5EA84E"/>
<path d="M49.1131 38.9211C49.6528 38.4722 50.33 38.2201 51.0329 38.2065H51.2137H52.5078V36.8178L52.4245 36.7348H51.2056H51.0248C49.9812 36.7703 48.9759 37.1354 48.1542 37.7773C47.7232 38.138 47.3713 38.5831 47.1201 39.085C46.8718 39.5717 46.7423 40.1099 46.7423 40.6559C46.7411 41.1962 46.8707 41.7288 47.1201 42.2085C47.3744 42.7038 47.726 43.143 48.1542 43.5C48.9568 44.1798 49.9716 44.5604 51.0248 44.5769H52.1665L52.5017 44.2449V43.1174H51.2056H51.0248C50.3217 43.1047 49.6442 42.8526 49.105 42.4028C48.8393 42.198 48.6242 41.9352 48.4762 41.6346C48.3282 41.3341 48.2513 41.0038 48.2513 40.669C48.2513 40.3343 48.3282 40.004 48.4762 39.7034C48.6242 39.4029 48.8393 39.1401 49.105 38.9352L49.1131 38.9211ZM49.1131 38.9211C49.6528 38.4722 50.33 38.2201 51.0329 38.2065H51.2137H52.5078V36.8178L52.4245 36.7348H51.2056H51.0248C49.9812 36.7703 48.9759 37.1354 48.1542 37.7773C47.7232 38.138 47.3713 38.5831 47.1201 39.085C46.8718 39.5717 46.7423 40.1099 46.7423 40.6559C46.7411 41.1962 46.8707 41.7288 47.1201 42.2085C47.3744 42.7038 47.726 43.143 48.1542 43.5C48.9568 44.1798 49.9716 44.5604 51.0248 44.5769H52.1665L52.5017 44.2449V43.1174H51.2056H51.0248C50.3217 43.1047 49.6442 42.8526 49.105 42.4028C48.8393 42.198 48.6242 41.9352 48.4762 41.6346C48.3282 41.3341 48.2513 41.0038 48.2513 40.669C48.2513 40.3343 48.3282 40.004 48.4762 39.7034C48.6242 39.4029 48.8393 39.1401 49.105 38.9352L49.1131 38.9211ZM61.0587 47.7834C60.604 46.8229 59.956 45.9658 59.1551 45.2652C58.3628 44.5647 57.4437 44.0213 56.447 43.664C55.7176 43.398 54.957 43.2259 54.1839 43.1518C53.8751 43.1215 53.5642 43.1073 53.2473 43.1073H51.2158H51.0349C50.3319 43.0946 49.6544 42.8424 49.1151 42.3927C48.8494 42.1878 48.6343 41.9251 48.4864 41.6245C48.3384 41.324 48.2615 40.9937 48.2615 40.6589C48.2615 40.3241 48.3384 39.9938 48.4864 39.6933C48.6343 39.3928 48.8494 39.13 49.1151 38.9251C49.6549 38.4762 50.3321 38.2242 51.0349 38.2105H51.2158H53.3814C53.6548 38.2089 53.9275 38.2388 54.194 38.2996C54.4507 38.3574 54.6987 38.4486 54.9315 38.5708C55.3677 38.7893 55.7405 39.1155 56.0143 39.5182C56.0986 39.6562 56.1442 39.8142 56.1464 39.9757C56.1478 40.1027 56.1133 40.2276 56.0468 40.336C55.9743 40.4626 55.8752 40.5721 55.7564 40.657C55.6375 40.7419 55.5017 40.8002 55.3581 40.8279H60.2481C59.8113 40.7186 59.5594 40.4879 59.4944 40.1397C59.3604 38.7818 58.7053 37.528 57.666 36.6397C56.7058 35.78 55.4965 35.2462 54.2123 35.1154C53.9425 35.0847 53.6712 35.0698 53.3997 35.0708H51.0329C49.5244 35.0785 48.071 35.6367 46.9475 36.6397C46.3595 37.1336 45.8873 37.7498 45.564 38.4451C45.2408 39.1403 45.0743 39.8977 45.0764 40.664C45.0764 42.2335 45.7001 43.5742 46.9475 44.6862C48.0713 45.6885 49.5247 46.2459 51.0329 46.253H53.2473C53.5609 46.2529 53.8739 46.2765 54.1839 46.3239C55.2135 46.4842 56.1818 46.9145 56.9894 47.5709C57.4643 47.9657 57.8499 48.4562 58.121 49.0101C58.391 49.5568 58.5314 50.1579 58.5314 50.7672C58.5314 51.3765 58.391 51.9776 58.121 52.5243C57.8466 53.0697 57.4612 53.5523 56.9894 53.9413C56.4861 54.3579 55.9143 54.6846 55.2992 54.9069C54.6423 55.1478 53.9473 55.2691 53.2473 55.2652H52.3616C51.6622 55.2692 50.9679 55.1478 50.3117 54.9069C49.6964 54.685 49.1245 54.3583 48.6215 53.9413C48.1497 53.5523 47.7643 53.0697 47.4899 52.5243C47.2164 51.9761 47.0772 51.3712 47.0836 50.7591C47.0827 50.6334 47.0881 50.5077 47.0998 50.3826C47.0998 50.2632 47.1262 50.1376 47.1486 50.0081C47.2346 49.7322 47.4141 49.4947 47.6565 49.336C47.853 49.2091 48.0692 49.1154 48.2964 49.0587C48.361 49.0336 48.4303 49.0226 48.4996 49.0263L43.5121 46.8684C43.7796 47.2043 43.9697 47.5948 44.0687 48.0121C44.0912 48.2402 44.102 48.4692 44.1012 48.6984C44.1016 48.9167 44.0908 49.135 44.0687 49.3522C43.9637 49.814 43.9085 50.2856 43.9042 50.7591C43.9012 51.7924 44.1259 52.8137 44.5624 53.751C45.0079 54.7124 45.6573 55.566 46.466 56.253C47.2604 56.954 48.1777 57.503 49.172 57.8725C50.195 58.2546 51.2792 58.4487 52.3717 58.4453H53.2575C54.35 58.4487 55.4341 58.2546 56.4572 57.8725C57.4521 57.5031 58.3701 56.9541 59.1652 56.253C59.9733 55.5654 60.6226 54.7119 61.0688 53.751C61.5038 52.8133 61.7278 51.7922 61.725 50.7591C61.7256 49.7304 61.4981 48.7143 61.0587 47.7834ZM59.7138 53.1458C59.3565 53.9184 58.8287 54.6007 58.1698 55.1417C57.5134 55.731 56.751 56.1912 55.9229 56.498C55.0676 56.8177 54.1608 56.9789 53.2473 56.9737H52.3616C51.4543 56.976 50.554 56.8148 49.7043 56.498C48.8694 56.1938 48.1006 55.7334 47.4391 55.1417C46.7954 54.5906 46.2756 53.9105 45.9134 53.1458C45.556 52.4006 45.3714 51.585 45.373 50.7591C45.3696 50.5732 45.3777 50.3873 45.3974 50.2024C45.4163 50.0154 45.4489 49.83 45.4949 49.6478V49.581C45.5221 49.5079 45.5332 49.4299 45.5274 49.3522L45.757 49.4514C45.7587 49.469 45.7567 49.4867 45.7511 49.5035C45.7455 49.5202 45.7364 49.5356 45.7245 49.5486V49.6478L45.6919 49.7126C45.6294 50.058 45.5968 50.4081 45.5944 50.7591C45.5893 51.5698 45.7743 52.3704 46.1348 53.0972C46.4895 53.8204 46.9862 54.4654 47.5955 54.9939C48.9189 56.128 50.608 56.7489 52.3534 56.7429H53.2392C54.1414 56.7495 55.037 56.5889 55.8802 56.2692C56.6662 55.9731 57.3938 55.5414 58.0296 54.9939C58.6389 54.4654 59.1357 53.8204 59.4903 53.0972C59.8458 52.3687 60.0306 51.5692 60.0306 50.7591C60.0306 49.949 59.8458 49.1496 59.4903 48.4211C59.1351 47.6981 58.6385 47.0532 58.0296 46.5243C57.3938 45.9768 56.6662 45.5451 55.8802 45.249C55.3312 45.0389 54.7579 44.8981 54.1737 44.83C53.8629 44.7932 53.5502 44.7749 53.2372 44.7753H53.0767L52.5972 45.253L52.4997 45.1559L52.1157 44.7753H51.2036H51.0228C50.474 44.7613 49.9312 44.6581 49.4158 44.4696C48.8659 44.2661 48.3593 43.9612 47.9226 43.5709C47.4909 43.2139 47.1435 42.7666 46.905 42.2607C46.6666 41.7547 46.5429 41.2027 46.5429 40.6437C46.5429 40.0848 46.6666 39.5327 46.905 39.0268C47.1435 38.5209 47.4909 38.0735 47.9226 37.7166C48.7805 36.9661 49.8812 36.5493 51.0228 36.5425H51.2036H52.2193L52.0426 36.3664L52.4997 35.9109L52.5972 35.8138L53.1498 36.3664L52.971 36.5425H53.3773C53.6493 36.5419 53.9209 36.5616 54.19 36.6012C55.1073 36.7259 55.9681 37.115 56.6664 37.7206C57.1683 38.1647 57.5516 38.726 57.7818 39.3543H57.5197C57.4576 39.1637 57.3809 38.9783 57.2901 38.7996L57.2576 38.7672V38.7328C56.8602 38.0982 56.2913 37.5881 55.6161 37.2611C55.1685 37.0367 54.6888 36.8824 54.194 36.8036C53.9254 36.76 53.6536 36.7384 53.3814 36.7389H52.7882L52.6094 36.919L52.4286 36.7389H51.2097H51.0289C49.9853 36.7743 48.98 37.1394 48.1583 37.7814C47.7273 38.1421 47.3753 38.5872 47.1242 39.0891C46.8758 39.5757 46.7463 40.114 46.7463 40.6599C46.7452 41.2002 46.8748 41.7328 47.1242 42.2126C47.3784 42.7078 47.7301 43.147 48.1583 43.504C48.9609 44.1838 49.9756 44.5645 51.0289 44.581H52.1706L52.5058 44.249L52.6033 44.1518L52.7029 44.251L53.032 44.581H53.2351C53.548 44.5811 53.8607 44.5986 54.1717 44.6336C54.7655 44.6991 55.3493 44.835 55.9107 45.0385C56.74 45.3363 57.5031 45.7921 58.1576 46.3806C59.5377 47.5789 60.2271 49.0391 60.2257 50.7611C60.2307 51.5836 60.056 52.3973 59.7138 53.1458ZM49.1131 38.9211C49.6528 38.4722 50.33 38.2201 51.0329 38.2065H51.2137H52.5078V36.8178L52.4245 36.7348H51.2056H51.0248C49.9812 36.7703 48.9759 37.1354 48.1542 37.7773C47.7232 38.138 47.3713 38.5831 47.1201 39.085C46.8718 39.5717 46.7423 40.1099 46.7423 40.6559C46.7411 41.1962 46.8707 41.7288 47.1201 42.2085C47.3744 42.7038 47.726 43.143 48.1542 43.5C48.9568 44.1798 49.9716 44.5604 51.0248 44.5769H52.1665L52.5017 44.2449V43.1174H51.2056H51.0248C50.3217 43.1047 49.6442 42.8526 49.105 42.4028C48.8393 42.198 48.6242 41.9352 48.4762 41.6346C48.3282 41.3341 48.2513 41.0038 48.2513 40.669C48.2513 40.3343 48.3282 40.004 48.4762 39.7034C48.6242 39.4029 48.8393 39.1401 49.105 38.9352L49.1131 38.9211Z" fill="#5EA84E"/>
</svg>
