<svg width="104" height="100" viewBox="0 0 104 100" fill="none" xmlns="http://www.w3.org/2000/svg">
<path d="M13.6462 83.5342V84.7366H13.2399C13.2 84.7392 13.1604 84.727 13.1289 84.7023C13.0974 84.6777 13.0762 84.6423 13.0693 84.603C13.0693 84.5605 13.049 84.4694 13.0347 84.3156H12.0007V87.9228C12.086 87.937 12.1571 87.9512 12.2038 87.9572C12.2506 87.9633 12.2892 87.9795 12.3095 87.9795C12.3237 87.9786 12.3379 87.9786 12.3521 87.9795C12.4053 87.9846 12.4544 88.0105 12.4886 88.0514C12.5228 88.0923 12.5395 88.1451 12.535 88.1981V88.603H10.5176V88.1981C10.513 88.146 10.5288 88.0941 10.5618 88.0533C10.5947 88.0126 10.6423 87.9861 10.6944 87.9795C10.7086 87.9786 10.7228 87.9786 10.737 87.9795C10.7594 87.9795 10.7939 87.9653 10.8427 87.9572C10.8914 87.9492 10.9625 87.937 11.0458 87.9228V84.3075H10.0097C9.99552 84.4633 9.9813 84.5605 9.97521 84.603C9.97014 84.6416 9.95054 84.6769 9.92037 84.7017C9.8902 84.7265 9.85172 84.739 9.81268 84.7366H9.40637V83.5342H13.6462Z" fill="#001C4E"/>
<path d="M22.3779 87.1155C22.2599 87.4211 22.0824 87.7004 21.8557 87.9374C21.626 88.173 21.3492 88.3578 21.0431 88.4799C20.7086 88.6139 20.3513 88.6826 19.9908 88.6823C19.6282 88.6827 19.269 88.614 18.9323 88.4799C18.6263 88.3578 18.3494 88.173 18.1197 87.9374C17.8911 87.7007 17.7116 87.4214 17.5915 87.1155C17.4637 86.783 17.4009 86.4291 17.4066 86.073C17.4007 85.7202 17.4635 85.3696 17.5915 85.0406C17.7111 84.7339 17.8906 84.4538 18.1197 84.2167C18.349 83.9811 18.626 83.7968 18.9323 83.6763C19.2688 83.5414 19.6282 83.4727 19.9908 83.4738C20.3517 83.4695 20.7097 83.5384 21.0431 83.6763C21.3478 83.7999 21.6242 83.9838 21.8557 84.2167C22.0829 84.4541 22.2604 84.7342 22.3779 85.0406C22.5079 85.3692 22.5728 85.7198 22.5688 86.073C22.5726 86.4295 22.5077 86.7833 22.3779 87.1155ZM21.4819 85.3281C21.4186 85.1198 21.3104 84.9277 21.165 84.7653C21.0221 84.6131 20.8483 84.493 20.6551 84.4131C20.4422 84.328 20.214 84.2874 19.9847 84.2937C19.7534 84.2876 19.5233 84.3283 19.3082 84.4131C19.115 84.4948 18.9418 84.617 18.8003 84.7714C18.6537 84.9343 18.543 85.126 18.4752 85.3341C18.3955 85.5743 18.3571 85.8262 18.3615 86.0791C18.3571 86.3346 18.3956 86.5891 18.4752 86.8321C18.5425 87.0405 18.6533 87.2322 18.8003 87.3949C18.9413 87.5498 19.1146 87.6721 19.3082 87.7532C19.5233 87.838 19.7534 87.8786 19.9847 87.8726C20.214 87.8789 20.4422 87.8382 20.6551 87.7532C20.8492 87.6722 21.0233 87.5499 21.165 87.3949C21.3109 87.2328 21.4191 87.0406 21.4819 86.8321C21.558 86.5884 21.5956 86.3343 21.5937 86.0791C21.5962 85.8245 21.5585 85.571 21.4819 85.3281Z" fill="#001C4E"/>
<path d="M31.5484 88.2044V88.6092H29.5717V88.2044C29.567 88.1522 29.5829 88.1003 29.6158 88.0596C29.6488 88.0188 29.6963 87.9923 29.7484 87.9857C29.7673 87.9878 29.7864 87.9878 29.8053 87.9857L29.9048 87.9635L28.8241 86.5586C28.7812 86.5035 28.7254 86.4597 28.6615 86.4311C28.5838 86.399 28.4998 86.3844 28.4157 86.3886H28.111V87.9291L28.3141 87.9635C28.3649 87.9635 28.3995 87.9857 28.4198 87.9857C28.434 87.9845 28.4482 87.9845 28.4624 87.9857C28.5145 87.9923 28.5621 88.0188 28.595 88.0596C28.628 88.1003 28.6438 88.1522 28.6392 88.2044V88.6092H26.6198V88.2044C26.6152 88.1522 26.631 88.1003 26.664 88.0596C26.6969 88.0188 26.7445 87.9923 26.7966 87.9857C26.8107 87.9879 26.8251 87.9879 26.8392 87.9857C26.8738 87.9756 26.9091 87.9681 26.9449 87.9635C26.9957 87.9635 27.0729 87.9432 27.148 87.9291V84.2307C27.0627 84.2165 26.9855 84.1963 26.9449 84.1882C26.9042 84.1801 26.8616 84.174 26.8392 84.174C26.825 84.1749 26.8108 84.1749 26.7966 84.174C26.7433 84.1674 26.6948 84.1401 26.6617 84.098C26.6285 84.0559 26.6135 84.0024 26.6198 83.9493V83.5444H28.6392V83.9493C28.6455 84.0024 28.6305 84.0559 28.5973 84.098C28.5642 84.1401 28.5157 84.1674 28.4624 84.174C28.4482 84.1752 28.434 84.1752 28.4198 84.174C28.3851 84.1818 28.3497 84.1866 28.3141 84.1882C28.2654 84.1882 28.1882 84.2165 28.111 84.2307V85.6659H28.3324C28.4074 85.6707 28.4825 85.6582 28.5518 85.6295C28.6129 85.6038 28.6661 85.5626 28.7062 85.51L29.7586 84.1821C29.7443 84.1821 29.7301 84.1821 29.7098 84.1821C29.6956 84.1833 29.6813 84.1833 29.6672 84.1821C29.615 84.1755 29.5675 84.149 29.5346 84.1083C29.5016 84.0675 29.4858 84.0156 29.4904 83.9635V83.5586H31.3797V83.9635C31.3844 84.0156 31.3685 84.0675 31.3356 84.1083C31.3026 84.149 31.2551 84.1755 31.203 84.1821C31.1888 84.1821 31.1766 84.1821 31.1482 84.1821C31.1197 84.1821 31.077 84.1963 31.0202 84.2044C30.9633 84.2125 30.8942 84.2246 30.817 84.2388L29.6672 85.6558C29.618 85.7126 29.5658 85.7666 29.5107 85.8177C29.4614 85.8614 29.4068 85.8988 29.3482 85.9291C29.4215 85.9587 29.4899 85.9989 29.5514 86.0485C29.6218 86.1075 29.6839 86.1755 29.7362 86.2509L30.9917 87.9311C31.077 87.9453 31.14 87.9594 31.1949 87.9655C31.2497 87.9716 31.2944 87.9878 31.3229 87.9878C31.3513 87.9878 31.3635 87.9878 31.3777 87.9878C31.4283 87.9958 31.4741 88.0225 31.5057 88.0627C31.5373 88.1029 31.5526 88.1535 31.5484 88.2044Z" fill="#001C4E"/>
<path d="M39.3922 83.5342V84.8702H38.9858C38.9468 84.8726 38.9083 84.8601 38.8782 84.8353C38.848 84.8105 38.8284 84.7752 38.8233 84.7366C38.8233 84.6799 38.7969 84.5342 38.7746 84.2872H37.131V85.6941H38.8599V86.4249H37.131V87.854H38.7746C38.7969 87.607 38.8172 87.4593 38.8233 87.4026C38.8288 87.3642 38.8486 87.3292 38.8786 87.3044C38.9087 87.2797 38.9469 87.2671 38.9858 87.269H39.3922V88.6131H35.646V88.2083C35.6413 88.1564 35.6568 88.1048 35.6894 88.0641C35.7219 88.0234 35.7689 87.9967 35.8207 87.9896C35.8349 87.9888 35.8491 87.9888 35.8633 87.9896C35.8857 87.9896 35.9202 87.9755 35.969 87.9674C36.0177 87.9593 36.097 87.9471 36.1721 87.933V84.2305C36.0868 84.2164 36.0096 84.2022 35.969 84.1961C35.9283 84.19 35.8857 84.1739 35.8633 84.1739C35.8491 84.1747 35.8349 84.1747 35.8207 84.1739C35.7689 84.1668 35.7219 84.1401 35.6894 84.0994C35.6568 84.0587 35.6413 84.0071 35.646 83.9552V83.5504H39.4003L39.3922 83.5342Z" fill="#001C4E"/>
<path d="M48.8734 83.5342V83.939C48.878 83.9912 48.8622 84.0431 48.8293 84.0838C48.7963 84.1246 48.7488 84.1511 48.6967 84.1577C48.6825 84.1585 48.6682 84.1585 48.654 84.1577C48.6317 84.1577 48.5971 84.1718 48.5484 84.1799C48.4996 84.188 48.4285 84.2002 48.3452 84.2143V88.603H47.8515C47.7889 88.6041 47.7266 88.5924 47.6687 88.5686C47.6096 88.5387 47.5587 88.495 47.5204 88.441L44.8489 85.0747C44.8575 85.1472 44.8622 85.2202 44.8631 85.2933C44.8631 85.3621 44.8631 85.433 44.8631 85.4957V87.9248L45.3202 87.9876C45.3723 87.9942 45.4199 88.0207 45.4528 88.0614C45.4858 88.1022 45.5016 88.1541 45.497 88.2062V88.6111H43.4939V88.2062C43.4892 88.1544 43.5047 88.1028 43.5373 88.062C43.5698 88.0213 43.6168 87.9947 43.6686 87.9876C43.6827 87.9898 43.6971 87.9898 43.7112 87.9876C43.7458 87.9774 43.7811 87.97 43.8169 87.9653C43.8677 87.9653 43.9449 87.9451 44.0302 87.9309V84.2305C43.9449 84.2164 43.8677 84.2022 43.8169 84.1961C43.7661 84.19 43.7336 84.1739 43.7112 84.1739C43.697 84.1747 43.6828 84.1747 43.6686 84.1739C43.6168 84.1668 43.5698 84.1401 43.5373 84.0994C43.5047 84.0587 43.4892 84.0071 43.4939 83.9552V83.5504H44.5239C44.5665 83.5504 44.6011 83.5504 44.6295 83.5504C44.6567 83.5493 44.6836 83.5563 44.7067 83.5706C44.7314 83.5784 44.7532 83.5932 44.7697 83.6131C44.7956 83.6396 44.8193 83.668 44.8408 83.6981L47.5224 87.0949C47.5224 87.0099 47.5102 86.933 47.5021 86.856C47.494 86.7791 47.5021 86.7002 47.5021 86.6293V84.2305L47.043 84.1678C46.9909 84.1612 46.9434 84.1347 46.9104 84.094C46.8774 84.0532 46.8616 84.0013 46.8662 83.9492V83.5443H48.8714L48.8734 83.5342Z" fill="#001C4E"/>
<path d="M56.2581 87.0302C56.2584 87.249 56.2177 87.4659 56.1382 87.6698C56.0638 87.8698 55.945 88.0504 55.7908 88.1982C55.6322 88.3528 55.4425 88.4722 55.2342 88.5484C54.9945 88.6371 54.7402 88.6804 54.4845 88.6759H54.3789C53.8807 88.6665 53.3873 88.5763 52.9182 88.4087V87.101H53.3245C53.3626 87.0969 53.4009 87.1078 53.4312 87.1312C53.4615 87.1546 53.4815 87.1887 53.4871 87.2265C53.5013 87.2893 53.5216 87.4877 53.55 87.8115C53.8668 87.885 54.1921 87.9156 54.517 87.9026C54.743 87.9159 54.9663 87.8485 55.1468 87.7124C55.2219 87.6429 55.2805 87.5576 55.3181 87.4627C55.3557 87.3677 55.3715 87.2656 55.3642 87.1638C55.3686 87.0461 55.3344 86.9303 55.2667 86.8338C55.1934 86.7475 55.1018 86.6783 54.9985 86.6314C54.878 86.5724 54.753 86.523 54.6247 86.4836C54.4825 86.4431 54.3342 86.4067 54.194 86.3581C54.0473 86.3098 53.9034 86.2531 53.7633 86.1881C53.6225 86.1234 53.4934 86.0358 53.3814 85.9289C53.2651 85.8189 53.1755 85.6839 53.1193 85.5342C53.0468 85.3485 53.0109 85.1505 53.0137 84.9512C53.0153 84.7618 53.0549 84.5747 53.1303 84.4009C53.2056 84.227 53.3152 84.07 53.4525 83.9391C53.605 83.7999 53.782 83.6901 53.9746 83.6152C54.2016 83.5263 54.4439 83.483 54.6877 83.4876C55.1888 83.4892 55.6848 83.5875 56.1484 83.7771V85.0767H55.7421C55.703 85.0791 55.6645 85.0666 55.6344 85.0418C55.6042 85.017 55.5846 84.9818 55.5795 84.9431C55.5653 84.8804 55.545 84.6901 55.5166 84.3743C55.2505 84.2851 54.97 84.2466 54.6897 84.2609C54.5752 84.2589 54.4609 84.2732 54.3505 84.3034C54.2614 84.3335 54.1782 84.3787 54.1046 84.437C54.0399 84.4939 53.9868 84.5626 53.9482 84.6395C53.914 84.7222 53.8974 84.8111 53.8995 84.9006C53.8991 85.0084 53.9365 85.1129 54.0051 85.1962C54.0768 85.2816 54.1662 85.3507 54.2672 85.3986C54.389 85.4615 54.5161 85.5137 54.6471 85.5545C54.7893 85.597 54.9294 85.6455 55.0778 85.6941C55.2261 85.7427 55.3683 85.8075 55.5084 85.8702C55.649 85.9327 55.7781 86.0183 55.8904 86.1233C56.0056 86.2268 56.0971 86.3538 56.1585 86.4958C56.2303 86.6646 56.2643 86.8469 56.2581 87.0302Z" fill="#001C4E"/>
<path d="M64.5245 83.5342V84.7366H64.1182C64.0782 84.7392 64.0387 84.727 64.0072 84.7023C63.9757 84.6777 63.9544 84.6423 63.9475 84.603C63.9475 84.5605 63.9272 84.4694 63.913 84.3156H62.8749V87.9228C62.9602 87.937 63.0313 87.9512 63.078 87.9572C63.1247 87.9633 63.1633 87.9795 63.1837 87.9795C63.1979 87.9786 63.2121 87.9786 63.2263 87.9795C63.2795 87.9846 63.3286 88.0105 63.3628 88.0514C63.397 88.0923 63.4137 88.1451 63.4092 88.1981V88.603H61.3898V88.1981C61.3852 88.146 61.401 88.0941 61.4339 88.0533C61.4669 88.0126 61.5144 87.9861 61.5665 87.9795C61.5807 87.9786 61.595 87.9786 61.6092 87.9795C61.6315 87.9795 61.6661 87.9653 61.7148 87.9572C61.7636 87.9492 61.8347 87.937 61.918 87.9228V84.3075H60.8799C60.8656 84.4633 60.8514 84.5605 60.8453 84.603C60.8403 84.6416 60.8207 84.6769 60.7905 84.7017C60.7603 84.7265 60.7218 84.739 60.6828 84.7366H60.2765V83.5342H64.5184H64.5245Z" fill="#001C4E"/>
<path d="M73.5243 88.259V88.6173H71.8077V88.259C71.8099 88.2178 71.8247 88.1783 71.8502 88.1457C71.8756 88.1131 71.9104 88.0891 71.9499 88.0768C71.9641 88.0768 72.0129 88.0545 72.0901 88.0201L72.0616 87.9432L71.8077 87.2468H69.7761L69.514 87.9715L69.4937 88.014C69.5709 88.0484 69.6197 88.0626 69.6339 88.0707C69.6734 88.083 69.7082 88.1071 69.7336 88.1396C69.759 88.1722 69.7739 88.2117 69.7761 88.2529V88.6112H68.0533V88.259C68.0554 88.218 68.07 88.1787 68.095 88.1462C68.12 88.1136 68.1544 88.0894 68.1935 88.0768L68.5836 87.9148L70.3043 83.5322H71.2795L73.0083 87.9148L73.3963 88.0768C73.4347 88.0891 73.4679 88.1136 73.491 88.1465C73.5141 88.1793 73.5258 88.2188 73.5243 88.259ZM70.0158 86.5849H71.5619L70.9768 85.0019C70.9483 84.9249 70.9199 84.8399 70.8853 84.7428C70.8508 84.6456 70.8203 84.5241 70.7858 84.4047C70.7513 84.5241 70.7147 84.6375 70.6863 84.7428C70.6591 84.837 70.6266 84.9296 70.5887 85.0201L70.0158 86.5849Z" fill="#001C4E"/>
<path d="M82.9812 83.5342V83.939C82.9859 83.9912 82.97 84.0431 82.9371 84.0838C82.9041 84.1246 82.8566 84.1511 82.8045 84.1577C82.7903 84.1585 82.776 84.1585 82.7618 84.1577C82.7395 84.1577 82.7049 84.1718 82.6562 84.1799C82.6074 84.188 82.5363 84.2002 82.453 84.2143V88.603H81.9655C81.9022 88.6039 81.8393 88.5922 81.7806 88.5686C81.7221 88.5379 81.6713 88.4942 81.6323 88.441L78.9649 85.0585C78.9735 85.131 78.9782 85.204 78.9791 85.2771C78.9791 85.3459 78.9791 85.4168 78.9791 85.4795V87.9087L79.4362 87.9714C79.4883 87.978 79.5358 88.0045 79.5688 88.0452C79.6017 88.086 79.6176 88.1379 79.6129 88.19V88.5949H77.6098V88.19C77.6052 88.1382 77.6207 88.0866 77.6532 88.0459C77.6858 88.0051 77.7328 87.9785 77.7845 87.9714C77.7987 87.9736 77.8131 87.9736 77.8272 87.9714C77.8618 87.9612 77.8971 87.9538 77.9328 87.9491C77.9836 87.9491 78.0608 87.9289 78.1462 87.9147V84.2305C78.0608 84.2164 77.9836 84.2022 77.9328 84.1961C77.882 84.19 77.8495 84.1739 77.8272 84.1739C77.813 84.1747 77.7987 84.1747 77.7845 84.1739C77.7328 84.1668 77.6858 84.1401 77.6532 84.0994C77.6207 84.0587 77.6052 84.0071 77.6098 83.9552V83.5504H78.6398C78.6825 83.5504 78.717 83.5504 78.7455 83.5504C78.7726 83.5493 78.7995 83.5563 78.8227 83.5706C78.8473 83.5784 78.8692 83.5932 78.8856 83.6131C78.9115 83.6396 78.9353 83.668 78.9567 83.6981L81.6384 87.0949C81.6384 87.0099 81.6242 86.933 81.6181 86.856C81.612 86.7791 81.6181 86.7002 81.6181 86.6293V84.2305L81.1589 84.1678C81.1068 84.1612 81.0593 84.1347 81.0264 84.094C80.9934 84.0532 80.9776 84.0013 80.9822 83.9492V83.5443H82.9812V83.5342Z" fill="#001C4E"/>
<path d="M92.0339 86.0728C92.038 86.4246 91.9739 86.7738 91.8449 87.1012C91.7263 87.4028 91.5488 87.678 91.3228 87.9109C91.09 88.1373 90.8136 88.3143 90.5102 88.4311C90.1751 88.5618 89.8177 88.6264 89.4579 88.6214H87.0444V88.2166C87.0397 88.1644 87.0556 88.1125 87.0885 88.0718C87.1215 88.031 87.169 88.0045 87.2211 87.9979C87.2353 87.9967 87.2496 87.9967 87.2638 87.9979C87.2841 87.9979 87.3207 87.9838 87.3694 87.9757L87.5726 87.9413V84.2307L87.3694 84.1963C87.3207 84.1963 87.2841 84.1741 87.2638 84.1741C87.2496 84.1753 87.2353 84.1753 87.2211 84.1741C87.169 84.1674 87.1215 84.141 87.0885 84.1002C87.0556 84.0595 87.0397 84.0076 87.0444 83.9554V83.5506H89.4518C89.8116 83.5456 90.169 83.6102 90.5041 83.7408C90.8095 83.8528 91.0872 84.0288 91.3185 84.2568C91.5498 84.4849 91.7293 84.7597 91.8449 85.0627C91.9718 85.3844 92.0359 85.7272 92.0339 86.0728ZM91.0607 86.0728C91.0661 85.8199 91.0276 85.5678 90.947 85.3279C90.8806 85.1209 90.7728 84.9295 90.6301 84.7651C90.4882 84.6127 90.315 84.4925 90.1222 84.4129C89.9093 84.327 89.6814 84.2843 89.4518 84.2874H88.5335V87.8664H89.4518C89.6814 87.8695 89.9093 87.8268 90.1222 87.7409C90.315 87.6613 90.4882 87.5411 90.6301 87.3886C90.7744 87.2255 90.8825 87.0337 90.947 86.8259C91.0276 86.5831 91.0661 86.3285 91.0607 86.0728Z" fill="#001C4E"/>
<path d="M79.8791 49.0485V19.9331L79.4383 19.8623C69.8412 18.3036 58.0094 14.2692 53.2129 8.76716L52.8574 8.3623L52.4511 8.7287C47.5449 13.2672 37.0925 17.1761 25.8255 18.6862L25.3724 18.7469V49.008C25.3724 49.172 24.2713 65.3866 37.446 70.4453C50.9843 77.004 52.1016 77.5505 52.1016 77.5526L52.3454 77.67L52.5852 77.5424C52.6299 77.5181 53.8488 76.8704 67.3668 70.4574C80.5739 65.3845 79.8873 49.1902 79.8791 49.0485ZM66.9544 69.504C55.9839 74.7003 53.0788 76.1254 52.3271 76.4999C51.5877 76.1396 48.6805 74.7287 37.8686 69.4878C25.3887 64.6943 26.4126 49.2449 26.4248 49.0424V19.6558C37.4318 18.1153 47.6444 14.3097 52.7741 9.84813C58.176 15.6113 70.4486 19.3279 78.8268 20.8178V49.0748C78.8309 49.2307 79.483 64.6922 66.9544 69.504Z" fill="#5EA84E"/>
<path d="M77.7824 48.6881V22.2185C67.3016 20.6477 57.0727 16.4331 52.7394 11.4614C47.8027 16.0303 38.0878 19.1072 27.609 20.4027L27.477 48.6881C27.477 48.6881 26.8777 63.3946 38.8822 68.006C51.3966 74.0788 52.1482 74.5687 52.1482 74.5687C52.1482 74.5687 53.3672 74.0809 66.1985 68.006C78.203 63.3946 77.7824 48.6881 77.7824 48.6881ZM52.8268 64.3582C48.5901 64.3586 44.4484 63.1071 40.9255 60.762C37.4026 58.417 34.6567 55.0836 33.0351 51.1835C31.4135 47.2834 30.989 42.9918 31.8153 38.8513C32.6416 34.7108 34.6816 30.9074 37.6773 27.9222C40.6729 24.937 44.4897 22.9039 48.645 22.0802C52.8003 21.2565 57.1074 21.679 61.0216 23.2945C64.9359 24.9099 68.2815 27.6456 70.6353 31.1557C72.9891 34.6658 74.2455 38.7925 74.2455 43.0141C74.2455 48.6745 71.989 54.1032 67.9722 58.1059C63.9555 62.1087 58.5076 64.3576 52.8268 64.3582Z" fill="#72BF65"/>
<path d="M52.6298 23.7998C48.8153 23.7994 45.0863 24.9261 41.9145 27.0375C38.7427 29.1489 36.2705 32.1501 34.8106 35.6616C33.3507 39.173 32.9686 43.037 33.7126 46.7649C34.4567 50.4927 36.2935 53.917 38.9908 56.6046C41.6881 59.2922 45.1246 61.1224 48.8658 61.8639C52.6071 62.6053 56.4849 62.2245 60.009 60.7698C63.533 59.3151 66.545 56.8518 68.664 53.6913C70.783 50.5308 71.9137 46.8152 71.9133 43.0144C71.909 37.9197 69.876 33.0349 66.2606 29.4324C62.6451 25.8299 57.7428 23.8041 52.6298 23.7998ZM52.6298 61.1864C49.0228 61.1864 45.4968 60.1207 42.4977 58.1239C39.4986 56.1271 37.1611 53.289 35.7807 49.9685C34.4004 46.648 34.0392 42.9942 34.7429 39.4692C35.4466 35.9441 37.1835 32.7062 39.7341 30.1648C42.2846 27.6234 45.5342 25.8927 49.0719 25.1915C52.6096 24.4903 56.2765 24.8502 59.6089 26.2256C62.9413 27.601 65.7896 29.9301 67.7936 32.9185C69.7975 35.9069 70.8671 39.4203 70.8671 43.0144C70.8617 47.8323 68.9386 52.4513 65.5196 55.8581C62.1006 59.2648 57.465 61.1811 52.6298 61.1864Z" fill="#5EA84E"/>
<path d="M51.2137 38.2023H51.0329V43.099H51.2137H52.5079V38.2023H51.2137ZM51.2137 38.2023H51.0329V43.099H51.2137H52.5079V38.2023H51.2137ZM43.4512 29.1152V33.8258C43.7997 33.2197 44.3525 32.7564 45.0114 32.5181C45.4569 32.3475 45.9298 32.2591 46.4071 32.2569H51.0329V49.5221C51.0281 50.006 50.9395 50.4853 50.7709 50.9391C50.6402 51.2676 50.463 51.5757 50.2447 51.8541C50.0136 52.1066 49.7491 52.3265 49.4585 52.5079H55.7563C55.4651 52.3266 55.1999 52.1066 54.9681 51.8541C54.7484 51.5741 54.5667 51.2664 54.4277 50.9391C54.2484 50.4888 54.1647 50.0063 54.1819 49.5221V32.2569H58.8057C59.2773 32.2622 59.7444 32.3506 60.1851 32.5181C60.5155 32.6459 60.8249 32.8219 61.1034 33.0403C61.3584 33.2698 61.5793 33.5342 61.7596 33.8258V29.1152H43.4512ZM60.2867 30.9715C59.8068 30.8333 59.3093 30.7651 58.8097 30.7691H52.711V35.8926L53.164 36.344L52.9853 36.5201L52.7821 36.7225L52.7029 36.8015V44.2407L53.032 44.5707L53.1559 44.6922L52.711 45.1517V49.5545C52.7096 49.807 52.7313 50.059 52.776 50.3075C52.8207 50.5464 52.8756 50.7853 52.9406 51.0262H52.3047L52.4367 50.3075C52.4804 50.0589 52.5022 49.8069 52.5018 49.5545V45.1557L52.1178 44.7751L52.0447 44.7003L52.1666 44.5788L52.5018 44.2468V36.8136L52.2214 36.5343L52.0447 36.3581L52.5018 35.9027V30.7833H46.4132C45.9132 30.7824 45.4155 30.8506 44.9342 30.9857V30.595H60.2928L60.2867 30.9715ZM51.2137 38.1942H51.0329V43.0909H51.2137H52.5079V38.2023L51.2137 38.1942Z" fill="#5EA84E"/>
<path d="M49.1131 38.9211C49.6528 38.4722 50.33 38.2201 51.0329 38.2065H51.2137H52.5078V36.8178L52.4245 36.7348H51.2056H51.0248C49.9812 36.7703 48.9759 37.1354 48.1542 37.7773C47.7232 38.138 47.3713 38.5831 47.1201 39.085C46.8718 39.5717 46.7423 40.1099 46.7423 40.6559C46.7411 41.1962 46.8707 41.7288 47.1201 42.2085C47.3744 42.7038 47.726 43.143 48.1542 43.5C48.9568 44.1798 49.9716 44.5604 51.0248 44.5769H52.1665L52.5017 44.2449V43.1174H51.2056H51.0248C50.3217 43.1047 49.6442 42.8526 49.105 42.4028C48.8393 42.198 48.6242 41.9352 48.4762 41.6346C48.3282 41.3341 48.2513 41.0038 48.2513 40.669C48.2513 40.3343 48.3282 40.004 48.4762 39.7034C48.6242 39.4029 48.8393 39.1401 49.105 38.9352L49.1131 38.9211ZM49.1131 38.9211C49.6528 38.4722 50.33 38.2201 51.0329 38.2065H51.2137H52.5078V36.8178L52.4245 36.7348H51.2056H51.0248C49.9812 36.7703 48.9759 37.1354 48.1542 37.7773C47.7232 38.138 47.3713 38.5831 47.1201 39.085C46.8718 39.5717 46.7423 40.1099 46.7423 40.6559C46.7411 41.1962 46.8707 41.7288 47.1201 42.2085C47.3744 42.7038 47.726 43.143 48.1542 43.5C48.9568 44.1798 49.9716 44.5604 51.0248 44.5769H52.1665L52.5017 44.2449V43.1174H51.2056H51.0248C50.3217 43.1047 49.6442 42.8526 49.105 42.4028C48.8393 42.198 48.6242 41.9352 48.4762 41.6346C48.3282 41.3341 48.2513 41.0038 48.2513 40.669C48.2513 40.3343 48.3282 40.004 48.4762 39.7034C48.6242 39.4029 48.8393 39.1401 49.105 38.9352L49.1131 38.9211ZM61.0587 47.7834C60.604 46.8229 59.956 45.9658 59.1551 45.2652C58.3628 44.5647 57.4437 44.0213 56.447 43.664C55.7176 43.398 54.957 43.2259 54.1839 43.1518C53.8751 43.1215 53.5642 43.1073 53.2473 43.1073H51.2158H51.0349C50.3319 43.0946 49.6544 42.8424 49.1151 42.3927C48.8494 42.1878 48.6343 41.9251 48.4864 41.6245C48.3384 41.324 48.2615 40.9937 48.2615 40.6589C48.2615 40.3241 48.3384 39.9938 48.4864 39.6933C48.6343 39.3928 48.8494 39.13 49.1151 38.9251C49.6549 38.4762 50.3321 38.2242 51.0349 38.2105H51.2158H53.3814C53.6548 38.2089 53.9275 38.2388 54.194 38.2996C54.4507 38.3574 54.6987 38.4486 54.9315 38.5708C55.3677 38.7893 55.7405 39.1155 56.0143 39.5182C56.0986 39.6562 56.1442 39.8142 56.1464 39.9757C56.1478 40.1027 56.1133 40.2276 56.0468 40.336C55.9743 40.4626 55.8752 40.5721 55.7564 40.657C55.6375 40.7419 55.5017 40.8002 55.3581 40.8279H60.2481C59.8113 40.7186 59.5594 40.4879 59.4944 40.1397C59.3604 38.7818 58.7053 37.528 57.666 36.6397C56.7058 35.78 55.4965 35.2462 54.2123 35.1154C53.9425 35.0847 53.6712 35.0698 53.3997 35.0708H51.0329C49.5244 35.0785 48.071 35.6367 46.9475 36.6397C46.3595 37.1336 45.8873 37.7498 45.564 38.4451C45.2408 39.1403 45.0743 39.8977 45.0764 40.664C45.0764 42.2335 45.7001 43.5742 46.9475 44.6862C48.0713 45.6885 49.5247 46.2459 51.0329 46.253H53.2473C53.5609 46.2529 53.8739 46.2765 54.1839 46.3239C55.2135 46.4842 56.1818 46.9145 56.9894 47.5709C57.4643 47.9657 57.8499 48.4562 58.121 49.0101C58.391 49.5568 58.5314 50.1579 58.5314 50.7672C58.5314 51.3765 58.391 51.9776 58.121 52.5243C57.8466 53.0697 57.4612 53.5523 56.9894 53.9413C56.4861 54.3579 55.9143 54.6846 55.2992 54.9069C54.6423 55.1478 53.9473 55.2691 53.2473 55.2652H52.3616C51.6622 55.2692 50.9679 55.1478 50.3117 54.9069C49.6964 54.685 49.1245 54.3583 48.6215 53.9413C48.1497 53.5523 47.7643 53.0697 47.4899 52.5243C47.2164 51.9761 47.0772 51.3712 47.0836 50.7591C47.0827 50.6334 47.0881 50.5077 47.0998 50.3826C47.0998 50.2632 47.1262 50.1376 47.1486 50.0081C47.2346 49.7322 47.4141 49.4947 47.6565 49.336C47.853 49.2091 48.0692 49.1154 48.2964 49.0587C48.361 49.0336 48.4303 49.0226 48.4996 49.0263L43.5121 46.8684C43.7796 47.2043 43.9697 47.5948 44.0687 48.0121C44.0912 48.2402 44.102 48.4692 44.1012 48.6984C44.1016 48.9167 44.0908 49.135 44.0687 49.3522C43.9637 49.814 43.9085 50.2856 43.9042 50.7591C43.9012 51.7924 44.1259 52.8137 44.5624 53.751C45.0079 54.7124 45.6573 55.566 46.466 56.253C47.2604 56.954 48.1777 57.503 49.172 57.8725C50.195 58.2546 51.2792 58.4487 52.3717 58.4453H53.2575C54.35 58.4487 55.4341 58.2546 56.4572 57.8725C57.4521 57.5031 58.3701 56.9541 59.1652 56.253C59.9733 55.5654 60.6226 54.7119 61.0688 53.751C61.5038 52.8133 61.7278 51.7922 61.725 50.7591C61.7256 49.7304 61.4981 48.7143 61.0587 47.7834ZM59.7138 53.1458C59.3565 53.9184 58.8287 54.6007 58.1698 55.1417C57.5134 55.731 56.751 56.1912 55.9229 56.498C55.0676 56.8177 54.1608 56.9789 53.2473 56.9737H52.3616C51.4543 56.976 50.554 56.8148 49.7043 56.498C48.8694 56.1938 48.1006 55.7334 47.4391 55.1417C46.7954 54.5906 46.2756 53.9105 45.9134 53.1458C45.556 52.4006 45.3714 51.585 45.373 50.7591C45.3696 50.5732 45.3777 50.3873 45.3974 50.2024C45.4163 50.0154 45.4489 49.83 45.4949 49.6478V49.581C45.5221 49.5079 45.5332 49.4299 45.5274 49.3522L45.757 49.4514C45.7587 49.469 45.7567 49.4867 45.7511 49.5035C45.7455 49.5202 45.7364 49.5356 45.7245 49.5486V49.6478L45.6919 49.7126C45.6294 50.058 45.5968 50.4081 45.5944 50.7591C45.5893 51.5698 45.7743 52.3704 46.1348 53.0972C46.4895 53.8204 46.9862 54.4654 47.5955 54.9939C48.9189 56.128 50.608 56.7489 52.3534 56.7429H53.2392C54.1414 56.7495 55.037 56.5889 55.8802 56.2692C56.6662 55.9731 57.3938 55.5414 58.0296 54.9939C58.6389 54.4654 59.1357 53.8204 59.4903 53.0972C59.8458 52.3687 60.0306 51.5692 60.0306 50.7591C60.0306 49.949 59.8458 49.1496 59.4903 48.4211C59.1351 47.6981 58.6385 47.0532 58.0296 46.5243C57.3938 45.9768 56.6662 45.5451 55.8802 45.249C55.3312 45.0389 54.7579 44.8981 54.1737 44.83C53.8629 44.7932 53.5502 44.7749 53.2372 44.7753H53.0767L52.5972 45.253L52.4997 45.1559L52.1157 44.7753H51.2036H51.0228C50.474 44.7613 49.9312 44.6581 49.4158 44.4696C48.8659 44.2661 48.3593 43.9612 47.9226 43.5709C47.4909 43.2139 47.1435 42.7666 46.905 42.2607C46.6666 41.7547 46.5429 41.2027 46.5429 40.6437C46.5429 40.0848 46.6666 39.5327 46.905 39.0268C47.1435 38.5209 47.4909 38.0735 47.9226 37.7166C48.7805 36.9661 49.8812 36.5493 51.0228 36.5425H51.2036H52.2193L52.0426 36.3664L52.4997 35.9109L52.5972 35.8138L53.1498 36.3664L52.971 36.5425H53.3773C53.6493 36.5419 53.9209 36.5616 54.19 36.6012C55.1073 36.7259 55.9681 37.115 56.6664 37.7206C57.1683 38.1647 57.5516 38.726 57.7818 39.3543H57.5197C57.4576 39.1637 57.3809 38.9783 57.2901 38.7996L57.2576 38.7672V38.7328C56.8602 38.0982 56.2913 37.5881 55.6161 37.2611C55.1685 37.0367 54.6888 36.8824 54.194 36.8036C53.9254 36.76 53.6536 36.7384 53.3814 36.7389H52.7882L52.6094 36.919L52.4286 36.7389H51.2097H51.0289C49.9853 36.7743 48.98 37.1394 48.1583 37.7814C47.7273 38.1421 47.3753 38.5872 47.1242 39.0891C46.8758 39.5757 46.7463 40.114 46.7463 40.6599C46.7452 41.2002 46.8748 41.7328 47.1242 42.2126C47.3784 42.7078 47.7301 43.147 48.1583 43.504C48.9609 44.1838 49.9756 44.5645 51.0289 44.581H52.1706L52.5058 44.249L52.6033 44.1518L52.7029 44.251L53.032 44.581H53.2351C53.548 44.5811 53.8607 44.5986 54.1717 44.6336C54.7655 44.6991 55.3493 44.835 55.9107 45.0385C56.74 45.3363 57.5031 45.7921 58.1576 46.3806C59.5377 47.5789 60.2271 49.0391 60.2257 50.7611C60.2307 51.5836 60.056 52.3973 59.7138 53.1458ZM49.1131 38.9211C49.6528 38.4722 50.33 38.2201 51.0329 38.2065H51.2137H52.5078V36.8178L52.4245 36.7348H51.2056H51.0248C49.9812 36.7703 48.9759 37.1354 48.1542 37.7773C47.7232 38.138 47.3713 38.5831 47.1201 39.085C46.8718 39.5717 46.7423 40.1099 46.7423 40.6559C46.7411 41.1962 46.8707 41.7288 47.1201 42.2085C47.3744 42.7038 47.726 43.143 48.1542 43.5C48.9568 44.1798 49.9716 44.5604 51.0248 44.5769H52.1665L52.5017 44.2449V43.1174H51.2056H51.0248C50.3217 43.1047 49.6442 42.8526 49.105 42.4028C48.8393 42.198 48.6242 41.9352 48.4762 41.6346C48.3282 41.3341 48.2513 41.0038 48.2513 40.669C48.2513 40.3343 48.3282 40.004 48.4762 39.7034C48.6242 39.4029 48.8393 39.1401 49.105 38.9352L49.1131 38.9211Z" fill="#5EA84E"/>
</svg>
