<svg width="24" height="24" viewBox="0 0 24 24" fill="none" xmlns="http://www.w3.org/2000/svg">
<path d="M20.7102 3.65451C20.7102 3.65451 22.6527 2.89701 22.4902 4.73651C22.4367 5.49401 21.9512 8.14551 21.5732 11.013L20.2782 19.508C20.2782 19.508 20.1702 20.7525 19.1987 20.969C18.2277 21.185 16.7707 20.2115 16.5007 19.995C16.2847 19.8325 12.4537 17.3975 11.1047 16.2075C10.7267 15.8825 10.2947 15.2335 11.1587 14.476L16.8242 9.06501C17.4717 8.41601 18.1192 6.90101 15.4212 8.74051L7.86616 13.8805C7.86616 13.8805 7.00266 14.422 5.38416 13.935L1.87616 12.8525C1.87616 12.8525 0.581159 12.041 2.79366 11.2295C8.19016 8.68651 14.8277 6.08951 20.7092 3.65451H20.7102Z" fill="white" fill-opacity="0.38"/>
</svg>
