<svg width="50" height="50" viewBox="0 0 50 50" fill="none" xmlns="http://www.w3.org/2000/svg">
<circle cx="25" cy="25" r="25" fill="#72BF65"/>
<path d="M41.3282 28.5986V11.115L41.0642 11.0724C35.3158 10.1364 28.2288 7.71379 25.3558 4.40986L25.1429 4.16675L24.8995 4.38677C21.9608 7.11208 15.7001 9.45936 8.95139 10.3662L8.68003 10.4026V28.5743C8.68003 28.6727 8.0205 38.4095 15.9118 41.4472C24.0209 45.3856 24.6902 45.7138 24.6902 45.7151L24.8362 45.7856L24.9798 45.709C25.0066 45.6944 25.7367 45.3054 33.8336 41.4545C41.7444 38.4082 41.3331 28.6837 41.3282 28.5986ZM33.5866 40.8819C27.0156 44.0023 25.2755 44.8581 24.8253 45.083C24.3823 44.8666 22.641 44.0193 16.1649 40.8722C8.68977 37.9937 9.30306 28.7165 9.31036 28.5949V10.9484C15.9033 10.0234 22.0204 7.7381 25.093 5.05898C28.3286 8.51972 35.6796 10.7515 40.6979 11.6462V28.6144C40.7003 28.708 41.091 37.9925 33.5866 40.8819Z" fill="white"/>
<path d="M40.0722 28.382V12.4871C33.7945 11.5439 27.6676 9.01304 25.0721 6.02759C22.1151 8.77114 16.2961 10.6188 10.0196 11.3968L9.94046 28.382C9.94046 28.382 9.58149 37.2131 16.7719 39.9822C24.2677 43.6289 24.7179 43.9231 24.7179 43.9231C24.7179 43.9231 25.4481 43.6301 33.1337 39.9822C40.3241 37.2131 40.0722 28.382 40.0722 28.382ZM25.1244 37.7917C22.5867 37.792 20.1059 37.0405 17.9958 35.6323C15.8857 34.2241 14.241 32.2224 13.2697 29.8804C12.2984 27.5385 12.0441 24.9613 12.539 22.475C13.034 19.9887 14.2558 17.7048 16.0502 15.9122C17.8445 14.1196 20.1307 12.8987 22.6196 12.4041C25.1085 11.9094 27.6884 12.1632 30.0329 13.1332C32.3774 14.1033 34.3814 15.7461 35.7913 17.8539C37.2011 19.9616 37.9537 22.4397 37.9537 24.9747C37.9537 28.3738 36.6021 31.6337 34.1961 34.0373C31.7902 36.4409 28.527 37.7914 25.1244 37.7917Z" fill="white"/>
<path d="M25.0064 13.4365C22.7216 13.4363 20.4881 14.1129 18.5883 15.3808C16.6884 16.6486 15.2076 18.4508 14.3332 20.5594C13.4587 22.6681 13.2298 24.9884 13.6755 27.2269C14.1212 29.4654 15.2214 31.5217 16.837 33.1356C18.4526 34.7495 20.511 35.8485 22.7519 36.2937C24.9928 36.739 27.3156 36.5103 29.4264 35.6368C31.5372 34.7632 33.3413 33.284 34.6105 31.3862C35.8798 29.4883 36.5571 27.2571 36.5568 24.9747C36.5542 21.9154 35.3365 18.9821 33.171 16.8188C31.0054 14.6556 28.069 13.4391 25.0064 13.4365ZM25.0064 35.887C22.8459 35.887 20.7339 35.247 18.9376 34.0479C17.1412 32.8489 15.741 31.1446 14.9142 29.1507C14.0875 27.1567 13.8711 24.9626 14.2926 22.8459C14.7141 20.7291 15.7545 18.7848 17.2822 17.2587C18.8099 15.7326 20.7563 14.6933 22.8753 14.2722C24.9943 13.8512 27.1907 14.0673 29.1868 14.8932C31.1828 15.7191 32.8889 17.1177 34.0892 18.9123C35.2895 20.7068 35.9301 22.8165 35.9301 24.9747C35.9269 27.8679 34.775 30.6416 32.7271 32.6873C30.6792 34.733 27.9026 35.8837 25.0064 35.887Z" fill="white"/>
<path d="M24.1584 22.0854H24.0501V25.0258H24.1584H24.9335V22.0854H24.1584ZM24.1584 22.0854H24.0501V25.0258H24.1584H24.9335V22.0854H24.1584ZM19.5088 16.6287V19.4573C19.7176 19.0934 20.0487 18.8152 20.4433 18.672C20.7102 18.5696 20.9934 18.5165 21.2793 18.5152H24.0501V28.8829C24.0472 29.1734 23.9941 29.4613 23.8931 29.7338C23.8149 29.931 23.7087 30.116 23.578 30.2832C23.4395 30.4348 23.2811 30.5669 23.107 30.6758H26.8793C26.7048 30.5669 26.546 30.4348 26.4071 30.2832C26.2756 30.115 26.1667 29.9303 26.0835 29.7338C25.9761 29.4633 25.9259 29.1736 25.9362 28.8829V18.5152H28.7058C28.9883 18.5184 29.268 18.5715 29.532 18.672C29.7299 18.7488 29.9153 18.8545 30.082 18.9857C30.2348 19.1234 30.3671 19.2823 30.4751 19.4573V16.6287H19.5088ZM29.5929 17.7433C29.3054 17.6603 29.0074 17.6194 28.7082 17.6218H25.0552V20.6984L25.3266 20.9695L25.2195 21.0752L25.0978 21.1968L25.0503 21.2442V25.7114L25.2475 25.9096L25.3217 25.9825L25.0552 26.2584V28.9023C25.0544 29.0539 25.0674 29.2053 25.0942 29.3545C25.1209 29.4979 25.1538 29.6414 25.1927 29.786H24.8118L24.8909 29.3545C24.9171 29.2052 24.9301 29.0539 24.9299 28.9023V26.2609L24.6999 26.0323L24.6561 25.9874L24.7291 25.9144L24.9299 25.7151V21.2515L24.762 21.0837L24.6561 20.978L24.9299 20.7045V17.6303H21.283C20.9835 17.6298 20.6854 17.6707 20.3971 17.7519V17.5172H29.5965L29.5929 17.7433ZM24.1584 22.0805H24.0501V25.021H24.1584H24.9335V22.0854L24.1584 22.0805Z" fill="white"/>
<path d="M22.9003 22.5169C23.2236 22.2473 23.6292 22.096 24.0502 22.0878H24.1585H24.9336V21.2539L24.8838 21.2041H24.1536H24.0453C23.4203 21.2254 22.8181 21.4446 22.3259 21.8301C22.0678 22.0467 21.857 22.314 21.7065 22.6153C21.5578 22.9076 21.4802 23.2308 21.4802 23.5586C21.4795 23.8831 21.5572 24.2029 21.7065 24.491C21.8588 24.7884 22.0695 25.0521 22.3259 25.2665C22.8067 25.6747 23.4145 25.9033 24.0453 25.9132H24.7292L24.93 25.7138V25.0368H24.1536H24.0453C23.6242 25.0292 23.2184 24.8777 22.8954 24.6077C22.7363 24.4846 22.6074 24.3268 22.5188 24.1464C22.4302 23.9659 22.3841 23.7676 22.3841 23.5665C22.3841 23.3655 22.4302 23.1672 22.5188 22.9867C22.6074 22.8062 22.7363 22.6484 22.8954 22.5254L22.9003 22.5169ZM22.9003 22.5169C23.2236 22.2473 23.6292 22.096 24.0502 22.0878H24.1585H24.9336V21.2539L24.8838 21.2041H24.1536H24.0453C23.4203 21.2254 22.8181 21.4446 22.3259 21.8301C22.0678 22.0467 21.857 22.314 21.7065 22.6153C21.5578 22.9076 21.4802 23.2308 21.4802 23.5586C21.4795 23.8831 21.5572 24.2029 21.7065 24.491C21.8588 24.7884 22.0695 25.0521 22.3259 25.2665C22.8067 25.6747 23.4145 25.9033 24.0453 25.9132H24.7292L24.93 25.7138V25.0368H24.1536H24.0453C23.6242 25.0292 23.2184 24.8777 22.8954 24.6077C22.7363 24.4846 22.6074 24.3268 22.5188 24.1464C22.4302 23.9659 22.3841 23.7676 22.3841 23.5665C22.3841 23.3655 22.4302 23.1672 22.5188 22.9867C22.6074 22.8062 22.7363 22.6484 22.8954 22.5254L22.9003 22.5169ZM30.0554 27.8387C29.783 27.2619 29.3949 26.7472 28.9152 26.3265C28.4406 25.9059 27.8901 25.5795 27.2931 25.365C26.8562 25.2053 26.4007 25.1019 25.9376 25.0574C25.7526 25.0392 25.5664 25.0307 25.3766 25.0307H24.1597H24.0514C23.6303 25.0231 23.2245 24.8716 22.9015 24.6016C22.7423 24.4786 22.6135 24.3208 22.5249 24.1403C22.4363 23.9598 22.3902 23.7615 22.3902 23.5605C22.3902 23.3594 22.4363 23.1611 22.5249 22.9806C22.6135 22.8001 22.7423 22.6423 22.9015 22.5193C23.2248 22.2498 23.6304 22.0984 24.0514 22.0902H24.1597H25.4569C25.6207 22.0893 25.784 22.1072 25.9436 22.1437C26.0974 22.1784 26.2459 22.2332 26.3854 22.3066C26.6466 22.4378 26.8699 22.6336 27.0339 22.8755C27.0844 22.9583 27.1117 23.0532 27.113 23.1502C27.1139 23.2265 27.0932 23.3015 27.0534 23.3666C27.01 23.4426 26.9506 23.5083 26.8795 23.5593C26.8083 23.6103 26.7269 23.6453 26.6409 23.662H29.5699C29.3082 23.5963 29.1574 23.4577 29.1184 23.2487C29.0381 22.4333 28.6458 21.6803 28.0232 21.1469C27.4481 20.6307 26.7238 20.3102 25.9546 20.2316C25.793 20.2132 25.6305 20.2043 25.4678 20.2049H24.0502C23.1466 20.2095 22.2761 20.5446 21.6031 21.1469C21.2509 21.4435 20.9681 21.8136 20.7745 22.2311C20.5808 22.6486 20.4811 23.1034 20.4824 23.5635C20.4824 24.506 20.856 25.3111 21.6031 25.9788C22.2763 26.5807 23.1468 26.9154 24.0502 26.9197H25.3766C25.5644 26.9196 25.7519 26.9338 25.9376 26.9622C26.5543 27.0585 27.1343 27.3169 27.618 27.711C27.9024 27.9482 28.1334 28.2427 28.2958 28.5753C28.4575 28.9036 28.5416 29.2646 28.5416 29.6304C28.5416 29.9963 28.4575 30.3573 28.2958 30.6855C28.1314 31.0131 27.9006 31.3029 27.618 31.5364C27.3166 31.7866 26.974 31.9828 26.6056 32.1163C26.2121 32.2609 25.7958 32.3338 25.3766 32.3314H24.846C24.4272 32.3338 24.0113 32.2609 23.6182 32.1163C23.2497 31.983 22.9071 31.7868 22.6058 31.5364C22.3232 31.3029 22.0924 31.0131 21.928 30.6855C21.7642 30.3564 21.6808 29.9931 21.6846 29.6256C21.6841 29.5501 21.6874 29.4746 21.6944 29.3995C21.6944 29.3277 21.7102 29.2524 21.7236 29.1746C21.7751 29.0089 21.8827 28.8663 22.0278 28.771C22.1455 28.6948 22.275 28.6385 22.4111 28.6045C22.4498 28.5894 22.4913 28.5828 22.5328 28.585L19.5454 27.2892C19.7057 27.4909 19.8195 27.7254 19.8788 27.976C19.8923 28.113 19.8988 28.2505 19.8983 28.3881C19.8985 28.5192 19.892 28.6503 19.8788 28.7807C19.8159 29.058 19.7829 29.3412 19.7803 29.6256C19.7785 30.246 19.9131 30.8593 20.1745 31.4222C20.4414 31.9995 20.8304 32.5121 21.3147 32.9246C21.7906 33.3456 22.34 33.6752 22.9356 33.8971C23.5483 34.1266 24.1977 34.2431 24.8521 34.2411H25.3827C26.0371 34.2431 26.6864 34.1266 27.2992 33.8971C27.8951 33.6753 28.445 33.3456 28.9213 32.9246C29.4053 32.5117 29.7942 31.9992 30.0615 31.4222C30.322 30.8591 30.4562 30.2459 30.4545 29.6256C30.4549 29.0078 30.3186 28.3977 30.0554 27.8387ZM29.2498 31.0587C29.0359 31.5227 28.7197 31.9324 28.325 32.2573C27.9319 32.6111 27.4752 32.8875 26.9792 33.0717C26.4669 33.2637 25.9237 33.3605 25.3766 33.3574H24.846C24.3026 33.3588 23.7634 33.262 23.2544 33.0717C22.7543 32.889 22.2938 32.6126 21.8976 32.2573C21.5121 31.9263 21.2007 31.5179 20.9837 31.0587C20.7697 30.6113 20.6591 30.1215 20.66 29.6256C20.658 29.5139 20.6629 29.4023 20.6747 29.2913C20.686 29.179 20.7055 29.0677 20.7331 28.9582V28.9181C20.7493 28.8742 20.756 28.8274 20.7525 28.7807L20.89 28.8403C20.8911 28.8508 20.8899 28.8615 20.8865 28.8715C20.8832 28.8816 20.8777 28.8908 20.8706 28.8986V28.9582L20.8511 28.9971C20.8136 29.2045 20.7941 29.4148 20.7927 29.6256C20.7896 30.1124 20.9004 30.5931 21.1164 31.0295C21.3288 31.4639 21.6263 31.8512 21.9913 32.1685C22.7839 32.8495 23.7957 33.2224 24.8412 33.2188H25.3717C25.9121 33.2228 26.4485 33.1263 26.9536 32.9344C27.4244 32.7565 27.8602 32.4973 28.2411 32.1685C28.606 31.8512 28.9036 31.4639 29.116 31.0295C29.3289 30.5921 29.4396 30.112 29.4396 29.6256C29.4396 29.1391 29.3289 28.659 29.116 28.2216C28.9032 27.7875 28.6058 27.4002 28.2411 27.0826C27.8602 26.7538 27.4244 26.4946 26.9536 26.3168C26.6248 26.1906 26.2814 26.1061 25.9315 26.0651C25.7453 26.0431 25.558 26.0321 25.3705 26.0323H25.2744L24.9872 26.3192L24.9288 26.2609L24.6988 26.0323H24.1524H24.0441C23.7154 26.0239 23.3903 25.9619 23.0816 25.8488C22.7522 25.7265 22.4488 25.5435 22.1872 25.3091C21.9286 25.0947 21.7205 24.8261 21.5777 24.5223C21.4349 24.2185 21.3608 23.887 21.3608 23.5513C21.3608 23.2157 21.4349 22.8842 21.5777 22.5804C21.7205 22.2766 21.9286 22.008 22.1872 21.7936C22.701 21.343 23.3604 21.0926 24.0441 21.0886H24.1524H24.7609L24.655 20.9828L24.9288 20.7093L24.9872 20.651L25.3182 20.9828L25.2111 21.0886H25.4545C25.6174 21.0882 25.7801 21.1 25.9412 21.1238C26.4907 21.1987 27.0062 21.4324 27.4245 21.796C27.7252 22.0627 27.9547 22.3998 28.0926 22.777H27.9356C27.8985 22.6626 27.8525 22.5513 27.7981 22.4439L27.7787 22.4245V22.4038C27.5406 22.0228 27.1998 21.7165 26.7954 21.5201C26.5273 21.3854 26.24 21.2927 25.9436 21.2454C25.7827 21.2192 25.6199 21.2062 25.4569 21.2065H25.1016L24.9945 21.3147L24.8862 21.2065H24.1561H24.0478C23.4227 21.2278 22.8206 21.447 22.3284 21.8325C22.0702 22.0491 21.8594 22.3164 21.709 22.6178C21.5602 22.91 21.4827 23.2332 21.4826 23.5611C21.482 23.8855 21.5596 24.2053 21.709 24.4934C21.8613 24.7908 22.0719 25.0546 22.3284 25.2689C22.8091 25.6771 23.4169 25.9057 24.0478 25.9156H24.7316L24.9324 25.7163L24.9908 25.6579L25.0505 25.7175L25.2476 25.9156H25.3693C25.5567 25.9157 25.744 25.9262 25.9302 25.9472C26.2859 25.9865 26.6356 26.0682 26.9719 26.1903C27.4686 26.3692 27.9257 26.6429 28.3177 26.9963C29.1444 27.7159 29.5573 28.5927 29.5565 29.6268C29.5595 30.1207 29.4548 30.6093 29.2498 31.0587ZM22.9003 22.5169C23.2236 22.2473 23.6292 22.096 24.0502 22.0878H24.1585H24.9336V21.2539L24.8838 21.2041H24.1536H24.0453C23.4203 21.2254 22.8181 21.4446 22.3259 21.8301C22.0678 22.0467 21.857 22.314 21.7065 22.6153C21.5578 22.9076 21.4802 23.2308 21.4802 23.5586C21.4795 23.8831 21.5572 24.2029 21.7065 24.491C21.8588 24.7884 22.0695 25.0521 22.3259 25.2665C22.8067 25.6747 23.4145 25.9033 24.0453 25.9132H24.7292L24.93 25.7138V25.0368H24.1536H24.0453C23.6242 25.0292 23.2184 24.8777 22.8954 24.6077C22.7363 24.4846 22.6074 24.3268 22.5188 24.1464C22.4302 23.9659 22.3841 23.7676 22.3841 23.5665C22.3841 23.3655 22.4302 23.1672 22.5188 22.9867C22.6074 22.8062 22.7363 22.6484 22.8954 22.5254L22.9003 22.5169Z" fill="white"/>
</svg>
