<svg width="50" height="50" viewBox="0 0 50 50" fill="none" xmlns="http://www.w3.org/2000/svg">
<path d="M25 2C12.304 2 2 12.304 2 25C2 37.696 12.304 48 25 48C37.696 48 48 37.696 48 25C48 12.304 37.696 2 25 2ZM33.303 16.582C35.764 16.582 37.742 18.56 37.742 21.021C37.742 23.482 35.764 25.46 33.303 25.46C30.842 25.46 28.864 23.482 28.864 21.021C28.841 18.56 30.842 16.582 33.303 16.582ZM19.503 12.948C22.493 12.948 24.931 15.386 24.931 18.376C24.931 21.366 22.493 23.804 19.503 23.804C16.513 23.804 14.075 21.366 14.075 18.376C14.075 15.363 16.49 12.948 19.503 12.948ZM19.503 33.947V42.572C13.983 40.847 9.613 36.592 7.681 31.164C10.096 28.588 16.122 27.277 19.503 27.277C20.722 27.277 22.263 27.461 23.873 27.783C20.101 29.784 19.503 32.429 19.503 33.947ZM25 43.4C24.379 43.4 23.781 43.377 23.183 43.308V33.947C23.183 30.681 29.945 29.048 33.303 29.048C35.764 29.048 40.019 29.945 42.135 31.693C39.444 38.524 32.797 43.4 25 43.4Z" fill="#667795"/>
</svg>
