<svg width="112" height="99" viewBox="0 0 112 99" fill="none" xmlns="http://www.w3.org/2000/svg">
<path d="M109.96 86.495L62.2785 3.90782C60.8658 1.46082 58.3356 0 55.51 0C52.6844 0 50.1542 1.46082 48.7415 3.90782L1.05968 86.495C-0.353226 88.942 -0.353226 91.8638 1.05968 94.3106C2.47236 96.7576 5.00262 98.2184 7.82821 98.2184H103.192C106.017 98.2184 108.548 96.7576 109.96 94.3106C111.373 91.8638 111.373 88.942 109.96 86.495ZM104.32 91.0542C104.18 91.2975 103.846 91.7056 103.192 91.7056H7.82821C7.1738 91.7056 6.84031 91.2977 6.70023 91.0542C6.55994 90.8111 6.37302 90.3182 6.70023 89.7516L54.3818 7.16426C54.709 6.59767 55.229 6.51288 55.5098 6.51288C55.7908 6.51288 56.3108 6.59745 56.6378 7.16426L104.32 89.7516C104.647 90.3182 104.46 90.8111 104.32 91.0542Z" fill="#EC5656"/>
<path d="M58.7675 29.6146H52.2544V64.3511H58.7675V29.6146Z" fill="#EC5656"/>
<path d="M55.5111 79.5484C57.9092 79.5484 59.8532 77.6044 59.8532 75.2063C59.8532 72.8082 57.9092 70.8641 55.5111 70.8641C53.113 70.8641 51.1689 72.8082 51.1689 75.2063C51.1689 77.6044 53.113 79.5484 55.5111 79.5484Z" fill="#EC5656"/>
</svg>
