<svg width="96" height="83" viewBox="0 0 96 83" fill="none" xmlns="http://www.w3.org/2000/svg">
<path fill-rule="evenodd" clip-rule="evenodd" d="M61.3564 0.126118C60.3176 0.392804 59.888 0.698455 59.8817 1.17516C59.8799 1.30523 60.3688 2.43086 60.9678 3.67655C62.1731 6.18256 62.8905 7.79663 63.9199 10.3187C69.9136 25.0044 73.2203 39.8516 73.8938 55.1032C73.9499 56.3731 74.0089 57.6885 74.0249 58.0261C74.0508 58.5763 74.0859 58.6683 74.3627 58.911C74.8912 59.3744 75.3036 59.4378 76.2574 59.2022C77.1255 58.9876 77.4306 58.8217 77.7617 58.3836C77.9492 58.1355 77.9619 58.0037 77.9374 56.5616C77.911 55.018 77.6017 50.9999 77.2253 47.3104C76.076 36.0459 73.8113 26.3077 69.808 15.4177C67.9537 10.3732 64.3138 1.73778 63.6338 0.769744C63.1127 0.0277939 62.4589 -0.15702 61.3564 0.126118ZM79.6197 4.47411C79.4238 4.85769 79.0043 5.60858 78.6872 6.14263C78.3702 6.67668 78.1109 7.19735 78.1109 7.29972C78.1109 7.60825 78.3689 7.87648 79.2157 8.44853C82.2971 10.5304 85.0434 13.2073 86.9078 15.9468C89.9498 20.4167 91.5247 26.1139 91.3092 31.8691C91.1664 35.6854 90.3852 38.6109 88.478 42.4723C87.7754 43.8948 87.6127 44.3007 87.7026 44.4069C87.7652 44.4809 88.6368 44.9422 89.6396 45.432L91.4629 46.3225L91.722 46.1344C92.0387 45.9047 93.1019 43.8562 93.7854 42.1587C94.75 39.7628 95.4209 37.1961 95.821 34.3705C96.0595 32.6857 96.0597 28.5531 95.8213 26.8663C95.1039 21.7905 93.4186 17.3341 90.7087 13.3475C89.3877 11.4041 88.422 10.2423 86.7859 8.62786C84.4835 6.35592 81.0067 3.77661 80.2466 3.77661C80.0085 3.77661 79.9327 3.86088 79.6197 4.47411ZM57.6715 5.03711C49.3207 13.3134 37.3787 21.5162 25.9341 26.8369C22.7699 28.3079 20.1885 29.3789 16.3154 30.8272C14.9966 31.3204 15.0301 31.2387 15.1708 33.6174C15.4762 38.7829 16.4405 43.1291 18.3102 47.7668C18.9931 49.4609 20.2936 52.1166 20.5953 52.4334C20.8522 52.7031 21.0921 52.7064 22.8774 52.464C24.3144 52.269 26.4504 52.0664 29.2463 51.8599C31.5083 51.6929 41.7829 51.6928 44.0478 51.8597C53.733 52.5738 61.9737 53.9793 69.6069 56.219C70.6889 56.5365 71.6662 56.7832 71.7787 56.7675C72.0669 56.727 72.0932 56.4607 72.0143 54.39C71.3997 38.2661 68.093 23.934 61.6683 9.54904C60.6665 7.30587 58.9959 3.87281 58.9062 3.87281C58.8732 3.87281 58.3176 4.39676 57.6715 5.03711ZM75.8794 11.1605C75.7768 11.3061 75.4254 11.923 75.0983 12.5315C74.7712 13.14 74.3811 13.8572 74.2314 14.1253C74.0802 14.3963 73.986 14.6814 74.0195 14.7671C74.0526 14.852 74.3496 15.1013 74.6794 15.321C76.5093 16.5406 78.0046 18.0588 79.3796 20.0929C81.6998 23.5254 82.816 26.9598 82.816 30.6665C82.816 33.5306 82.1887 36.1197 80.7364 39.2503C80.4119 39.9501 80.1717 40.5874 80.2028 40.6669C80.263 40.8209 83.2383 42.3437 83.7699 42.4925C84.0276 42.5647 84.1265 42.5467 84.3001 42.3963C84.8996 41.8769 86.477 37.8845 86.9198 35.7655C87.4746 33.1107 87.6147 30.0992 87.2918 27.7683C86.6082 22.8347 84.3249 18.1329 80.8555 14.5152C79.5895 13.1949 76.6592 10.8959 76.2426 10.8959C76.1453 10.8959 75.9819 11.015 75.8794 11.1605ZM8.98658 33.171C7.60191 33.5619 6.19037 33.9964 5.84984 34.1367C3.64785 35.0438 2.02037 36.5767 0.954364 38.7479C0.197919 40.2884 0.0553937 40.8922 0.0131457 42.7332C-0.0189079 44.1326 -0.00126369 44.3638 0.167434 44.7536C0.272221 44.9957 0.432587 45.5185 0.523847 45.9154C1.17707 48.7566 1.91421 50.2716 3.3277 51.6788C5.03527 53.3785 7.65415 54.4778 9.99563 54.4778C11.0634 54.4778 11.9783 54.3375 14.3958 53.8027C15.5549 53.5464 16.7077 53.3079 16.9574 53.2726L17.4116 53.2087L16.6485 51.6545C13.995 46.25 12.4809 40.5208 12.1317 34.5629C12.0711 33.5311 12.0058 32.6328 11.9865 32.5666C11.9281 32.3667 11.6066 32.4315 8.98658 33.171ZM33.7064 54.1037C28.2885 54.3652 23.3154 55.3915 22.9853 56.3163C22.8094 56.8088 22.9914 57.0612 24.7729 58.7958C27.6023 61.5507 28.5403 63.1772 29.0521 66.2151C30.2015 73.0384 33.0563 79.125 36.316 81.7026C37.2502 82.4411 38.0509 82.8245 38.9016 82.9406C39.5652 83.0312 39.6125 83.0293 40.9402 82.8567C44.4135 82.4051 46.6788 80.7862 46.8206 78.6537C46.8786 77.7814 46.7818 77.4044 46.0102 75.4991C44.4328 71.6039 43.9137 68.4113 44.3411 65.2339C44.5184 63.9153 44.8098 62.7234 45.4587 60.6629C46.0907 58.6556 46.2603 57.8294 46.2835 56.6437C46.3052 55.5328 46.1775 55.121 45.7424 54.9002C45.1608 54.605 42.3331 54.2595 39.1467 54.0943C37.0775 53.9871 36.0867 53.9888 33.7064 54.1037Z" fill="#F9AE31"/>
</svg>
