<svg width="233" height="88" viewBox="0 0 233 88" fill="none" xmlns="http://www.w3.org/2000/svg">
<g clip-path="url(#clip0_1168_11860)" filter="url(#filter0_d_1168_11860)">
<path d="M180.316 0L0 0L0 25.9234C3.81833 25.9303 7.47828 27.4401 10.1782 30.1221C12.8782 32.8041 14.3981 36.4397 14.4051 40.2326C14.4051 44.0301 12.8882 47.6724 10.1875 50.3601C7.4868 53.0477 3.82288 54.5611 0 54.568L0 79.9226H180.5L180.316 0Z" fill="#72BF65"/>
<path d="M210.466 40.2329C210.466 38.3538 210.839 36.4931 211.563 34.757C212.287 33.0209 213.348 31.4435 214.685 30.1148C217.387 27.4313 221.051 25.9237 224.871 25.9237V0H180V80H224.871V54.4378C221.069 54.4379 217.421 52.9446 214.722 50.2837C212.024 47.6227 210.494 44.0099 210.466 40.2329Z" fill="white"/>
<rect x="38" y="20" width="114" height="40" rx="8" fill="white" fill-opacity="0.2"/>
<path d="M60.0264 46C62.583 46 64.1187 44.7217 64.1187 42.6133C64.1187 41.0195 63.0146 39.8657 61.396 39.6831V39.6167C62.5913 39.4175 63.521 38.2803 63.521 37.0103C63.521 35.2007 62.1265 34.022 60.0098 34.022H55.104V46H60.0264ZM56.9634 35.541H59.5532C60.9062 35.541 61.6699 36.1553 61.6699 37.2676C61.6699 38.4546 60.7817 39.1187 59.1631 39.1187H56.9634V35.541ZM56.9634 44.481V40.5381H59.5449C61.2964 40.5381 62.2178 41.2021 62.2178 42.4971C62.2178 43.792 61.3296 44.481 59.6528 44.481H56.9634ZM73.4879 36.9854H71.6866V42.1816C71.6866 43.6094 70.8649 44.5474 69.5201 44.5474C68.2169 44.5474 67.5612 43.8086 67.5612 42.4224V36.9854H65.7599V42.7627C65.7599 44.8296 66.9552 46.0996 68.9225 46.0996C70.3004 46.0996 71.2135 45.5269 71.7364 44.4561H71.7696V46H73.4879V36.9854ZM76.4905 49.2788C78.3332 49.2788 79.1882 48.5815 79.9602 46.415L83.3386 36.9854H81.446L79.1301 44.3564H79.0886L76.7727 36.9854H74.8386L78.1091 46.0249L77.968 46.4897C77.6609 47.4443 77.1877 47.8096 76.3328 47.8096C76.175 47.8096 75.8928 47.8013 75.76 47.7681V49.229C75.9011 49.2539 76.3411 49.2788 76.4905 49.2788ZM93.9424 46V35.624H97.6694V34.022H88.3476V35.624H92.083V46H93.9424ZM99.1114 46H100.913V36.9854H99.1114V46ZM100.016 35.6987C100.597 35.6987 101.07 35.2339 101.07 34.6611C101.07 34.0718 100.597 33.6235 100.016 33.6235C99.4352 33.6235 98.962 34.0718 98.962 34.6611C98.962 35.2339 99.4352 35.6987 100.016 35.6987ZM110.788 40.0649C110.631 38.3301 109.203 36.8691 106.904 36.8691C104.355 36.8691 102.678 38.687 102.678 41.4927C102.678 44.3481 104.363 46.1079 106.92 46.1079C109.087 46.1079 110.597 44.8545 110.805 42.9702H109.087C108.871 44.0244 108.099 44.5972 106.928 44.5972C105.484 44.5972 104.505 43.4351 104.505 41.4927C104.505 39.6001 105.467 38.3882 106.92 38.3882C108.157 38.3882 108.904 39.1104 109.07 40.0649H110.788ZM114.272 40.8784H114.264V33.4824H112.463V46H114.264V42.7295L115.044 41.9658L118.157 46H120.232L116.331 40.8701L120.099 36.9854H117.983L114.272 40.8784ZM124.795 38.3384C126.107 38.3384 126.995 39.2681 127.037 40.6709H122.463C122.562 39.2847 123.5 38.3384 124.795 38.3384ZM127.028 43.3604C126.779 44.1489 125.957 44.647 124.912 44.647C123.434 44.647 122.455 43.6177 122.455 42.0571V41.9492H128.838V41.3184C128.838 38.5874 127.277 36.8691 124.804 36.8691C122.28 36.8691 120.637 38.7036 120.637 41.5259C120.637 44.3481 122.264 46.1079 124.878 46.1079C126.904 46.1079 128.489 44.979 128.747 43.3604H127.028ZM131.085 34.96V36.9854H129.84V38.4048H131.085V43.626C131.085 45.3691 131.782 46.0581 133.584 46.0581C133.974 46.0581 134.397 46.0166 134.596 45.9668V44.5474C134.48 44.564 134.173 44.5889 133.982 44.5889C133.227 44.5889 132.878 44.2236 132.878 43.4434V38.4048H134.605V36.9854H132.878V34.96H131.085Z" fill="white"/>
</g>
<defs>
<filter id="filter0_d_1168_11860" x="0" y="0" width="232.871" height="88" filterUnits="userSpaceOnUse" color-interpolation-filters="sRGB">
<feFlood flood-opacity="0" result="BackgroundImageFix"/>
<feColorMatrix in="SourceAlpha" type="matrix" values="0 0 0 0 0 0 0 0 0 0 0 0 0 0 0 0 0 0 127 0" result="hardAlpha"/>
<feOffset dx="4" dy="4"/>
<feGaussianBlur stdDeviation="2"/>
<feComposite in2="hardAlpha" operator="out"/>
<feColorMatrix type="matrix" values="0 0 0 0 0 0 0 0 0 0 0 0 0 0 0 0 0 0 0.6 0"/>
<feBlend mode="normal" in2="BackgroundImageFix" result="effect1_dropShadow_1168_11860"/>
<feBlend mode="normal" in="SourceGraphic" in2="effect1_dropShadow_1168_11860" result="shape"/>
</filter>
<clipPath id="clip0_1168_11860">
<rect width="224.871" height="80" fill="white"/>
</clipPath>
</defs>
</svg>
