<svg width="209" height="60" viewBox="0 0 209 60" fill="none" xmlns="http://www.w3.org/2000/svg">
<path d="M176.529 0L0 0L0 19.4425C2.81989 19.4477 5.52282 20.5801 7.51679 22.5916C9.51077 24.6031 10.6332 27.3298 10.6384 30.1745C10.6384 33.0226 9.51817 35.7543 7.52364 37.77C5.52912 39.7858 2.82325 40.9208 0 40.926L0 59.9419H176.665L176.529 0Z" fill="#72BF65"/>
<path d="M198.362 30.1747C198.362 28.7654 198.637 27.3698 199.171 26.0678C199.706 24.7657 200.49 23.5826 201.477 22.5861C203.473 20.5734 206.178 19.4428 209 19.4428V0H175.862V60H209V40.8283C206.192 40.8284 203.498 39.7085 201.505 37.7128C199.512 35.717 198.382 33.0074 198.362 30.1747Z" fill="white"/>
<rect x="40" y="12" width="102" height="37" rx="8" fill="white" fill-opacity="0.2"/>
<path d="M61.25 35C63.3555 35 64.6611 33.9131 64.6611 32.1768C64.6611 30.8711 63.6768 29.8936 62.3369 29.791V29.7363C63.3828 29.5791 64.1895 28.6768 64.1895 27.5967C64.1895 26.0859 63.0273 25.1357 61.1748 25.1357H56.8203V35H61.25ZM58.8848 26.6738H60.6416C61.6055 26.6738 62.1592 27.125 62.1592 27.918C62.1592 28.752 61.5303 29.2373 60.4297 29.2373H58.8848V26.6738ZM58.8848 33.4619V30.5977H60.6758C61.8926 30.5977 62.5557 31.0898 62.5557 32.0127C62.5557 32.9561 61.9131 33.4619 60.7236 33.4619H58.8848ZM72.8077 27.4736H70.8116V31.7598C70.8116 32.7783 70.2305 33.4482 69.3008 33.4482C68.378 33.4482 67.8721 32.9014 67.8721 31.8828V27.4736H65.876V32.2998C65.876 34.0498 66.9493 35.1094 68.5762 35.1094C69.7178 35.1094 70.4561 34.583 70.8389 33.6396H70.8799V35H72.8077V27.4736ZM75.335 37.748C77.2149 37.748 78.1378 37.0713 78.7804 35.1504L81.3848 27.4736H79.2794L77.6456 33.3799H77.6046L75.9776 27.4736H73.7901L76.4288 35.0479L76.3604 35.335C76.2032 35.9365 75.7725 36.1963 75.0274 36.1963C74.9454 36.1963 74.6446 36.1895 74.5763 36.1758V37.7207C74.6514 37.7344 75.2598 37.748 75.335 37.748ZM90.172 35V26.8379H93.0636V25.1357H85.2228V26.8379H88.1076V35H90.172ZM94.1965 35H96.1926V27.4736H94.1965V35ZM95.1945 26.6533C95.7893 26.6533 96.2746 26.2021 96.2746 25.6074C96.2746 25.0127 95.7893 24.5684 95.1945 24.5684C94.6066 24.5684 94.1213 25.0127 94.1213 25.6074C94.1213 26.2021 94.6066 26.6533 95.1945 26.6533ZM104.592 30.249C104.496 28.5742 103.204 27.3438 101.181 27.3438C98.9455 27.3438 97.51 28.8477 97.51 31.2334C97.51 33.6533 98.9455 35.1299 101.195 35.1299C103.17 35.1299 104.483 34.0156 104.599 32.2656H102.739C102.61 33.0928 102.056 33.5508 101.215 33.5508C100.183 33.5508 99.5334 32.7031 99.5334 31.2334C99.5334 29.791 100.183 28.916 101.208 28.916C102.076 28.916 102.623 29.4697 102.733 30.249H104.592ZM107.885 30.5156H107.858V24.6641H105.862V35H107.858V32.4912L108.398 31.9102L110.599 35H112.896L109.861 30.707L112.759 27.4736H110.49L107.885 30.5156ZM116.729 28.834C117.652 28.834 118.294 29.4766 118.328 30.4609H115.081C115.15 29.4971 115.82 28.834 116.729 28.834ZM118.356 32.7031C118.164 33.2842 117.57 33.6396 116.818 33.6396C115.765 33.6396 115.061 32.9082 115.061 31.8213V31.6982H120.256V31.083C120.256 28.793 118.875 27.3438 116.708 27.3438C114.5 27.3438 113.092 28.875 113.092 31.2676C113.092 33.6602 114.493 35.1299 116.784 35.1299C118.616 35.1299 119.976 34.1592 120.195 32.7031H118.356ZM122.073 25.7988V27.4736H121.054V28.9844H122.073V32.9697C122.073 34.4395 122.756 35.0273 124.499 35.0273C124.903 35.0273 125.258 34.9863 125.463 34.9453V33.4688C125.34 33.4893 125.142 33.5029 124.964 33.5029C124.356 33.5029 124.069 33.2227 124.069 32.6416V28.9844H125.463V27.4736H124.069V25.7988H122.073Z" fill="white"/>
</svg>
