<svg width="23" height="24" viewBox="0 0 23 24" fill="none" xmlns="http://www.w3.org/2000/svg">
<path d="M21.9063 10.8666L18.9051 9.12509C21.7968 6.66063 18.8942 2.06031 15.422 3.62661L14.4691 4.03188L14.3486 2.98038C14.2391 1.79744 13.6257 0.954045 12.8152 0.461154C11.0189 -0.582681 8.28058 0.132559 7.84245 2.73941L4.83034 1.00881C3.77883 0.395435 2.44255 0.756889 1.84013 1.80839L0.744814 3.70328C0.438126 4.22904 0.624329 4.89718 1.15008 5.20387L9.68258 10.1328L11.3256 7.28496L13.2204 8.38028L11.5775 11.2281L20.11 16.157C20.6357 16.4308 21.3148 16.2775 21.6106 15.7517L22.7059 13.8568C23.3083 12.8053 22.9578 11.4691 21.9063 10.8666ZM11.3584 4.38238C10.4055 4.65621 9.63877 3.63757 10.1207 2.79417C10.4055 2.26842 11.0955 2.09317 11.6213 2.38891C12.4647 2.8818 12.3004 4.15236 11.3584 4.38238ZM17.0431 7.66832C16.1011 7.94215 15.3344 6.92351 15.8163 6.08012C16.1121 5.55437 16.7912 5.37912 17.306 5.67485C18.1494 6.16774 17.9851 7.43831 17.0431 7.66832ZM20.6686 17.3947C21.1177 17.3947 21.5448 17.2414 21.9063 16.9785V20.8121C21.9063 22.0279 20.9315 23.0027 19.7157 23.0027H2.19063C1.60964 23.0027 1.05244 22.7719 0.64162 22.3611C0.230798 21.9503 0 21.3931 0 20.8121V10.9543H8.92681L9.85783 11.5019V20.8121H12.0485V12.7615L19.5733 17.099C19.9019 17.2961 20.2633 17.3947 20.6686 17.3947Z" fill="#72BF65"/>
</svg>
