<svg width="72" height="70" viewBox="0 0 72 70" fill="none" xmlns="http://www.w3.org/2000/svg">
<path d="M9.18962 58.4741V59.3158H8.90559C8.87765 59.3176 8.85003 59.3091 8.82801 59.2918C8.80599 59.2746 8.79114 59.2498 8.7863 59.2223C8.7863 59.1925 8.7721 59.1288 8.76216 59.0211H8.03932V61.5462C8.09897 61.5561 8.14867 61.566 8.18133 61.5703C8.21399 61.5745 8.24098 61.5859 8.25518 61.5859C8.26511 61.5852 8.27507 61.5852 8.285 61.5859C8.3222 61.5895 8.35648 61.6075 8.38041 61.6362C8.40433 61.6648 8.41598 61.7017 8.41281 61.7389V62.0223H7.00263V61.7389C6.9994 61.7024 7.01047 61.6661 7.0335 61.6375C7.05654 61.609 7.08976 61.5905 7.12618 61.5859C7.13612 61.5852 7.14608 61.5852 7.15601 61.5859C7.17163 61.5859 7.19577 61.5759 7.22985 61.5703C7.26394 61.5646 7.31364 61.5561 7.37186 61.5462V59.0154H6.64761C6.63766 59.1245 6.62772 59.1925 6.62346 59.2223C6.61992 59.2493 6.60622 59.274 6.58513 59.2914C6.56404 59.3088 6.53714 59.3175 6.50985 59.3158H6.22583V58.4741H9.18962Z" fill="#001C4E"/>
<path d="M15.2932 60.981C15.2108 61.1949 15.0867 61.3904 14.9283 61.5563C14.7677 61.7212 14.5742 61.8506 14.3602 61.936C14.1264 62.0298 13.8766 62.0779 13.6246 62.0777C13.3712 62.078 13.12 62.0299 12.8847 61.936C12.6708 61.8506 12.4772 61.7212 12.3167 61.5563C12.1569 61.3906 12.0314 61.1951 11.9474 60.981C11.8581 60.7482 11.8142 60.5005 11.8182 60.2512C11.814 60.0042 11.8579 59.7588 11.9474 59.5285C12.031 59.3138 12.1565 59.1178 12.3167 58.9518C12.4769 58.7869 12.6706 58.6579 12.8847 58.5735C13.1199 58.4791 13.3711 58.431 13.6246 58.4318C13.8769 58.4287 14.1272 58.477 14.3602 58.5735C14.5732 58.66 14.7664 58.7887 14.9283 58.9518C15.0871 59.118 15.2111 59.314 15.2932 59.5285C15.3841 59.7585 15.4295 60.004 15.4267 60.2512C15.4293 60.5007 15.384 60.7484 15.2932 60.981ZM14.667 59.7297C14.6227 59.5839 14.5471 59.4495 14.4454 59.3358C14.3455 59.2293 14.224 59.1452 14.089 59.0893C13.9401 59.0297 13.7806 59.0013 13.6203 59.0057C13.4587 59.0014 13.2978 59.0299 13.1474 59.0893C13.0124 59.1465 12.8913 59.232 12.7924 59.3401C12.69 59.4541 12.6126 59.5883 12.5652 59.734C12.5095 59.9021 12.4826 60.0784 12.4857 60.2555C12.4826 60.4344 12.5095 60.6125 12.5652 60.7826C12.6122 60.9284 12.6897 61.0627 12.7924 61.1765C12.891 61.285 13.0121 61.3706 13.1474 61.4273C13.2978 61.4867 13.4587 61.5151 13.6203 61.5109C13.7806 61.5153 13.9401 61.4869 14.089 61.4273C14.2247 61.3706 14.3463 61.285 14.4454 61.1765C14.5474 61.063 14.623 60.9285 14.667 60.7826C14.7201 60.6119 14.7464 60.4341 14.7451 60.2555C14.7468 60.0772 14.7204 59.8998 14.667 59.7297Z" fill="#001C4E"/>
<path d="M21.7037 61.7429V62.0263H20.3219V61.7429C20.3187 61.7064 20.3298 61.6701 20.3528 61.6415C20.3758 61.613 20.409 61.5945 20.4455 61.5899C20.4587 61.5913 20.472 61.5913 20.4852 61.5899L20.5548 61.5743L19.7993 60.5909C19.7694 60.5523 19.7303 60.5216 19.6857 60.5016C19.6313 60.4791 19.5727 60.469 19.5139 60.4719H19.3009V61.5502L19.4429 61.5743C19.4784 61.5743 19.5025 61.5899 19.5167 61.5899C19.5266 61.589 19.5366 61.589 19.5465 61.5899C19.583 61.5945 19.6162 61.613 19.6392 61.6415C19.6623 61.6701 19.6733 61.7064 19.6701 61.7429V62.0263H18.2585V61.7429C18.2553 61.7064 18.2663 61.6701 18.2894 61.6415C18.3124 61.613 18.3456 61.5945 18.382 61.5899C18.3919 61.5914 18.402 61.5914 18.4119 61.5899C18.436 61.5828 18.4607 61.5775 18.4857 61.5743C18.5212 61.5743 18.5752 61.5601 18.6277 61.5502V58.9613C18.5681 58.9514 18.5141 58.9372 18.4857 58.9316C18.4573 58.9259 18.4275 58.9216 18.4119 58.9216C18.4019 58.9223 18.392 58.9223 18.382 58.9216C18.3448 58.917 18.3109 58.8979 18.2877 58.8684C18.2646 58.839 18.2541 58.8015 18.2585 58.7644V58.481H19.6701V58.7644C19.6745 58.8015 19.664 58.839 19.6408 58.8684C19.6177 58.8979 19.5838 58.917 19.5465 58.9216C19.5366 58.9225 19.5266 58.9225 19.5167 58.9216C19.4924 58.9271 19.4677 58.9305 19.4429 58.9316C19.4088 58.9316 19.3548 58.9514 19.3009 58.9613V59.966H19.4556C19.5081 59.9693 19.5605 59.9606 19.609 59.9405C19.6517 59.9225 19.6889 59.8937 19.717 59.8569L20.4526 58.9273C20.4426 58.9273 20.4327 58.9273 20.4185 58.9273C20.4086 58.9282 20.3986 58.9282 20.3887 58.9273C20.3522 58.9227 20.319 58.9042 20.296 58.8756C20.2729 58.8471 20.2619 58.8108 20.2651 58.7743V58.4909H21.5858V58.7743C21.5891 58.8108 21.578 58.8471 21.555 58.8756C21.5319 58.9042 21.4987 58.9227 21.4623 58.9273C21.4523 58.9273 21.4438 58.9273 21.4239 58.9273C21.404 58.9273 21.3742 58.9372 21.3345 58.9429C21.2947 58.9486 21.2464 58.9571 21.1925 58.967L20.3887 59.9589C20.3543 59.9987 20.3178 60.0365 20.2793 60.0723C20.2448 60.1028 20.2067 60.129 20.1657 60.1502C20.2169 60.1709 20.2648 60.1991 20.3077 60.2338C20.3569 60.2751 20.4004 60.3227 20.437 60.3755L21.3146 61.5516C21.3742 61.5615 21.4182 61.5714 21.4566 61.5757C21.4949 61.5799 21.5262 61.5913 21.5461 61.5913C21.5659 61.5913 21.5745 61.5913 21.5844 61.5913C21.6198 61.5969 21.6517 61.6156 21.6739 61.6437C21.696 61.6719 21.7066 61.7073 21.7037 61.7429Z" fill="#001C4E"/>
<path d="M27.1867 58.4741V59.4093H26.9027C26.8754 59.411 26.8485 59.4023 26.8274 59.3849C26.8063 59.3676 26.7926 59.3429 26.7891 59.3158C26.7891 59.2761 26.7706 59.1741 26.755 59.0012H25.6061V59.9861H26.8146V60.4976H25.6061V61.498H26.755C26.7706 61.3251 26.7848 61.2217 26.7891 61.182C26.7929 61.1551 26.8067 61.1306 26.8277 61.1133C26.8488 61.096 26.8755 61.0872 26.9027 61.0885H27.1867V62.0294H24.568V61.746C24.5648 61.7097 24.5756 61.6736 24.5984 61.6451C24.6211 61.6166 24.654 61.5979 24.6901 61.5929C24.7001 61.5923 24.71 61.5923 24.72 61.5929C24.7356 61.5929 24.7597 61.583 24.7938 61.5774C24.8279 61.5717 24.8833 61.5632 24.9358 61.5533V58.9616C24.8762 58.9517 24.8222 58.9417 24.7938 58.9375C24.7654 58.9332 24.7356 58.9219 24.72 58.9219C24.71 58.9225 24.7001 58.9225 24.6901 58.9219C24.654 58.9169 24.6211 58.8983 24.5984 58.8698C24.5756 58.8413 24.5648 58.8051 24.568 58.7689V58.4855H27.1924L27.1867 58.4741Z" fill="#001C4E"/>
<path d="M33.8144 58.4741V58.7575C33.8177 58.794 33.8066 58.8303 33.7836 58.8589C33.7605 58.8874 33.7273 58.9059 33.6909 58.9106C33.681 58.9112 33.671 58.9112 33.6611 58.9106C33.6455 58.9106 33.6213 58.9205 33.5872 58.9261C33.5531 58.9318 33.5034 58.9403 33.4452 58.9502V62.0223H33.1001C33.0563 62.0231 33.0128 62.0149 32.9723 61.9982C32.931 61.9773 32.8954 61.9467 32.8686 61.9089L31.0012 59.5525C31.0072 59.6033 31.0105 59.6543 31.0111 59.7055C31.0111 59.7537 31.0111 59.8033 31.0111 59.8472V61.5476L31.3307 61.5915C31.3671 61.5961 31.4003 61.6147 31.4233 61.6432C31.4464 61.6717 31.4574 61.7081 31.4542 61.7446V62.028H30.054V61.7446C30.0507 61.7083 30.0616 61.6721 30.0843 61.6436C30.1071 61.6151 30.1399 61.5965 30.1761 61.5915C30.186 61.5931 30.196 61.5931 30.2059 61.5915C30.2301 61.5844 30.2548 61.5792 30.2798 61.5759C30.3153 61.5759 30.3692 61.5618 30.4289 61.5518V58.9616C30.3692 58.9517 30.3153 58.9417 30.2798 58.9375C30.2443 58.9332 30.2215 58.9219 30.2059 58.9219C30.196 58.9225 30.186 58.9225 30.1761 58.9219C30.1399 58.9169 30.1071 58.8983 30.0843 58.8698C30.0616 58.8413 30.0507 58.8051 30.054 58.7689V58.4855H30.774C30.8038 58.4855 30.8279 58.4855 30.8478 58.4855C30.8668 58.4847 30.8856 58.4896 30.9018 58.4996C30.919 58.5051 30.9343 58.5154 30.9458 58.5294C30.9639 58.5479 30.9805 58.5678 30.9955 58.5889L32.8701 60.9666C32.8701 60.9071 32.8615 60.8533 32.8559 60.7994C32.8502 60.7456 32.8559 60.6903 32.8559 60.6407V58.9616L32.5349 58.9176C32.4985 58.913 32.4653 58.8945 32.4422 58.866C32.4192 58.8374 32.4081 58.8011 32.4114 58.7646V58.4812H33.813L33.8144 58.4741Z" fill="#001C4E"/>
<path d="M38.9765 60.9214C38.9767 61.0746 38.9483 61.2264 38.8927 61.3692C38.8407 61.5091 38.7577 61.6355 38.6499 61.739C38.539 61.8473 38.4064 61.9308 38.2608 61.9842C38.0932 62.0463 37.9155 62.0766 37.7368 62.0734H37.6629C37.3146 62.0669 36.9698 62.0037 36.6418 61.8864V60.971H36.9259C36.9525 60.9682 36.9792 60.9757 37.0004 60.9921C37.0216 61.0085 37.0356 61.0324 37.0395 61.0589C37.0494 61.1028 37.0636 61.2417 37.0835 61.4684C37.3049 61.5198 37.5323 61.5412 37.7595 61.5321C37.9174 61.5414 38.0735 61.4942 38.1997 61.3989C38.2522 61.3504 38.2931 61.2906 38.3194 61.2242C38.3457 61.1577 38.3567 61.0862 38.3517 61.0149C38.3548 60.9326 38.3308 60.8515 38.2835 60.784C38.2322 60.7235 38.1682 60.6751 38.096 60.6423C38.0118 60.601 37.9244 60.5664 37.8347 60.5388C37.7353 60.5105 37.6317 60.485 37.5337 60.451C37.4311 60.4172 37.3306 60.3774 37.2326 60.3319C37.1342 60.2867 37.0439 60.2254 36.9656 60.1506C36.8843 60.0735 36.8217 59.979 36.7824 59.8742C36.7317 59.7442 36.7066 59.6057 36.7086 59.4661C36.7097 59.3336 36.7374 59.2026 36.7901 59.0809C36.8428 58.9592 36.9194 58.8493 37.0153 58.7576C37.1219 58.6602 37.2457 58.5834 37.3803 58.5309C37.539 58.4687 37.7083 58.4384 37.8788 58.4416C38.229 58.4427 38.5758 58.5115 38.8998 58.6443V59.554H38.6158C38.5885 59.5557 38.5616 59.5469 38.5405 59.5296C38.5194 59.5122 38.5057 59.4875 38.5022 59.4605C38.4923 59.4165 38.4781 59.2833 38.4582 59.0623C38.2722 58.9999 38.0761 58.9729 37.8802 58.9829C37.8001 58.9815 37.7202 58.9915 37.643 59.0127C37.5808 59.0337 37.5226 59.0654 37.4712 59.1062C37.426 59.146 37.3888 59.1941 37.3618 59.2479C37.3379 59.3058 37.3263 59.3681 37.3278 59.4307C37.3275 59.5061 37.3536 59.5793 37.4016 59.6376C37.4518 59.6974 37.5142 59.7458 37.5848 59.7793C37.67 59.8233 37.7588 59.8599 37.8504 59.8884C37.9498 59.9182 38.0478 59.9522 38.1514 59.9862C38.2551 60.0202 38.3545 60.0655 38.4525 60.1095C38.5508 60.1532 38.641 60.2131 38.7195 60.2866C38.8 60.359 38.864 60.448 38.9069 60.5473C38.9571 60.6655 38.9808 60.7931 38.9765 60.9214Z" fill="#001C4E"/>
<path d="M44.755 58.4741V59.3158H44.471C44.443 59.3176 44.4154 59.3091 44.3934 59.2918C44.3714 59.2746 44.3565 59.2498 44.3517 59.2223C44.3517 59.1925 44.3375 59.1288 44.3275 59.0211H43.6019V61.5462C43.6615 61.5561 43.7112 61.566 43.7439 61.5703C43.7765 61.5745 43.8035 61.5859 43.8177 61.5859C43.8276 61.5852 43.8376 61.5852 43.8475 61.5859C43.8847 61.5895 43.919 61.6075 43.9429 61.6362C43.9669 61.6648 43.9785 61.7017 43.9754 61.7389V62.0223H42.5638V61.7389C42.5605 61.7024 42.5716 61.6661 42.5946 61.6375C42.6177 61.609 42.6509 61.5905 42.6873 61.5859C42.6972 61.5852 42.7072 61.5852 42.7171 61.5859C42.7327 61.5859 42.7569 61.5759 42.791 61.5703C42.8251 61.5646 42.8748 61.5561 42.933 61.5462V59.0154H42.2073C42.1974 59.1245 42.1874 59.1925 42.1832 59.2223C42.1796 59.2493 42.1659 59.274 42.1448 59.2914C42.1237 59.3088 42.0968 59.3175 42.0695 59.3158H41.7855V58.4741H44.7507H44.755Z" fill="#001C4E"/>
<path d="M51.0462 61.7814V62.0322H49.8462V61.7814C49.8478 61.7525 49.8581 61.7249 49.8759 61.7021C49.8937 61.6793 49.918 61.6625 49.9456 61.6538C49.9555 61.6538 49.9896 61.6383 50.0436 61.6142L50.0237 61.5603L49.8462 61.0729H48.4261L48.2429 61.5802L48.2287 61.6099C48.2826 61.634 48.3167 61.6439 48.3267 61.6496C48.3543 61.6582 48.3786 61.675 48.3964 61.6978C48.4141 61.7206 48.4245 61.7483 48.4261 61.7771V62.0279H47.2218V61.7814C47.2233 61.7527 47.2334 61.7252 47.2509 61.7024C47.2684 61.6796 47.2924 61.6627 47.3198 61.6538L47.5925 61.5405L48.7953 58.4727H49.477L50.6855 61.5405L50.9567 61.6538C50.9835 61.6625 51.0068 61.6796 51.0229 61.7026C51.0391 61.7256 51.0472 61.7533 51.0462 61.7814ZM48.5936 60.6095H49.6744L49.2654 59.5014C49.2455 59.4476 49.2256 59.388 49.2015 59.32C49.1773 59.252 49.156 59.167 49.1319 59.0834C49.1077 59.167 49.0822 59.2463 49.0623 59.32C49.0433 59.386 49.0206 59.4508 48.9941 59.5142L48.5936 60.6095Z" fill="#001C4E"/>
<path d="M57.6568 58.4741V58.7575C57.66 58.794 57.6489 58.8303 57.6259 58.8589C57.6029 58.8874 57.5696 58.9059 57.5332 58.9106C57.5233 58.9112 57.5133 58.9112 57.5034 58.9106C57.4878 58.9106 57.4636 58.9205 57.4296 58.9261C57.3955 58.9318 57.3458 58.9403 57.2875 58.9502V62.0223H56.9467C56.9025 62.0229 56.8585 62.0147 56.8175 61.9982C56.7766 61.9767 56.7411 61.9462 56.7138 61.9089L54.8492 59.5411C54.8552 59.5919 54.8585 59.643 54.8591 59.6942C54.8591 59.7423 54.8591 59.7919 54.8591 59.8359V61.5363L55.1787 61.5802C55.2151 61.5848 55.2483 61.6033 55.2714 61.6319C55.2944 61.6604 55.3055 61.6967 55.3022 61.7332V62.0166H53.902V61.7332C53.8987 61.6969 53.9096 61.6608 53.9323 61.6323C53.9551 61.6038 53.988 61.5851 54.0241 61.5802C54.034 61.5817 54.0441 61.5817 54.0539 61.5802C54.0781 61.5731 54.1028 61.5679 54.1278 61.5646C54.1633 61.5646 54.2173 61.5504 54.2769 61.5405V58.9616C54.2173 58.9517 54.1633 58.9417 54.1278 58.9375C54.0923 58.9332 54.0696 58.9219 54.0539 58.9219C54.044 58.9225 54.0341 58.9225 54.0241 58.9219C53.988 58.9169 53.9551 58.8983 53.9323 58.8698C53.9096 58.8413 53.8987 58.8051 53.902 58.7689V58.4855H54.622C54.6518 58.4855 54.676 58.4855 54.6958 58.4855C54.7148 58.4847 54.7336 58.4896 54.7498 58.4996C54.767 58.5051 54.7823 58.5154 54.7938 58.5294C54.8119 58.5479 54.8285 58.5678 54.8435 58.5889L56.7181 60.9666C56.7181 60.9071 56.7081 60.8533 56.7039 60.7994C56.6996 60.7456 56.7039 60.6903 56.7039 60.6407V58.9616L56.3829 58.9176C56.3465 58.913 56.3133 58.8945 56.2903 58.866C56.2672 58.8374 56.2562 58.8011 56.2594 58.7646V58.4812H57.6568V58.4741Z" fill="#001C4E"/>
<path d="M63.9849 60.2511C63.9878 60.4973 63.943 60.7418 63.8528 60.971C63.7698 61.1821 63.6458 61.3747 63.4878 61.5378C63.3251 61.6962 63.1319 61.8201 62.9198 61.9019C62.6855 61.9934 62.4357 62.0387 62.1842 62.0351H60.4971V61.7517C60.4938 61.7152 60.5049 61.6789 60.5279 61.6504C60.551 61.6218 60.5842 61.6033 60.6206 61.5987C60.6305 61.5979 60.6405 61.5979 60.6504 61.5987C60.6646 61.5987 60.6902 61.5888 60.7243 61.5831L60.8663 61.559V58.9617L60.7243 58.9376C60.6902 58.9376 60.6646 58.922 60.6504 58.922C60.6405 58.9228 60.6305 58.9228 60.6206 58.922C60.5842 58.9174 60.551 58.8988 60.5279 58.8703C60.5049 58.8418 60.4938 58.8054 60.4971 58.7689V58.4855H62.1799C62.4314 58.482 62.6813 58.5273 62.9155 58.6187C63.129 58.6971 63.3231 58.8203 63.4848 58.9799C63.6465 59.1395 63.772 59.3319 63.8528 59.544C63.9415 59.7692 63.9863 60.0092 63.9849 60.2511ZM63.3046 60.2511C63.3084 60.074 63.2815 59.8976 63.2251 59.7297C63.1787 59.5848 63.1034 59.4508 63.0036 59.3357C62.9044 59.229 62.7833 59.1449 62.6485 59.0892C62.4998 59.029 62.3404 58.9992 62.1799 59.0013H61.538V61.5066H62.1799C62.3404 61.5088 62.4998 61.4789 62.6485 61.4187C62.7833 61.363 62.9044 61.2789 63.0036 61.1722C63.1045 61.058 63.18 60.9237 63.2251 60.7783C63.2815 60.6083 63.3084 60.4301 63.3046 60.2511Z" fill="#001C4E"/>
<path d="M55.4883 34.3339V13.9531L55.1801 13.9035C48.4715 12.8124 40.2007 9.98833 36.8478 6.13692L36.5993 5.85352L36.3153 6.10999C32.8857 9.28692 25.5792 12.0231 17.7032 13.0802L17.3865 13.1227V34.3055C17.3865 34.4203 16.6168 45.7705 25.8263 49.3116C35.2899 53.9027 36.071 54.2853 36.071 54.2867L36.2414 54.3689L36.409 54.2796C36.4402 54.2626 37.2923 53.8092 46.7418 49.3201C55.974 45.7691 55.494 34.4331 55.4883 34.3339ZM46.4535 48.6527C38.7849 52.2901 36.7541 53.2877 36.2286 53.5499C35.7117 53.2976 33.6795 52.31 26.1217 48.6414C17.3979 45.2859 18.1136 34.4713 18.1221 34.3296V13.759C25.8163 12.6806 32.9553 10.0167 36.5411 6.8936C40.3172 10.9278 48.8961 13.5294 54.7527 14.5723V34.3523C54.7555 34.4614 55.2114 45.2845 46.4535 48.6527Z" fill="#5EA84E"/>
<path d="M54.0227 34.0817V15.5529C46.6963 14.4533 39.546 11.5031 36.5169 8.02295C33.066 11.2211 26.275 13.375 18.95 14.2819L18.8577 34.0817C18.8577 34.0817 18.4388 44.3762 26.8302 47.6041C35.5782 51.8551 36.1036 52.198 36.1036 52.198C36.1036 52.198 36.9557 51.8565 45.9252 47.6041C54.3166 44.3762 54.0227 34.0817 54.0227 34.0817ZM36.5779 45.0507C33.6164 45.051 30.7212 44.1749 28.2586 42.5334C25.796 40.8918 23.8766 38.5585 22.743 35.8284C21.6095 33.0983 21.3127 30.0942 21.8903 27.1958C22.4679 24.2975 23.8939 21.6351 25.988 19.5455C28.0821 17.4558 30.7501 16.0327 33.6548 15.4561C36.5594 14.8795 39.5702 15.1753 42.3064 16.3061C45.0426 17.4369 47.3812 19.3519 49.0266 21.8089C50.672 24.266 51.5503 27.1547 51.5503 30.1098C51.5503 34.0721 49.9729 37.8722 47.1651 40.6741C44.3572 43.476 40.549 45.0503 36.5779 45.0507Z" fill="#72BF65"/>
<path d="M36.4403 16.6597C33.7738 16.6594 31.1672 17.4481 28.95 18.9261C26.7328 20.4041 25.0046 22.5049 23.9841 24.9629C22.9636 27.4209 22.6965 30.1257 23.2166 32.7352C23.7367 35.3447 25.0207 37.7417 26.9062 39.623C28.7917 41.5043 31.1939 42.7855 33.8091 43.3045C36.4244 43.8235 39.1351 43.557 41.5985 42.5387C44.0619 41.5204 46.1674 39.796 47.6486 37.5837C49.1298 35.3714 49.9203 32.7705 49.92 30.1099C49.917 26.5436 48.4959 23.1242 45.9686 20.6025C43.4413 18.0807 40.0144 16.6627 36.4403 16.6597ZM36.4403 42.8303C33.9189 42.8303 31.4541 42.0843 29.3576 40.6865C27.2612 39.2888 25.6272 37.3021 24.6623 34.9778C23.6974 32.6534 23.4449 30.0958 23.9368 27.6282C24.4287 25.1607 25.6429 22.8941 27.4258 21.1152C29.2087 19.3362 31.4802 18.1247 33.9532 17.6338C36.4261 17.143 38.9894 17.3949 41.3189 18.3577C43.6483 19.3205 45.6394 20.9509 47.0402 23.0428C48.441 25.1346 49.1887 27.594 49.1887 30.1099C49.1849 33.4824 47.8406 36.7157 45.4506 39.1004C43.0606 41.4852 39.8202 42.8266 36.4403 42.8303Z" fill="#5EA84E"/>
<path d="M35.4504 26.7418H35.324V30.1695H35.4504H36.355V26.7418H35.4504ZM35.4504 26.7418H35.324V30.1695H35.4504H36.355V26.7418H35.4504ZM30.0241 20.3809V23.6782C30.2677 23.254 30.6542 22.9297 31.1148 22.7628C31.4262 22.6435 31.7568 22.5815 32.0904 22.58H35.324V34.6657C35.3206 35.0044 35.2587 35.3399 35.1408 35.6576C35.0495 35.8875 34.9256 36.1032 34.773 36.2981C34.6114 36.4748 34.4265 36.6288 34.2234 36.7558H38.6258C38.4222 36.6288 38.2368 36.4748 38.0748 36.2981C37.9212 36.102 37.7942 35.8867 37.697 35.6576C37.5717 35.3423 37.5131 35.0046 37.5252 34.6657V22.58H40.7574C41.0871 22.5837 41.4135 22.6456 41.7216 22.7628C41.9525 22.8523 42.1689 22.9755 42.3635 23.1284C42.5418 23.289 42.6962 23.4742 42.8222 23.6782V20.3809H30.0241ZM41.7926 21.6803C41.4572 21.5835 41.1094 21.5357 40.7602 21.5386H36.497V25.125L36.8137 25.441L36.6887 25.5643L36.5467 25.706L36.4913 25.7612V30.9687L36.7214 31.1997L36.808 31.2847L36.497 31.6064V34.6883C36.496 34.8651 36.5112 35.0415 36.5424 35.2155C36.5737 35.3827 36.612 35.5499 36.6575 35.7185H36.213L36.3053 35.2155C36.3358 35.0414 36.351 34.865 36.3507 34.6883V31.6092L36.0823 31.3428L36.0312 31.2904L36.1164 31.2053L36.3507 30.973V25.7697L36.1548 25.5742L36.0312 25.4509L36.3507 25.1321V21.5485H32.0946C31.7451 21.5479 31.3972 21.5956 31.0608 21.6902V21.4167H41.7969L41.7926 21.6803ZM35.4504 26.7361H35.324V30.1638H35.4504H36.355V26.7418L35.4504 26.7361Z" fill="#5EA84E"/>
<path d="M33.982 27.245C34.3593 26.9308 34.8327 26.7543 35.324 26.7448H35.4504H36.355V25.7727L36.2968 25.7146H35.4447H35.3183C34.5888 25.7394 33.8861 25.995 33.3117 26.4444C33.0104 26.6969 32.7644 27.0084 32.5888 27.3598C32.4152 27.7004 32.3247 28.0772 32.3247 28.4594C32.3239 28.8376 32.4145 29.2104 32.5888 29.5462C32.7666 29.8929 33.0124 30.2003 33.3117 30.4502C33.8727 30.9261 34.5821 31.1926 35.3183 31.2041H36.1164L36.3507 30.9717V30.1824H35.4447H35.3183C34.8268 30.1736 34.3532 29.997 33.9763 29.6822C33.7906 29.5388 33.6402 29.3549 33.5368 29.1445C33.4333 28.9341 33.3796 28.7029 33.3796 28.4686C33.3796 28.2342 33.4333 28.003 33.5368 27.7926C33.6402 27.5823 33.7906 27.3983 33.9763 27.2549L33.982 27.245ZM33.982 27.245C34.3593 26.9308 34.8327 26.7543 35.324 26.7448H35.4504H36.355V25.7727L36.2968 25.7146H35.4447H35.3183C34.5888 25.7394 33.8861 25.995 33.3117 26.4444C33.0104 26.6969 32.7644 27.0084 32.5888 27.3598C32.4152 27.7004 32.3247 28.0772 32.3247 28.4594C32.3239 28.8376 32.4145 29.2104 32.5888 29.5462C32.7666 29.8929 33.0124 30.2003 33.3117 30.4502C33.8727 30.9261 34.5821 31.1926 35.3183 31.2041H36.1164L36.3507 30.9717V30.1824H35.4447H35.3183C34.8268 30.1736 34.3532 29.997 33.9763 29.6822C33.7906 29.5388 33.6402 29.3549 33.5368 29.1445C33.4333 28.9341 33.3796 28.7029 33.3796 28.4686C33.3796 28.2342 33.4333 28.003 33.5368 27.7926C33.6402 27.5823 33.7906 27.3983 33.9763 27.2549L33.982 27.245ZM42.3323 33.4486C42.0144 32.7763 41.5615 32.1763 41.0016 31.6859C40.4478 31.1956 39.8053 30.8151 39.1086 30.565C38.5987 30.3788 38.0671 30.2584 37.5266 30.2065C37.3107 30.1853 37.0935 30.1753 36.8719 30.1753H35.4518H35.3254C34.8339 30.1665 34.3603 29.9899 33.9834 29.6751C33.7977 29.5317 33.6473 29.3478 33.5439 29.1374C33.4404 28.927 33.3867 28.6958 33.3867 28.4615C33.3867 28.2271 33.4404 27.9959 33.5439 27.7855C33.6473 27.5752 33.7977 27.3912 33.9834 27.2478C34.3607 26.9336 34.8341 26.7572 35.3254 26.7476H35.4518H36.9656C37.1568 26.7465 37.3474 26.7674 37.5337 26.81C37.7131 26.8504 37.8865 26.9143 38.0492 26.9998C38.3541 27.1528 38.6147 27.3811 38.8061 27.663C38.8651 27.7596 38.8969 27.8702 38.8984 27.9832C38.8994 28.0722 38.8753 28.1596 38.8288 28.2355C38.7782 28.3241 38.7089 28.4007 38.6258 28.4601C38.5427 28.5195 38.4478 28.5604 38.3474 28.5798H41.7657C41.4603 28.5033 41.2842 28.3417 41.2388 28.098C41.1451 27.1475 40.6872 26.2698 39.9607 25.648C39.2895 25.0462 38.4442 24.6726 37.5465 24.581C37.3579 24.5595 37.1682 24.5491 36.9784 24.5498H35.324C34.2695 24.5552 33.2535 24.9459 32.4681 25.648C32.0571 25.9937 31.727 26.4251 31.5011 26.9118C31.2751 27.3985 31.1588 27.9286 31.1602 28.465C31.1602 29.5637 31.5962 30.5022 32.4681 31.2806C33.2537 31.9822 34.2697 32.3724 35.324 32.3774H36.8719C37.0911 32.3772 37.31 32.3938 37.5266 32.427C38.2464 32.5392 38.9232 32.8404 39.4878 33.2998C39.8197 33.5763 40.0893 33.9196 40.2788 34.3073C40.4675 34.69 40.5656 35.1108 40.5656 35.5373C40.5656 35.9638 40.4675 36.3846 40.2788 36.7672C40.087 37.1491 39.8176 37.4869 39.4878 37.7591C39.136 38.0508 38.7362 38.2794 38.3062 38.4351C37.847 38.6037 37.3612 38.6886 36.8719 38.6859H36.2527C35.7639 38.6887 35.2786 38.6037 34.8198 38.4351C34.3897 38.2798 33.9899 38.051 33.6383 37.7591C33.3085 37.4869 33.0391 37.1491 32.8473 36.7672C32.6561 36.3835 32.5588 35.9601 32.5633 35.5316C32.5627 35.4436 32.5665 35.3557 32.5746 35.2681C32.5746 35.1845 32.5931 35.0966 32.6087 35.0059C32.6689 34.8128 32.7944 34.6465 32.9638 34.5355C33.1011 34.4466 33.2523 34.381 33.4111 34.3413C33.4563 34.3238 33.5047 34.3161 33.5531 34.3187L30.0667 32.8081C30.2537 33.0433 30.3866 33.3166 30.4558 33.6087C30.4715 33.7684 30.4791 33.9287 30.4785 34.0891C30.4788 34.242 30.4712 34.3947 30.4558 34.5468C30.3824 34.87 30.3438 35.2002 30.3408 35.5316C30.3387 36.2549 30.4958 36.9699 30.8009 37.6259C31.1123 38.2989 31.5663 38.8964 32.1316 39.3774C32.6869 39.8681 33.3281 40.2524 34.0232 40.511C34.7383 40.7785 35.4961 40.9144 36.2598 40.912H36.879C37.6428 40.9144 38.4006 40.7785 39.1157 40.511C39.8112 40.2524 40.4529 39.8681 41.0087 39.3774C41.5736 38.896 42.0275 38.2986 42.3394 37.6259C42.6435 36.9696 42.8 36.2547 42.7981 35.5316C42.7985 34.8115 42.6394 34.1002 42.3323 33.4486ZM41.3922 37.2023C41.1424 37.7432 40.7735 38.2208 40.3129 38.5994C39.854 39.0119 39.3211 39.3341 38.7422 39.5488C38.1443 39.7726 37.5105 39.8855 36.8719 39.8818H36.2527C35.6185 39.8834 34.9892 39.7706 34.3952 39.5488C33.8116 39.3359 33.2742 39.0136 32.8118 38.5994C32.3619 38.2136 31.9985 37.7376 31.7453 37.2023C31.4955 36.6807 31.3664 36.1097 31.3675 35.5316C31.3652 35.4015 31.3709 35.2714 31.3846 35.1419C31.3978 35.011 31.4206 34.8813 31.4527 34.7537V34.7069C31.4718 34.6558 31.4795 34.6012 31.4755 34.5468L31.6359 34.6162C31.6372 34.6285 31.6358 34.6409 31.6319 34.6527C31.6279 34.6644 31.6216 34.6751 31.6132 34.6843V34.7537L31.5905 34.799C31.5468 35.0408 31.524 35.2859 31.5223 35.5316C31.5187 36.0991 31.6481 36.6595 31.9001 37.1683C32.148 37.6745 32.4952 38.126 32.9212 38.496C33.8462 39.2898 35.027 39.7245 36.2471 39.7203H36.8662C37.4969 39.7249 38.1229 39.6125 38.7124 39.3887C39.2618 39.1814 39.7704 38.8792 40.2149 38.496C40.6408 38.126 40.988 37.6745 41.2359 37.1683C41.4845 36.6583 41.6136 36.0987 41.6136 35.5316C41.6136 34.9646 41.4845 34.4049 41.2359 33.895C40.9877 33.3889 40.6405 32.9375 40.2149 32.5672C39.7704 32.184 39.2618 31.8818 38.7124 31.6745C38.3286 31.5274 37.9278 31.4289 37.5195 31.3812C37.3022 31.3555 37.0836 31.3427 36.8648 31.343H36.7526L36.4175 31.6774L36.3493 31.6094L36.0809 31.343H35.4433H35.3169C34.9333 31.3332 34.5538 31.2609 34.1936 31.129C33.8091 30.9865 33.455 30.7731 33.1498 30.4998C32.848 30.25 32.6052 29.9369 32.4385 29.5827C32.2718 29.2286 32.1854 28.8421 32.1854 28.4509C32.1854 28.0596 32.2718 27.6731 32.4385 27.319C32.6052 26.9648 32.848 26.6517 33.1498 26.4019C33.7495 25.8765 34.5189 25.5847 35.3169 25.58H35.4433H36.1533L36.0298 25.4567L36.3493 25.1379L36.4175 25.0699L36.8038 25.4567L36.6788 25.58H36.9628C37.1529 25.5796 37.3428 25.5933 37.5309 25.6211C38.1721 25.7084 38.7738 25.9807 39.262 26.4047C39.6128 26.7155 39.8807 27.1085 40.0416 27.5482H39.8584C39.8151 27.4149 39.7614 27.2851 39.698 27.16L39.6752 27.1373V27.1132C39.3974 26.669 38.9997 26.3119 38.5278 26.083C38.2149 25.926 37.8796 25.8179 37.5337 25.7628C37.3459 25.7323 37.1559 25.7171 36.9656 25.7175H36.551L36.426 25.8436L36.2996 25.7175H35.4475H35.3212C34.5917 25.7423 33.8889 25.9978 33.3145 26.4472C33.0133 26.6997 32.7672 27.0113 32.5917 27.3626C32.4181 27.7032 32.3276 28.08 32.3275 28.4622C32.3267 28.8404 32.4173 29.2132 32.5917 29.549C32.7694 29.8957 33.0152 30.2032 33.3145 30.4531C33.8756 30.9289 34.5849 31.1954 35.3212 31.2069H36.1193L36.3536 30.9745L36.4217 30.9065L36.4913 30.976L36.7214 31.2069H36.8634C37.0821 31.207 37.3007 31.2193 37.5181 31.2438C37.9331 31.2896 38.3412 31.3847 38.7337 31.5272C39.3134 31.7356 39.8469 32.0547 40.3043 32.4666C41.2691 33.3055 41.751 34.3276 41.75 35.533C41.7535 36.1088 41.6314 36.6784 41.3922 37.2023ZM33.982 27.245C34.3593 26.9308 34.8327 26.7543 35.324 26.7448H35.4504H36.355V25.7727L36.2968 25.7146H35.4447H35.3183C34.5888 25.7394 33.8861 25.995 33.3117 26.4444C33.0104 26.6969 32.7644 27.0084 32.5888 27.3598C32.4152 27.7004 32.3247 28.0772 32.3247 28.4594C32.3239 28.8376 32.4145 29.2104 32.5888 29.5462C32.7666 29.8929 33.0124 30.2003 33.3117 30.4502C33.8727 30.9261 34.5821 31.1926 35.3183 31.2041H36.1164L36.3507 30.9717V30.1824H35.4447H35.3183C34.8268 30.1736 34.3532 29.997 33.9763 29.6822C33.7906 29.5388 33.6402 29.3549 33.5368 29.1445C33.4333 28.9341 33.3796 28.7029 33.3796 28.4686C33.3796 28.2342 33.4333 28.003 33.5368 27.7926C33.6402 27.5823 33.7906 27.3983 33.9763 27.2549L33.982 27.245Z" fill="#5EA84E"/>
</svg>
