<svg width="239" height="304" viewBox="0 0 239 304" fill="none" xmlns="http://www.w3.org/2000/svg">
<path d="M238.235 178.206V50.6803L236.309 50.37C194.38 43.5429 142.687 25.8721 121.732 1.77328L120.179 0L118.403 1.60482C96.9685 21.4833 51.3028 38.6043 2.07796 45.2186L0.09867 45.4846V178.028C0.09867 178.747 -4.71198 249.766 52.8472 271.924C111.995 300.651 116.877 303.045 116.877 303.053L117.942 303.568L118.989 303.009C119.184 302.903 124.51 300.065 183.569 271.977C241.27 249.758 238.27 178.826 238.235 178.206ZM181.767 267.801C133.838 290.561 121.146 296.803 117.862 298.443C114.631 296.865 101.93 290.685 54.6933 267.73C0.169677 246.734 4.64305 179.066 4.6963 178.179V49.4656C52.7851 42.7183 97.4034 26.0495 119.815 6.50794C143.415 31.7506 197.034 48.0293 233.637 54.5549V178.321C233.655 179.004 236.504 246.725 181.767 267.801Z" fill="#5EA84E"/>
<path d="M229.075 176.628V60.6905C183.285 53.8102 138.596 35.3503 119.664 13.5745C98.0959 33.5859 55.652 47.0628 9.87097 52.7373L9.29404 176.628C9.29404 176.628 6.67569 241.042 59.1225 261.24C113.797 287.839 117.081 289.984 117.081 289.984C117.081 289.984 122.407 287.848 178.466 261.24C230.912 241.042 229.075 176.628 229.075 176.628ZM120.046 245.262C101.536 245.264 83.4409 239.783 68.0496 229.511C52.6584 219.24 40.6619 204.64 33.5772 187.557C26.4926 170.475 24.638 151.677 28.248 133.542C31.858 115.407 40.7705 98.748 53.8584 85.6726C66.9462 72.5973 83.6216 63.6926 101.776 60.0847C119.93 56.4767 138.747 58.3276 155.848 65.4032C172.949 72.4787 187.566 84.4612 197.85 99.8353C208.134 115.209 213.622 133.285 213.622 151.775C213.622 176.568 203.764 200.345 186.215 217.877C168.666 235.409 144.865 245.26 120.046 245.262Z" fill="#72BF65"/>
<path d="M119.185 67.615C102.52 67.6132 86.228 72.5484 72.3705 81.7963C58.5131 91.0442 47.7123 104.189 41.3339 119.57C34.9556 134.95 33.2862 151.874 36.537 168.202C39.7879 184.53 47.8128 199.528 59.5969 211.3C71.3811 223.072 86.3951 231.088 102.74 234.336C119.085 237.583 136.028 235.915 151.424 229.544C166.82 223.172 179.979 212.383 189.237 198.54C198.495 184.697 203.435 168.423 203.433 151.775C203.415 129.46 194.532 108.065 178.737 92.2856C162.941 76.5066 141.523 67.6338 119.185 67.615ZM119.185 231.368C103.426 231.368 88.0212 226.7 74.9183 217.954C61.8154 209.209 51.6029 196.778 45.5723 182.234C39.5417 167.69 37.9639 151.687 41.0382 136.247C44.1126 120.807 51.7012 106.625 62.8443 95.4936C73.9874 84.3623 88.1846 76.7817 103.64 73.7106C119.096 70.6394 135.117 72.2156 149.676 78.2399C164.235 84.2641 176.679 94.4659 185.434 107.555C194.189 120.644 198.862 136.033 198.862 151.775C198.839 172.877 190.437 193.108 175.499 208.03C160.562 222.952 140.309 231.345 119.185 231.368Z" fill="#5EA84E"/>
<path d="M112.998 130.7H112.208V152.147H112.998H118.652V130.7H112.998ZM112.998 130.7H112.208V152.147H112.998H118.652V130.7H112.998ZM79.0835 90.8983V111.53C80.6062 108.876 83.0214 106.847 85.9001 105.803C87.8465 105.056 89.9126 104.668 91.9977 104.659H112.208V180.28C112.187 182.4 111.799 184.499 111.063 186.487C110.492 187.926 109.718 189.275 108.764 190.494C107.754 191.6 106.599 192.564 105.329 193.358H132.844C131.571 192.564 130.413 191.6 129.4 190.494C128.44 189.268 127.647 187.92 127.039 186.487C126.256 184.514 125.89 182.401 125.965 180.28V104.659H146.166C148.227 104.682 150.267 105.069 152.193 105.803C153.636 106.363 154.988 107.133 156.205 108.09C157.319 109.095 158.284 110.254 159.072 111.53V90.8983H79.0835ZM152.637 99.0288C150.54 98.4233 148.367 98.1246 146.184 98.1422H119.539V120.583L121.518 122.56L120.737 123.332L119.85 124.218L119.504 124.564V157.148L120.941 158.593L121.483 159.125L119.539 161.138V180.422C119.533 181.528 119.628 182.632 119.823 183.721C120.018 184.767 120.258 185.813 120.542 186.868H117.764L118.341 183.721C118.532 182.632 118.627 181.528 118.625 180.422V161.156L116.947 159.489L116.628 159.161L117.16 158.629L118.625 157.175V124.617L117.4 123.394L116.628 122.622L118.625 120.627V98.2042H92.0243C89.8399 98.2006 87.6654 98.499 85.5628 99.0909V97.3796H152.663L152.637 99.0288ZM112.998 130.664H112.208V152.112H112.998H118.652V130.7L112.998 130.664Z" fill="#5EA84E"/>
<path d="M103.821 133.847C106.179 131.881 109.137 130.777 112.208 130.717H112.998H118.652V124.635L118.288 124.271H112.963H112.173C107.613 124.427 103.221 126.026 99.6312 128.838C97.7484 130.418 96.2106 132.367 95.1134 134.565C94.0283 136.697 93.4626 139.054 93.4625 141.446C93.4575 143.812 94.0238 146.145 95.1134 148.246C96.2242 150.415 97.7606 152.339 99.6312 153.903C103.138 156.88 107.571 158.548 112.173 158.62H117.161L118.625 157.166V152.227H112.963H112.173C109.101 152.172 106.141 151.067 103.785 149.097C102.624 148.2 101.685 147.049 101.038 145.733C100.392 144.416 100.055 142.97 100.055 141.503C100.055 140.037 100.392 138.59 101.038 137.274C101.685 135.958 102.624 134.807 103.785 133.909L103.821 133.847ZM103.821 133.847C106.179 131.881 109.137 130.777 112.208 130.717H112.998H118.652V124.635L118.288 124.271H112.963H112.173C107.613 124.427 103.221 126.026 99.6312 128.838C97.7484 130.418 96.2106 132.367 95.1134 134.565C94.0283 136.697 93.4626 139.054 93.4625 141.446C93.4575 143.812 94.0238 146.145 95.1134 148.246C96.2242 150.415 97.7606 152.339 99.6312 153.903C103.138 156.88 107.571 158.548 112.173 158.62H117.161L118.625 157.166V152.227H112.963H112.173C109.101 152.172 106.141 151.067 103.785 149.097C102.624 148.2 101.685 147.049 101.038 145.733C100.392 144.416 100.055 142.97 100.055 141.503C100.055 140.037 100.392 138.59 101.038 137.274C101.685 135.958 102.624 134.807 103.785 133.909L103.821 133.847ZM156.01 172.664C154.023 168.457 151.193 164.703 147.693 161.634C144.232 158.566 140.216 156.186 135.862 154.621C132.675 153.456 129.352 152.702 125.974 152.378C124.625 152.245 123.267 152.183 121.883 152.183H113.007H112.217C109.145 152.127 106.185 151.023 103.829 149.053C102.669 148.156 101.729 147.005 101.082 145.688C100.436 144.372 100.1 142.925 100.1 141.459C100.1 139.993 100.436 138.546 101.082 137.23C101.729 135.913 102.669 134.762 103.829 133.865C106.187 131.899 109.146 130.795 112.217 130.735H113.007H122.468C123.663 130.728 124.854 130.859 126.019 131.125C127.14 131.378 128.223 131.778 129.241 132.313C131.146 133.27 132.775 134.699 133.971 136.463C134.34 137.067 134.539 137.759 134.548 138.467C134.555 139.023 134.404 139.57 134.113 140.045C133.797 140.599 133.364 141.079 132.845 141.45C132.325 141.822 131.732 142.078 131.105 142.199H152.468C150.56 141.72 149.46 140.71 149.176 139.185C148.59 133.237 145.728 127.745 141.187 123.855C136.993 120.089 131.709 117.751 126.099 117.178C124.92 117.044 123.735 116.979 122.548 116.983H112.208C105.618 117.017 99.2677 119.461 94.359 123.855C91.7902 126.018 89.7271 128.717 88.3148 131.762C86.9026 134.808 86.1754 138.125 86.1844 141.481C86.1844 148.356 88.9093 154.228 94.359 159.099C99.269 163.489 105.619 165.93 112.208 165.961H121.883C123.252 165.96 124.62 166.064 125.974 166.272C130.473 166.974 134.703 168.859 138.232 171.733C140.306 173.463 141.991 175.611 143.176 178.037C144.355 180.432 144.968 183.065 144.968 185.733C144.968 188.402 144.355 191.035 143.176 193.429C141.977 195.818 140.293 197.932 138.232 199.636C136.033 201.46 133.534 202.891 130.847 203.865C127.977 204.92 124.941 205.452 121.883 205.434H118.013C114.958 205.452 111.924 204.92 109.057 203.865C106.369 202.893 103.87 201.462 101.673 199.636C99.6114 197.932 97.9278 195.818 96.7288 193.429C95.534 191.028 94.9257 188.379 94.9537 185.698C94.9498 185.147 94.9735 184.597 95.0247 184.049C95.0247 183.526 95.14 182.976 95.2377 182.408C95.6136 181.2 96.3979 180.16 97.4566 179.465C98.3152 178.909 99.2599 178.498 100.252 178.25C100.535 178.14 100.837 178.092 101.14 178.108L79.3501 168.657C80.519 170.128 81.3493 171.838 81.7821 173.666C81.8802 174.665 81.9276 175.668 81.9241 176.672C81.9257 177.628 81.8783 178.584 81.7821 179.536C81.3231 181.558 81.0821 183.624 81.0631 185.698C81.05 190.224 82.0317 194.697 83.9389 198.802C85.8852 203.013 88.7226 206.752 92.2554 209.761C95.7262 212.832 99.7341 215.236 104.078 216.854C108.547 218.528 113.284 219.378 118.057 219.364H121.927C126.7 219.378 131.437 218.528 135.906 216.854C140.253 215.236 144.264 212.832 147.738 209.761C151.268 206.749 154.105 203.011 156.054 198.802C157.955 194.695 158.933 190.223 158.921 185.698C158.924 181.192 157.93 176.741 156.01 172.664ZM150.134 196.151C148.573 199.536 146.268 202.524 143.389 204.894C140.521 207.475 137.19 209.49 133.572 210.834C129.835 212.234 125.874 212.94 121.883 212.918H118.013C114.049 212.928 110.116 212.222 106.403 210.834C102.756 209.502 99.3969 207.485 96.5069 204.894C93.6949 202.48 91.4236 199.501 89.8412 196.151C88.28 192.888 87.4731 189.315 87.4803 185.698C87.4655 184.884 87.5011 184.069 87.5868 183.26C87.6694 182.44 87.8118 181.629 88.0128 180.83V180.538C88.1316 180.218 88.1801 179.876 88.1548 179.536L89.1578 179.97C89.1654 180.047 89.1567 180.125 89.1322 180.198C89.1078 180.271 89.0681 180.339 89.0158 180.396V180.83L88.8738 181.114C88.6004 182.627 88.4579 184.16 88.4477 185.698C88.4252 189.249 89.2337 192.755 90.8087 195.938C92.3581 199.106 94.5282 201.931 97.1903 204.246C102.972 209.213 110.352 211.933 117.977 211.907H121.847C125.789 211.936 129.701 211.232 133.386 209.832C136.82 208.535 139.998 206.644 142.776 204.246C145.438 201.931 147.608 199.106 149.158 195.938C150.711 192.748 151.518 189.246 151.518 185.698C151.518 182.15 150.711 178.648 149.158 175.457C147.606 172.291 145.436 169.466 142.776 167.149C139.998 164.751 136.82 162.86 133.386 161.563C130.987 160.643 128.482 160.027 125.93 159.728C124.572 159.567 123.206 159.487 121.838 159.489H121.137L119.042 161.581L118.616 161.156L116.939 159.489H112.954H112.164C109.766 159.428 107.395 158.975 105.143 158.15C102.74 157.258 100.527 155.923 98.6193 154.213C96.7333 152.65 95.2154 150.691 94.1736 148.475C93.1318 146.259 92.5917 143.841 92.5917 141.392C92.5917 138.944 93.1318 136.526 94.1736 134.31C95.2154 132.094 96.7333 130.135 98.6193 128.572C102.367 125.285 107.176 123.459 112.164 123.429H112.954H117.392L116.619 122.658L118.616 120.663L119.042 120.237L121.457 122.658L120.676 123.429H122.451C123.639 123.427 124.826 123.513 126.001 123.686C130.009 124.232 133.769 125.937 136.821 128.589C139.013 130.534 140.688 132.993 141.693 135.745H140.548C140.277 134.91 139.942 134.098 139.545 133.315L139.403 133.173V133.023C137.667 130.243 135.181 128.009 132.232 126.577C130.276 125.594 128.181 124.918 126.019 124.573C124.845 124.382 123.658 124.287 122.468 124.289H119.877L119.096 125.078L118.306 124.289H112.98H112.19C107.631 124.444 103.239 126.044 99.6489 128.855C97.7661 130.435 96.2284 132.385 95.1312 134.583C94.046 136.715 93.4804 139.072 93.4803 141.463C93.4753 143.83 94.0416 146.163 95.1312 148.264C96.2419 150.433 97.7783 152.357 99.6489 153.921C103.155 156.898 107.589 158.565 112.19 158.638H117.179L118.643 157.183L119.069 156.758L119.504 157.192L120.942 158.638H121.829C123.197 158.638 124.563 158.715 125.921 158.868C128.515 159.155 131.066 159.75 133.519 160.641C137.142 161.946 140.476 163.942 143.335 166.52C149.365 171.769 152.377 178.164 152.371 185.707C152.393 189.309 151.629 192.873 150.134 196.151ZM103.821 133.847C106.179 131.881 109.137 130.777 112.208 130.717H112.998H118.652V124.635L118.288 124.271H112.963H112.173C107.613 124.427 103.221 126.026 99.6312 128.838C97.7484 130.418 96.2106 132.367 95.1134 134.565C94.0283 136.697 93.4626 139.054 93.4625 141.446C93.4575 143.812 94.0238 146.145 95.1134 148.246C96.2242 150.415 97.7606 152.339 99.6312 153.903C103.138 156.88 107.571 158.548 112.173 158.62H117.161L118.625 157.166V152.227H112.963H112.173C109.101 152.172 106.141 151.067 103.785 149.097C102.624 148.2 101.685 147.049 101.038 145.733C100.392 144.416 100.055 142.97 100.055 141.503C100.055 140.037 100.392 138.59 101.038 137.274C101.685 135.958 102.624 134.807 103.785 133.909L103.821 133.847Z" fill="#5EA84E"/>
</svg>
