<?xml version="1.0" encoding="utf-8"?>
<!-- Generator: Adobe Illustrator 25.0.0, SVG Export Plug-In . SVG Version: 6.00 Build 0)  -->
<svg version="1.1" id="Layer_1" xmlns="http://www.w3.org/2000/svg" xmlns:xlink="http://www.w3.org/1999/xlink" x="0px" y="0px"
	 viewBox="0 0 507 494" style="enable-background:new 0 0 507 494;" xml:space="preserve">
<style type="text/css">
	.st0{fill:#606060;}
	.st1{fill:#00150B;}
	.st2{fill:#FFFFFF;}
	.st3{fill:none;stroke:#000000;stroke-width:11.6054;stroke-miterlimit:10;}
	.st4{fill:url(#SVGID_1_);}
	.st5{fill:url(#SVGID_2_);}
	.st6{fill:url(#SVGID_3_);}
	.st7{fill:url(#SVGID_4_);}
	.st8{fill:url(#SVGID_5_);}
	.st9{fill:url(#SVGID_6_);}
	.st10{fill:url(#SVGID_7_);}
	.st11{fill:url(#SVGID_8_);}
	.st12{fill:url(#SVGID_9_);}
	.st13{fill:url(#SVGID_10_);}
	.st14{fill:url(#SVGID_11_);}
	.st15{fill:url(#SVGID_12_);}
	.st16{fill:url(#SVGID_13_);}
	.st17{fill:url(#SVGID_14_);}
	.st18{fill:none;stroke:#FFFFFF;stroke-width:1.0356;stroke-miterlimit:10;}
	.st19{fill:#FF7155;}
	.st20{fill:none;stroke:#FFFFFF;stroke-width:1.535;stroke-miterlimit:10;}
	.st21{fill:#D3D3D3;}
	.st22{fill:none;stroke:#000000;stroke-width:1.535;stroke-miterlimit:10;}
	.st23{fill:none;stroke:#005BBF;stroke-width:1.535;stroke-miterlimit:10;}
	.st24{fill:url(#SVGID_15_);}
	.st25{fill:#005BBF;}
	.st26{fill:none;stroke:#000000;stroke-width:17;stroke-miterlimit:10;}
	.st27{fill:none;stroke:#000000;stroke-width:14.7883;stroke-miterlimit:10;}
	.st28{fill:url(#SVGID_16_);}
	.st29{fill:url(#SVGID_17_);}
	.st30{fill:url(#SVGID_18_);}
	.st31{fill:#5EA84E;}
	.st32{fill:#72BF65;}
	.st33{fill:#001C4E;}
	.st34{fill:url(#SVGID_19_);}
	.st35{fill:url(#SVGID_20_);}
	.st36{fill:url(#SVGID_21_);}
	.st37{fill:#007F52;}
	.st38{fill:#FF662A;}
	.st39{stroke:#FFFFFF;stroke-width:1.4293;stroke-miterlimit:10;}
	.st40{fill:none;stroke:#FFFFFF;stroke-width:4.3239;stroke-miterlimit:10;}
	.st41{fill:none;stroke:#000000;stroke-width:4.3239;stroke-miterlimit:10;}
</style>
<g>
	<g>
		<g>
			<g>
				<g>
					<path class="st31" d="M390.73,277.3V133.47l-2.17-0.35c-47.24-7.7-105.48-27.63-129.09-54.81l-1.75-2.01l-1.95,1.82
						c-24.15,22.42-75.59,41.73-131.06,49.19l-2.24,0.3l0.01,149.51c-0.06,0.81-5.42,80.91,59.43,105.89
						c66.59,32.4,72.08,35.1,72.1,35.11l1.2,0.58l1.17-0.63c0.22-0.12,6.23-3.32,72.76-34.97
						C394.15,358.03,390.77,277.98,390.73,277.3z M327.11,378.35c-53.99,25.67-68.31,32.71-71.99,34.56
						c-3.63-1.78-17.95-8.75-71.16-34.64c-61.43-23.68-56.39-100.01-56.33-100.97V132.1c54.17-7.61,104.45-26.41,129.7-48.45
						c26.59,28.48,86.97,46.83,128.24,54.2v139.59C385.57,278.2,388.78,354.58,327.11,378.35z"/>
				</g>
			</g>
		</g>
	</g>
	<path class="st32" d="M380.41,275.52V144.76c-51.59-7.76-101.94-28.57-123.27-53.13c-24.3,22.56-72.12,37.77-123.7,44.17
		l-0.65,139.73c0,0-2.95,72.65,56.14,95.43c61.6,29.96,65.3,32.42,65.3,32.42s6.05-2.41,69.16-32.42
		C382.48,348.17,380.41,275.52,380.41,275.52z M257.57,352.93c-58.23,0-105.43-47.2-105.43-105.43
		c0-58.22,47.2-105.43,105.43-105.43c58.22,0,105.43,47.2,105.43,105.43C363,305.72,315.8,352.93,257.57,352.93z"/>
	<g>
		<g>
			<path class="st31" d="M256.6,152.57c-52.34,0-94.92,42.58-94.92,94.92c0,52.34,42.58,94.93,94.92,94.93
				c52.34,0,94.92-42.58,94.92-94.93C351.52,195.15,308.95,152.57,256.6,152.57z M256.6,337.26c-49.5,0-89.76-40.27-89.76-89.77
				c0-49.5,40.27-89.76,89.76-89.76c49.5,0,89.76,40.27,89.76,89.76C346.37,296.99,306.1,337.26,256.6,337.26z"/>
		</g>
	</g>
	<g>
		<g>
			<g>
				<g>
					<g>
						<path class="st31" d="M249.63,223.72c-0.3,0-0.6,0.01-0.89,0.02v24.19c0.29,0.01,0.59,0.02,0.89,0.02h6.38v-24.23H249.63z
							 M249.63,223.72c-0.3,0-0.6,0.01-0.89,0.02v24.19c0.29,0.01,0.59,0.02,0.89,0.02h6.38v-24.23H249.63z M211.42,178.83v23.26
							c0.86-1.4,1.94-2.69,3.23-3.88c1.19-0.97,2.66-1.83,4.44-2.58s4.06-1.19,6.87-1.29h22.77v85.29c-0.1,2.8-0.54,5.11-1.29,6.95
							c-0.75,1.83-1.62,3.34-2.59,4.52c-1.18,1.29-2.48,2.37-3.87,3.23H272c-1.4-0.86-2.69-1.94-3.88-3.23
							c-0.97-1.19-1.85-2.69-2.66-4.52c-0.81-1.83-1.21-4.15-1.21-6.95v-85.29h22.77c2.69,0.11,4.95,0.54,6.78,1.29
							c1.83,0.75,3.34,1.61,4.53,2.58c1.29,1.19,2.37,2.48,3.23,3.88v-23.26H211.42z M294.29,188.04c-2.16-0.65-4.58-0.97-7.27-0.97
							h-30.04v25.3l2.23,2.23l-0.88,0.88l-0.96,0.97l-0.39,0.39v36.75l1.62,1.62l0.61,0.61l-2.23,2.23v21.74
							c0,1.29,0.1,2.53,0.32,3.72c0.22,1.18,0.49,2.37,0.81,3.55h-3.07l0.65-3.55c0.21-1.19,0.32-2.43,0.32-3.72v-21.72l-1.89-1.88
							l-0.36-0.36l0.61-0.61l1.65-1.64v-36.72l-1.38-1.38l-0.88-0.88l2.25-2.25v-25.28h-30.04c-2.59,0-5.01,0.32-7.27,0.97v-1.94
							h75.6V188.04z M249.63,223.72c-0.3,0-0.6,0.01-0.89,0.02v24.19c0.29,0.01,0.59,0.02,0.89,0.02h6.38v-24.23H249.63z"/>
					</g>
				</g>
				<g>
					<g>
						<path class="st31" d="M239.29,227.27c2.59-2.2,5.74-3.37,9.45-3.53c0.29-0.01,0.59-0.02,0.89-0.02h6.38v-6.86l-0.41-0.41
							h-5.97c-0.3,0-0.59,0.01-0.89,0.02c-2.48,0.09-4.88,0.54-7.19,1.35c-2.58,0.91-4.9,2.18-6.94,3.8
							c-2.16,1.83-3.85,3.98-5.09,6.46c-1.24,2.48-1.86,5.06-1.86,7.75s0.62,5.25,1.86,7.67c1.24,2.42,2.93,4.55,5.09,6.38
							c3.98,3.37,8.69,5.15,14.13,5.32c0.29,0.01,0.59,0.01,0.89,0.01h4.73l1.65-1.64v-5.63h-6.38c-0.3,0-0.6-0.01-0.89-0.02
							c-3.71-0.16-6.86-1.33-9.45-3.53c-2.8-2.37-4.2-5.23-4.2-8.56C235.09,232.49,236.49,229.64,239.29,227.27z M239.29,227.27
							c2.59-2.2,5.74-3.37,9.45-3.53c0.29-0.01,0.59-0.02,0.89-0.02h6.38v-6.86l-0.41-0.41h-5.97c-0.3,0-0.59,0.01-0.89,0.02
							c-2.48,0.09-4.88,0.54-7.19,1.35c-2.58,0.91-4.9,2.18-6.94,3.8c-2.16,1.83-3.85,3.98-5.09,6.46
							c-1.24,2.48-1.86,5.06-1.86,7.75s0.62,5.25,1.86,7.67c1.24,2.42,2.93,4.55,5.09,6.38c3.98,3.37,8.69,5.15,14.13,5.32
							c0.29,0.01,0.59,0.01,0.89,0.01h4.73l1.65-1.64v-5.63h-6.38c-0.3,0-0.6-0.01-0.89-0.02c-3.71-0.16-6.86-1.33-9.45-3.53
							c-2.8-2.37-4.2-5.23-4.2-8.56C235.09,232.49,236.49,229.64,239.29,227.27z M298.09,271.05c-2.16-4.63-5.28-8.78-9.37-12.44
							c-3.88-3.45-8.32-6.08-13.33-7.91c-3.59-1.31-7.3-2.16-11.14-2.53c-1.52-0.15-3.05-0.22-4.61-0.22h-10.01
							c-0.3,0-0.6-0.01-0.89-0.02c-3.71-0.16-6.86-1.33-9.45-3.53c-2.8-2.37-4.2-5.23-4.2-8.56c0-3.34,1.4-6.2,4.2-8.56
							c2.59-2.2,5.74-3.37,9.45-3.53c0.29-0.01,0.59-0.02,0.89-0.02h10.66c1.39,0,2.71,0.15,3.96,0.43c1.28,0.3,2.49,0.74,3.63,1.34
							c2.26,1.19,4.04,2.75,5.33,4.69c0.43,0.75,0.65,1.51,0.65,2.26c0,0.64-0.16,1.24-0.49,1.77c-0.75,1.3-1.88,2.1-3.39,2.43
							h24.07c-2.16-0.54-3.39-1.67-3.72-3.4c-0.64-6.67-3.66-12.43-9.04-17.28c-4.86-4.32-10.54-6.83-17.04-7.54
							c-1.28-0.15-2.61-0.22-3.96-0.22h-10.66c-0.3,0-0.59,0.01-0.89,0.01c-7.8,0.18-14.5,2.75-20.11,7.74
							c-3.01,2.59-5.31,5.6-6.86,9.05c-1.56,3.45-2.35,7.05-2.35,10.82c0,7.75,3.07,14.38,9.21,19.87
							c5.61,4.98,12.31,7.56,20.11,7.74c0.3,0.01,0.59,0.01,0.89,0.01h10.01c1.58,0,3.11,0.12,4.61,0.35
							c1.89,0.3,3.72,0.77,5.49,1.43c3.18,1.18,5.95,2.77,8.32,4.76c2.37,2,4.22,4.36,5.57,7.11c1.35,2.74,2.02,5.63,2.02,8.64
							c0,3.13-0.67,6.03-2.02,8.72c-1.35,2.69-3.21,5.03-5.57,7.03c-2.37,1.99-5.15,3.58-8.32,4.76c-3.18,1.19-6.54,1.78-10.1,1.78
							h-4.36c-3.55,0-6.92-0.59-10.09-1.78c-3.18-1.18-5.95-2.77-8.32-4.76c-2.37-2-4.23-4.34-5.57-7.03
							c-1.35-2.69-2.02-5.6-2.02-8.72c0-0.65,0.02-1.27,0.08-1.86c0.05-0.59,0.14-1.21,0.24-1.85c0.54-1.51,1.37-2.61,2.5-3.32
							c1.13-0.7,2.18-1.15,3.15-1.37c0.22-0.1,0.54-0.16,0.97-0.16l-24.55-10.66c1.4,1.83,2.32,3.71,2.75,5.65
							c0.1,1.08,0.16,2.21,0.16,3.39c0,1.08-0.06,2.16-0.16,3.23c-0.54,2.48-0.81,4.79-0.81,6.95c0,5.17,1.07,10.1,3.23,14.78
							c2.16,4.68,5.28,8.8,9.37,12.36c3.87,3.44,8.32,6.11,13.32,7.99c5.01,1.88,10.26,2.83,15.75,2.83h4.36
							c5.49,0,10.74-0.95,15.75-2.83c5.01-1.88,9.45-4.55,13.33-7.99c4.09-3.56,7.21-7.68,9.37-12.36
							c2.15-4.68,3.23-9.61,3.23-14.78C301.32,280.58,300.24,275.68,298.09,271.05z M291.47,297.54c-1.72,3.77-4.25,7.05-7.59,9.85
							c-3.23,2.91-6.92,5.15-11.06,6.71c-4.15,1.56-8.54,2.34-13.17,2.34h-4.36c-4.52,0-8.88-0.78-13.08-2.34
							c-4.2-1.56-7.92-3.8-11.15-6.71c-3.23-2.8-5.73-6.08-7.51-9.85c-1.77-3.77-2.66-7.7-2.66-11.79c0-0.86,0.05-1.78,0.16-2.75
							c0.11-0.96,0.27-1.88,0.48-2.74v-0.33c0.11-0.21,0.17-0.59,0.17-1.13l1.13,0.49c0,0.22-0.06,0.38-0.17,0.48v0.49l-0.16,0.32
							c-0.32,1.83-0.48,3.56-0.48,5.17c0,4.1,0.89,7.94,2.66,11.55c1.78,3.61,4.18,6.73,7.19,9.37c3.01,2.64,6.54,4.74,10.58,6.3
							c4.04,1.56,8.32,2.34,12.84,2.34h4.36c4.63,0,8.97-0.78,13.01-2.34c4.03-1.56,7.56-3.66,10.58-6.3
							c3.01-2.64,5.41-5.76,7.18-9.37c1.78-3.61,2.67-7.46,2.67-11.55c0-4.1-0.89-7.94-2.67-11.55c-1.77-3.61-4.17-6.73-7.18-9.37
							c-3.02-2.64-6.55-4.74-10.58-6.3c-2.67-1.03-5.47-1.72-8.4-2.07c-1.5-0.18-3.04-0.27-4.61-0.27h-0.8l-2.36,2.36l-0.48-0.48
							l-1.89-1.88h-4.49c-0.3,0-0.6-0.01-0.89-0.02c-2.8-0.09-5.44-0.59-7.91-1.51c-2.75-1.03-5.2-2.51-7.35-4.44
							c-4.53-3.99-6.79-8.78-6.79-14.38c0-5.71,2.26-10.56,6.79-14.54c4.2-3.69,9.29-5.63,15.26-5.79c0.3-0.01,0.59-0.02,0.89-0.02
							h5l-0.88-0.88l2.25-2.25l0.48-0.48l2.72,2.72l-0.88,0.88h1.96c1.36,0,2.68,0.09,3.96,0.28c4.6,0.65,8.66,2.5,12.19,5.53
							c2.59,2.37,4.42,5.07,5.49,8.08h-1.29c-0.32-0.97-0.7-1.88-1.13-2.75l-0.16-0.16v-0.16c-1.94-3.13-4.63-5.55-8.08-7.27
							c-2.25-1.12-4.59-1.88-7.02-2.27c-1.29-0.21-2.61-0.32-3.96-0.32h-2.92l-0.88,0.88l-0.88-0.88h-5.97
							c-0.3,0-0.59,0.01-0.89,0.02c-2.48,0.09-4.88,0.54-7.19,1.35c-2.58,0.91-4.9,2.18-6.94,3.8c-2.16,1.83-3.85,3.98-5.09,6.46
							c-1.24,2.48-1.86,5.06-1.86,7.75s0.62,5.25,1.86,7.67c1.24,2.42,2.93,4.55,5.09,6.38c3.98,3.37,8.69,5.15,14.13,5.32
							c0.29,0.01,0.59,0.01,0.89,0.01h4.73l1.65-1.64l0.48-0.48l0.49,0.49l1.62,1.62h1.04c1.56,0,3.1,0.09,4.61,0.26
							c2.96,0.33,5.81,1,8.56,2c4.14,1.51,7.83,3.72,11.06,6.63c6.79,5.92,10.18,13.14,10.18,21.64
							C294.05,289.85,293.19,293.78,291.47,297.54z M239.29,227.27c2.59-2.2,5.74-3.37,9.45-3.53c0.29-0.01,0.59-0.02,0.89-0.02
							h6.38v-6.86l-0.41-0.41h-5.97c-0.3,0-0.59,0.01-0.89,0.02c-2.48,0.09-4.88,0.54-7.19,1.35c-2.58,0.91-4.9,2.18-6.94,3.8
							c-2.16,1.83-3.85,3.98-5.09,6.46c-1.24,2.48-1.86,5.06-1.86,7.75s0.62,5.25,1.86,7.67c1.24,2.42,2.93,4.55,5.09,6.38
							c3.98,3.37,8.69,5.15,14.13,5.32c0.29,0.01,0.59,0.01,0.89,0.01h4.73l1.65-1.64v-5.63h-6.38c-0.3,0-0.6-0.01-0.89-0.02
							c-3.71-0.16-6.86-1.33-9.45-3.53c-2.8-2.37-4.2-5.23-4.2-8.56C235.09,232.49,236.49,229.64,239.29,227.27z"/>
					</g>
				</g>
			</g>
		</g>
	</g>
</g>
</svg>
