<svg width="40" height="40" viewBox="0 0 40 40" fill="none" xmlns="http://www.w3.org/2000/svg">
<circle cx="20" cy="20" r="20" fill="#72BF65"/>
<path d="M33.063 22.8785V8.89158L32.8517 8.85755C28.253 8.10875 22.5834 6.17064 20.285 3.5275L20.1147 3.33301L19.92 3.50902C17.569 5.68928 12.5604 7.56709 7.1615 8.29255L6.94442 8.32172V22.859C6.94442 22.9378 6.41679 30.7272 12.7298 33.1574C19.2171 36.3081 19.7525 36.5707 19.7525 36.5717L19.8694 36.6281L19.9842 36.5668C20.0056 36.5551 20.5897 36.2439 27.0673 33.1632C33.3959 30.7262 33.0669 22.9465 33.063 22.8785ZM26.8697 32.7052C21.6129 35.2015 20.2208 35.8861 19.8606 36.066C19.5062 35.8929 18.1132 35.2151 12.9323 32.6974C6.9522 30.3946 7.44284 22.9728 7.44868 22.8755V8.75836C12.723 8.01831 17.6167 6.19009 20.0748 4.04679C22.6633 6.81538 28.5441 8.60082 32.5587 9.31655V22.8911C32.5607 22.966 32.8731 30.3936 26.8697 32.7052Z" fill="white"/>
<path d="M32.058 22.7058V9.98991C27.0358 9.23528 22.1343 7.21062 20.0578 4.82227C17.6923 7.01711 13.0371 8.49524 8.01584 9.11762L7.95256 22.7058C7.95256 22.7058 7.66538 29.7707 13.4177 31.986C19.4144 34.9033 19.7746 35.1387 19.7746 35.1387C19.7746 35.1387 20.3586 34.9043 26.5072 31.986C32.2595 29.7707 32.058 22.7058 32.058 22.7058ZM20.0997 30.2336C18.0695 30.2338 16.0849 29.6326 14.3968 28.506C12.7087 27.3795 11.393 25.7781 10.6159 23.9045C9.83888 22.031 9.63547 19.9693 10.0314 17.9802C10.4274 15.9911 11.4049 14.164 12.8403 12.7299C14.2758 11.2958 16.1047 10.3192 18.0959 9.92347C20.087 9.52775 22.1509 9.73075 24.0265 10.5068C25.9022 11.2828 27.5053 12.5971 28.6332 14.2833C29.7611 15.9695 30.3631 17.952 30.3631 19.98C30.3631 22.6992 29.2818 25.3071 27.3571 27.23C25.4324 29.1529 22.8218 30.2333 20.0997 30.2336Z" fill="white"/>
<path d="M20.0059 10.749C18.1781 10.7488 16.3913 11.2901 14.8714 12.3044C13.3515 13.3187 12.1669 14.7605 11.4673 16.4474C10.7677 18.1342 10.5847 19.9905 10.9412 21.7813C11.2977 23.5722 12.1779 25.2172 13.4704 26.5083C14.7629 27.7994 16.4096 28.6786 18.2023 29.0348C19.995 29.391 21.8532 29.2081 23.5419 28.5092C25.2306 27.8104 26.6738 26.627 27.6892 25.1087C28.7046 23.5905 29.2464 21.8055 29.2462 19.9796C29.2442 17.5321 28.27 15.1855 26.5375 13.4549C24.8051 11.7242 22.456 10.7511 20.0059 10.749ZM20.0059 28.7094C18.2775 28.7094 16.5879 28.1974 15.1508 27.2381C13.7137 26.2789 12.5936 24.9155 11.9322 23.3203C11.2707 21.7252 11.0977 19.9699 11.4349 18.2765C11.7721 16.5831 12.6044 15.0276 13.8266 13.8067C15.0487 12.5858 16.6059 11.7544 18.301 11.4176C19.9962 11.0807 21.7534 11.2536 23.3502 11.9144C24.947 12.5751 26.3119 13.694 27.2721 15.1296C28.2324 16.5652 28.7449 18.253 28.7449 19.9796C28.7423 22.2941 27.8208 24.513 26.1825 26.1496C24.5442 27.7862 22.3229 28.7068 20.0059 28.7094Z" fill="white"/>
<path d="M19.3271 17.6681H19.2405V20.0205H19.3271H19.9472V17.6681H19.3271ZM19.3271 17.6681H19.2405V20.0205H19.3271H19.9472V17.6681H19.3271ZM15.6074 13.3027V15.5656C15.7744 15.2745 16.0393 15.0519 16.3551 14.9374C16.5685 14.8555 16.7951 14.813 17.0238 14.812H19.2405V23.1061C19.2382 23.3385 19.1957 23.5688 19.1149 23.7868C19.0523 23.9446 18.9674 24.0926 18.8628 24.2264C18.752 24.3476 18.6253 24.4533 18.486 24.5405H21.5038C21.3643 24.4533 21.2372 24.3477 21.1261 24.2264C21.0208 24.0918 20.9338 23.944 20.8672 23.7868C20.7812 23.5705 20.7411 23.3387 20.7494 23.1061V14.812H22.965C23.191 14.8145 23.4148 14.857 23.626 14.9374C23.7843 14.9988 23.9326 15.0834 24.066 15.1883C24.1882 15.2986 24.2941 15.4256 24.3805 15.5656V13.3027H15.6074ZM23.6747 14.1945C23.4447 14.1281 23.2063 14.0953 22.967 14.0972H20.0446V16.5585L20.2616 16.7754L20.176 16.86L20.0786 16.9572L20.0407 16.9952V20.5689L20.1984 20.7275L20.2578 20.7858L20.0446 21.0066V23.1216C20.0439 23.2429 20.0543 23.364 20.0757 23.4834C20.0971 23.5982 20.1234 23.7129 20.1546 23.8286H19.8499L19.9131 23.4834C19.9341 23.364 19.9445 23.2429 19.9443 23.1216V21.0085L19.7603 20.8257L19.7253 20.7897L19.7837 20.7313L19.9443 20.5719V17.001L19.81 16.8668L19.7253 16.7822L19.9443 16.5634V14.104H17.0268C16.7872 14.1036 16.5487 14.1364 16.3181 14.2013V14.0136H23.6776L23.6747 14.1945ZM19.3271 17.6642H19.2405V20.0166H19.3271H19.9472V17.6681L19.3271 17.6642Z" fill="white"/>
<path d="M18.3206 18.0137C18.5792 17.7981 18.9037 17.677 19.2406 17.6704H19.3272H19.9473V17.0033L19.9074 16.9634H19.3233H19.2367C18.7366 16.9805 18.2549 17.1559 17.8611 17.4643C17.6546 17.6375 17.486 17.8514 17.3656 18.0925C17.2466 18.3263 17.1846 18.5848 17.1846 18.8471C17.184 19.1067 17.2461 19.3625 17.3656 19.593C17.4875 19.8309 17.656 20.0419 17.8611 20.2134C18.2457 20.54 18.732 20.7228 19.2367 20.7308H19.7838L19.9444 20.5713V20.0296H19.3233H19.2367C18.8998 20.0235 18.5751 19.9024 18.3167 19.6863C18.1894 19.5879 18.0863 19.4617 18.0154 19.3173C17.9445 19.1729 17.9077 19.0142 17.9077 18.8534C17.9077 18.6926 17.9445 18.5339 18.0154 18.3895C18.0863 18.2452 18.1894 18.1189 18.3167 18.0205L18.3206 18.0137ZM18.3206 18.0137C18.5792 17.7981 18.9037 17.677 19.2406 17.6704H19.3272H19.9473V17.0033L19.9074 16.9634H19.3233H19.2367C18.7366 16.9805 18.2549 17.1559 17.8611 17.4643C17.6546 17.6375 17.486 17.8514 17.3656 18.0925C17.2466 18.3263 17.1846 18.5848 17.1846 18.8471C17.184 19.1067 17.2461 19.3625 17.3656 19.593C17.4875 19.8309 17.656 20.0419 17.8611 20.2134C18.2457 20.54 18.732 20.7228 19.2367 20.7308H19.7838L19.9444 20.5713V20.0296H19.3233H19.2367C18.8998 20.0235 18.5751 19.9024 18.3167 19.6863C18.1894 19.5879 18.0863 19.4617 18.0154 19.3173C17.9445 19.1729 17.9077 19.0142 17.9077 18.8534C17.9077 18.6926 17.9445 18.5339 18.0154 18.3895C18.0863 18.2452 18.1894 18.1189 18.3167 18.0205L18.3206 18.0137ZM24.0447 22.2711C23.8268 21.8097 23.5163 21.398 23.1325 21.0614C22.7529 20.7249 22.3125 20.4638 21.8349 20.2922C21.4854 20.1644 21.1209 20.0817 20.7504 20.0461C20.6025 20.0316 20.4535 20.0247 20.3017 20.0247H19.3282H19.2415C18.9046 20.0187 18.58 19.8975 18.3216 19.6815C18.1943 19.5831 18.0912 19.4568 18.0203 19.3124C17.9494 19.1681 17.9125 19.0094 17.9125 18.8486C17.9125 18.6877 17.9494 18.5291 18.0203 18.3847C18.0912 18.2403 18.1943 18.1141 18.3216 18.0156C18.5802 17.8 18.9047 17.6789 19.2415 17.6724H19.3282H20.3659C20.4969 17.6716 20.6276 17.686 20.7553 17.7152C20.8783 17.7429 20.9971 17.7867 21.1087 17.8455C21.3177 17.9504 21.4963 18.1071 21.6275 18.3006C21.6679 18.3669 21.6898 18.4428 21.6908 18.5204C21.6915 18.5814 21.675 18.6414 21.6431 18.6935C21.6084 18.7542 21.5609 18.8068 21.504 18.8476C21.447 18.8884 21.3819 18.9164 21.3131 18.9298H23.6563C23.447 18.8772 23.3263 18.7664 23.2951 18.5991C23.2309 17.9468 22.917 17.3445 22.419 16.9177C21.9589 16.5047 21.3794 16.2483 20.7641 16.1855C20.6348 16.1707 20.5048 16.1636 20.3747 16.1641H19.2406C18.5177 16.1678 17.8213 16.4359 17.2829 16.9177C17.0011 17.155 16.7749 17.451 16.62 17.785C16.4651 18.119 16.3853 18.4829 16.3863 18.851C16.3863 19.605 16.6852 20.2491 17.2829 20.7833C17.8214 21.2648 18.5178 21.5325 19.2406 21.5359H20.3017C20.4519 21.5359 20.6019 21.5472 20.7504 21.57C21.2438 21.647 21.7078 21.8537 22.0948 22.169C22.3223 22.3587 22.5071 22.5944 22.637 22.8604C22.7664 23.1231 22.8337 23.4118 22.8337 23.7045C22.8337 23.9972 22.7664 24.286 22.637 24.5486C22.5055 24.8107 22.3209 25.0425 22.0948 25.2293C21.8536 25.4295 21.5796 25.5864 21.2849 25.6932C20.9701 25.8089 20.6371 25.8672 20.3017 25.8653H19.8772C19.5421 25.8672 19.2094 25.8089 18.895 25.6932C18.6001 25.5866 18.3261 25.4297 18.085 25.2293C17.859 25.0425 17.6743 24.8107 17.5428 24.5486C17.4118 24.2853 17.345 23.9947 17.3481 23.7006C17.3477 23.6403 17.3503 23.5799 17.3559 23.5198C17.3559 23.4624 17.3685 23.4021 17.3793 23.3399C17.4205 23.2073 17.5065 23.0932 17.6226 23.017C17.7168 22.956 17.8204 22.911 17.9293 22.8838C17.9602 22.8717 17.9934 22.8664 18.0266 22.8682L15.6367 21.8316C15.7649 21.9929 15.856 22.1805 15.9035 22.381C15.9142 22.4906 15.9194 22.6006 15.919 22.7107C15.9192 22.8156 15.914 22.9204 15.9035 23.0248C15.8531 23.2466 15.8267 23.4732 15.8246 23.7006C15.8232 24.197 15.9308 24.6877 16.14 25.1379C16.3535 25.5998 16.6647 26.0098 17.0522 26.3399C17.4328 26.6767 17.8724 26.9404 18.3488 27.1179C18.8391 27.3015 19.3585 27.3947 19.8821 27.3931H20.3065C20.8301 27.3947 21.3495 27.3015 21.8398 27.1179C22.3165 26.9404 22.7564 26.6767 23.1374 26.3399C23.5246 26.0096 23.8358 25.5996 24.0496 25.1379C24.258 24.6875 24.3653 24.1969 24.364 23.7006C24.3643 23.2065 24.2553 22.7183 24.0447 22.2711ZM23.4003 24.8472C23.2291 25.2184 22.9762 25.5461 22.6604 25.806C22.3459 26.0891 21.9806 26.3102 21.5837 26.4576C21.1739 26.6111 20.7394 26.6886 20.3017 26.6861H19.8772C19.4425 26.6872 19.0111 26.6098 18.6039 26.4576C18.2038 26.3114 17.8354 26.0903 17.5185 25.806C17.21 25.5413 16.9609 25.2145 16.7874 24.8472C16.6161 24.4892 16.5276 24.0974 16.5284 23.7006C16.5268 23.6113 16.5307 23.522 16.5401 23.4332C16.5492 23.3434 16.5648 23.2543 16.5868 23.1668V23.1347C16.5999 23.0996 16.6052 23.0621 16.6024 23.0248L16.7124 23.0724C16.7133 23.0809 16.7123 23.0894 16.7096 23.0974C16.7069 23.1055 16.7026 23.1129 16.6968 23.1191V23.1668L16.6813 23.1979C16.6513 23.3638 16.6357 23.532 16.6345 23.7006C16.6321 24.0901 16.7207 24.4747 16.8935 24.8238C17.0634 25.1713 17.3014 25.4811 17.5934 25.735C18.2275 26.2798 19.0369 26.5781 19.8733 26.5752H20.2978C20.7301 26.5784 21.1592 26.5012 21.5633 26.3477C21.9399 26.2054 22.2886 25.998 22.5932 25.735C22.8852 25.4811 23.1232 25.1713 23.2932 24.8238C23.4635 24.4739 23.5521 24.0898 23.5521 23.7006C23.5521 23.3115 23.4635 22.9274 23.2932 22.5775C23.123 22.2302 22.885 21.9204 22.5932 21.6663C22.2886 21.4032 21.9399 21.1959 21.5633 21.0536C21.3002 20.9527 21.0255 20.885 20.7456 20.8523C20.5966 20.8346 20.4468 20.8259 20.2968 20.8261H20.2199L19.9901 21.0556L19.9434 21.0089L19.7594 20.8261H19.3223H19.2357C18.9727 20.8193 18.7126 20.7697 18.4657 20.6792C18.2021 20.5814 17.9594 20.435 17.7502 20.2474C17.5433 20.076 17.3768 19.8611 17.2626 19.618C17.1483 19.375 17.089 19.1098 17.089 18.8413C17.089 18.5728 17.1483 18.3075 17.2626 18.0645C17.3768 17.8215 17.5433 17.6066 17.7502 17.4351C18.1612 17.0746 18.6887 16.8743 19.2357 16.8711H19.3223H19.8091L19.7244 16.7865L19.9434 16.5677L19.9901 16.521L20.2549 16.7865L20.1693 16.8711H20.364C20.4943 16.8708 20.6244 16.8802 20.7534 16.8993C21.1929 16.9592 21.6054 17.1461 21.94 17.437C22.1805 17.6503 22.3642 17.92 22.4745 18.2218H22.3489C22.3192 18.1303 22.2824 18.0412 22.2389 17.9554L22.2233 17.9398V17.9233C22.0329 17.6184 21.7603 17.3734 21.4367 17.2163C21.2222 17.1085 20.9924 17.0344 20.7553 16.9965C20.6266 16.9756 20.4963 16.9652 20.3659 16.9654H20.0816L19.996 17.0519L19.9093 16.9654H19.3252H19.2386C18.7385 16.9824 18.2568 17.1578 17.8631 17.4662C17.6566 17.6395 17.4879 17.8533 17.3676 18.0944C17.2486 18.3282 17.1865 18.5868 17.1865 18.849C17.186 19.1086 17.2481 19.3645 17.3676 19.5949C17.4894 19.8328 17.6579 20.0438 17.8631 20.2154C18.2477 20.5419 18.7339 20.7248 19.2386 20.7327H19.7857L19.9463 20.5732L19.9931 20.5265L20.0408 20.5742L20.1985 20.7327H20.2958C20.4458 20.7327 20.5956 20.7412 20.7446 20.758C21.0291 20.7894 21.3089 20.8547 21.5779 20.9525C21.9753 21.0956 22.341 21.3145 22.6546 21.5972C23.3159 22.1729 23.6462 22.8744 23.6456 23.7016C23.648 24.0967 23.5643 24.4876 23.4003 24.8472ZM18.3206 18.0137C18.5792 17.7981 18.9037 17.677 19.2406 17.6704H19.3272H19.9473V17.0033L19.9074 16.9634H19.3233H19.2367C18.7366 16.9805 18.2549 17.1559 17.8611 17.4643C17.6546 17.6375 17.486 17.8514 17.3656 18.0925C17.2466 18.3263 17.1846 18.5848 17.1846 18.8471C17.184 19.1067 17.2461 19.3625 17.3656 19.593C17.4875 19.8309 17.656 20.0419 17.8611 20.2134C18.2457 20.54 18.732 20.7228 19.2367 20.7308H19.7838L19.9444 20.5713V20.0296H19.3233H19.2367C18.8998 20.0235 18.5751 19.9024 18.3167 19.6863C18.1894 19.5879 18.0863 19.4617 18.0154 19.3173C17.9445 19.1729 17.9077 19.0142 17.9077 18.8534C17.9077 18.6926 17.9445 18.5339 18.0154 18.3895C18.0863 18.2452 18.1894 18.1189 18.3167 18.0205L18.3206 18.0137Z" fill="white"/>
</svg>
