<svg width="56" height="57" viewBox="0 0 56 57" fill="none" xmlns="http://www.w3.org/2000/svg">
<circle cx="28" cy="28.5" r="28" fill="#72BF65"/>
<path d="M46.2882 32.5306V12.949L45.9924 12.9013C39.5542 11.853 31.6168 9.13968 28.399 5.43928L28.1605 5.16699L27.888 5.41341C24.5966 8.46577 17.5846 11.0947 10.0261 12.1103L9.72218 12.1512V32.5034C9.72218 32.6137 8.9835 43.5188 17.8218 46.9211C26.904 51.3321 27.6536 51.6997 27.6536 51.7011L27.8171 51.7801L27.9779 51.6943C28.0079 51.678 28.8256 51.2423 37.8942 46.9292C46.7543 43.5175 46.2936 32.6259 46.2882 32.5306ZM37.6175 46.288C30.258 49.7828 28.3091 50.7413 27.8048 50.9931C27.3087 50.7508 25.3585 49.8019 18.1052 46.2771C9.73309 43.0532 10.42 32.6627 10.4282 32.5265V12.7625C17.8122 11.7264 24.6634 9.16691 28.1047 6.16629C31.7286 10.0423 39.9617 12.5419 45.5822 13.5439V32.5483C45.5849 32.6532 46.0224 43.0519 37.6175 46.288Z" fill="white"/>
<path d="M44.8817 32.2879V14.4857C37.8507 13.4292 30.9886 10.5947 28.0816 7.25098C24.7698 10.3238 18.2525 12.3931 11.2228 13.2645L11.1342 32.2879C11.1342 32.2879 10.7321 42.1788 18.7854 45.2802C27.1807 49.3645 27.685 49.6939 27.685 49.6939C27.685 49.6939 28.5027 49.3658 37.1106 45.2802C45.1639 42.1788 44.8817 32.2879 44.8817 32.2879ZM28.1402 42.8268C25.2979 42.8271 22.5195 41.9854 20.1561 40.4082C17.7928 38.831 15.9507 36.5892 14.8629 33.9662C13.775 31.3431 13.4902 28.4568 14.0446 25.6721C14.5989 22.8874 15.9674 20.3294 17.9771 18.3217C19.9867 16.314 22.5472 14.9467 25.3348 14.3927C28.1224 13.8387 31.0118 14.1229 33.6377 15.2093C36.2636 16.2958 38.508 18.1357 40.0871 20.4964C41.6661 22.8571 42.509 25.6326 42.509 28.4718C42.509 32.2787 40.9952 35.9298 38.3005 38.6219C35.6059 41.3139 31.9511 42.8265 28.1402 42.8268Z" fill="white"/>
<path d="M28.0075 15.5488C25.4486 15.5486 22.947 16.3064 20.8192 17.7264C18.6913 19.1464 17.0329 21.1649 16.0535 23.5265C15.0741 25.8881 14.8177 28.4869 15.3169 30.994C15.8161 33.5012 17.0483 35.8042 18.8578 37.6118C20.6672 39.4193 22.9726 40.6503 25.4825 41.1489C27.9923 41.6475 30.5937 41.3915 32.9579 40.4131C35.322 39.4348 37.3426 37.778 38.7641 35.6524C40.1856 33.5269 40.9442 31.0279 40.944 28.4716C40.9411 25.0452 39.5772 21.7599 37.1518 19.337C34.7264 16.9141 31.4376 15.5517 28.0075 15.5488ZM28.0075 40.6933C25.5878 40.6933 23.2223 39.9765 21.2104 38.6336C19.1984 37.2907 17.6303 35.3819 16.7043 33.1487C15.7783 30.9155 15.536 28.4581 16.0081 26.0873C16.4801 23.7165 17.6454 21.5388 19.3564 19.8296C21.0674 18.1204 23.2474 16.9564 25.6207 16.4848C27.994 16.0132 30.4539 16.2553 32.6895 17.1803C34.9251 18.1053 36.8358 19.6718 38.1802 21.6816C39.5245 23.6915 40.2421 26.0544 40.2421 28.4716C40.2385 31.7119 38.9483 34.8185 36.6547 37.1097C34.361 39.4009 31.2512 40.6897 28.0075 40.6933Z" fill="white"/>
<path d="M27.0581 25.2355H26.9368V28.5289H27.0581H27.9263V25.2355H27.0581ZM27.0581 25.2355H26.9368V28.5289H27.0581H27.9263V25.2355H27.0581ZM21.8506 19.124V22.2921C22.0844 21.8845 22.4552 21.5729 22.8973 21.4126C23.1962 21.2979 23.5134 21.2384 23.8336 21.237H26.9368V32.8487C26.9336 33.1741 26.8741 33.4965 26.761 33.8017C26.6734 34.0226 26.5545 34.2299 26.408 34.4171C26.253 34.5869 26.0756 34.7348 25.8806 34.8568H30.1055C29.9101 34.7349 29.7323 34.5869 29.5767 34.4171C29.4294 34.2288 29.3075 34.0219 29.2142 33.8017C29.0939 33.4989 29.0378 33.1744 29.0493 32.8487V21.237H32.1512C32.4676 21.2405 32.7809 21.3 33.0766 21.4126C33.2982 21.4986 33.5058 21.6169 33.6926 21.7639C33.8637 21.9182 34.0119 22.096 34.1328 22.2921V19.124H21.8506ZM33.1448 20.3725C32.8228 20.2795 32.4891 20.2336 32.1539 20.2363H28.0626V23.6821L28.3665 23.9857L28.2466 24.1042L28.1103 24.2403L28.0571 24.2934V29.2967L28.2779 29.5186L28.3611 29.6003L28.0626 29.9094V32.8705C28.0616 33.0403 28.0762 33.2098 28.1062 33.377C28.1362 33.5376 28.173 33.6983 28.2166 33.8603H27.79L27.8786 33.377C27.9079 33.2097 27.9225 33.0403 27.9222 32.8705V29.9121L27.6646 29.6561L27.6156 29.6058L27.6973 29.5241L27.9222 29.3008V24.3016L27.7341 24.1137L27.6156 23.9953L27.9222 23.6889V20.2459H23.8377C23.5022 20.2453 23.1683 20.2911 22.8455 20.382V20.1192H33.1488L33.1448 20.3725ZM27.0581 25.2301H26.9368V28.5234H27.0581H27.9263V25.2355L27.0581 25.2301Z" fill="white"/>
<path d="M25.6481 25.7194C26.0102 25.4175 26.4645 25.248 26.936 25.2388H27.0573H27.9254V24.3048L27.8696 24.249H27.0518H26.9305C26.2305 24.2729 25.5561 24.5184 25.0048 24.9502C24.7157 25.1928 24.4796 25.4921 24.3111 25.8297C24.1445 26.157 24.0576 26.5189 24.0576 26.8861C24.0568 27.2495 24.1438 27.6077 24.3111 27.9304C24.4817 28.2635 24.7176 28.5589 25.0048 28.799C25.5432 29.2561 26.224 29.5122 26.9305 29.5233H27.6965L27.9214 29.3V28.5416H27.0518H26.9305C26.4589 28.5331 26.0044 28.3635 25.6426 28.0611C25.4644 27.9233 25.3201 27.7465 25.2208 27.5444C25.1216 27.3423 25.0699 27.1201 25.0699 26.895C25.0699 26.6698 25.1216 26.4477 25.2208 26.2456C25.3201 26.0434 25.4644 25.8667 25.6426 25.7289L25.6481 25.7194ZM25.6481 25.7194C26.0102 25.4175 26.4645 25.248 26.936 25.2388H27.0573H27.9254V24.3048L27.8696 24.249H27.0518H26.9305C26.2305 24.2729 25.5561 24.5184 25.0048 24.9502C24.7157 25.1928 24.4796 25.4921 24.3111 25.8297C24.1445 26.157 24.0576 26.5189 24.0576 26.8861C24.0568 27.2495 24.1438 27.6077 24.3111 27.9304C24.4817 28.2635 24.7176 28.5589 25.0048 28.799C25.5432 29.2561 26.224 29.5122 26.9305 29.5233H27.6965L27.9214 29.3V28.5416H27.0518H26.9305C26.4589 28.5331 26.0044 28.3635 25.6426 28.0611C25.4644 27.9233 25.3201 27.7465 25.2208 27.5444C25.1216 27.3423 25.0699 27.1201 25.0699 26.895C25.0699 26.6698 25.1216 26.4477 25.2208 26.2456C25.3201 26.0434 25.4644 25.8667 25.6426 25.7289L25.6481 25.7194ZM33.6618 31.6798C33.3568 31.0338 32.9221 30.4573 32.3848 29.9861C31.8533 29.515 31.2367 29.1496 30.5681 28.9092C30.0787 28.7304 29.5685 28.6146 29.0498 28.5648C28.8427 28.5444 28.6341 28.5348 28.4215 28.5348H27.0587H26.9374C26.4657 28.5263 26.0112 28.3567 25.6494 28.0543C25.4712 27.9165 25.3269 27.7397 25.2276 27.5376C25.1284 27.3355 25.0768 27.1133 25.0768 26.8882C25.0768 26.663 25.1284 26.4409 25.2276 26.2388C25.3269 26.0366 25.4712 25.8599 25.6494 25.7221C26.0115 25.4202 26.4658 25.2507 26.9374 25.2415H27.0587H28.5115C28.6949 25.2404 28.8778 25.2605 29.0566 25.3014C29.2288 25.3403 29.3952 25.4016 29.5514 25.4838C29.844 25.6308 30.0941 25.8501 30.2778 26.121C30.3343 26.2138 30.3649 26.3201 30.3664 26.4287C30.3673 26.5141 30.3442 26.5981 30.2996 26.671C30.251 26.7561 30.1845 26.8298 30.1048 26.8869C30.025 26.944 29.9339 26.9832 29.8376 27.0019H33.118C32.825 26.9283 32.656 26.7731 32.6124 26.539C32.5225 25.6257 32.0831 24.7824 31.3858 24.185C30.7417 23.6068 29.9304 23.2479 29.0689 23.1599C28.8879 23.1392 28.7059 23.1292 28.5238 23.1299H26.936C25.924 23.1351 24.949 23.5105 24.1953 24.185C23.8008 24.5172 23.484 24.9316 23.2672 25.3992C23.0503 25.8668 22.9386 26.3762 22.94 26.8916C22.94 27.9472 23.3584 28.8489 24.1953 29.5968C24.9492 30.2709 25.9242 30.6457 26.936 30.6505H28.4215C28.6319 30.6504 28.8419 30.6663 29.0498 30.6982C29.7406 30.806 30.3902 31.0954 30.932 31.5368C31.2505 31.8024 31.5092 32.1323 31.6911 32.5048C31.8722 32.8725 31.9664 33.2768 31.9664 33.6865C31.9664 34.0963 31.8722 34.5006 31.6911 34.8683C31.507 35.2351 31.2485 35.5597 30.932 35.8213C30.5943 36.1015 30.2107 36.3212 29.798 36.4707C29.3574 36.6327 28.8911 36.7143 28.4215 36.7117H27.8273C27.3582 36.7143 26.8924 36.6327 26.4522 36.4707C26.0394 36.3215 25.6557 36.1017 25.3183 35.8213C25.0018 35.5597 24.7432 35.2351 24.5591 34.8683C24.3757 34.4996 24.2823 34.0928 24.2866 33.6811C24.286 33.5966 24.2896 33.512 24.2975 33.4279C24.2975 33.3475 24.3152 33.2631 24.3302 33.176C24.3879 32.9905 24.5083 32.8307 24.6709 32.724C24.8027 32.6386 24.9478 32.5756 25.1002 32.5375C25.1436 32.5206 25.19 32.5132 25.2365 32.5157L21.8906 31.0644C22.0701 31.2903 22.1976 31.5529 22.2641 31.8336C22.2791 31.987 22.2864 32.141 22.2859 32.2951C22.2861 32.442 22.2788 32.5888 22.2641 32.7349C22.1936 33.0455 22.1566 33.3627 22.1537 33.6811C22.1516 34.376 22.3024 35.0629 22.5952 35.6933C22.8941 36.3399 23.3298 36.914 23.8722 37.3761C24.4052 37.8475 25.0206 38.2167 25.6876 38.4652C26.3739 38.7222 27.1012 38.8528 27.8341 38.8505H28.4283C29.1613 38.8528 29.8886 38.7222 30.5749 38.4652C31.2423 38.2168 31.8582 37.8475 32.3916 37.3761C32.9337 36.9136 33.3693 36.3396 33.6686 35.6933C33.9605 35.0626 34.1107 34.3759 34.1088 33.6811C34.1092 32.9892 33.9566 32.3058 33.6618 31.6798ZM32.7596 35.2862C32.5199 35.8059 32.1659 36.2648 31.7238 36.6286C31.2834 37.0249 30.772 37.3344 30.2164 37.5408C29.6427 37.7558 29.0344 37.8642 28.4215 37.8607H27.8273C27.2187 37.8623 26.6147 37.7539 26.0447 37.5408C25.4846 37.3362 24.9688 37.0266 24.5251 36.6286C24.0933 36.258 23.7445 35.8006 23.5015 35.2862C23.2618 34.7851 23.1379 34.2365 23.139 33.6811C23.1368 33.5561 23.1422 33.431 23.1554 33.3067C23.1681 33.1809 23.1899 33.0562 23.2208 32.9337V32.8887C23.239 32.8396 23.2465 32.7871 23.2426 32.7349L23.3966 32.8016C23.3978 32.8134 23.3964 32.8253 23.3927 32.8366C23.3889 32.8479 23.3828 32.8582 23.3748 32.867V32.9337L23.353 32.9772C23.311 33.2095 23.2891 33.445 23.2876 33.6811C23.2841 34.2263 23.4083 34.7648 23.6501 35.2536C23.888 35.74 24.2212 36.1738 24.63 36.5292C25.5178 37.2919 26.6509 37.7095 27.8219 37.7055H28.4161C29.0213 37.71 29.6221 37.6019 30.1878 37.3869C30.7151 37.1878 31.2032 36.8975 31.6297 36.5292C32.0385 36.1738 32.3717 35.74 32.6097 35.2536C32.8482 34.7636 32.9721 34.2259 32.9721 33.6811C32.9721 33.1363 32.8482 32.5986 32.6097 32.1086C32.3714 31.6224 32.0382 31.1887 31.6297 30.833C31.2032 30.4647 30.7151 30.1744 30.1878 29.9752C29.8195 29.8339 29.4349 29.7393 29.043 29.6934C28.8345 29.6687 28.6247 29.6564 28.4147 29.6567H28.3071L27.9854 29.978L27.92 29.9126L27.6624 29.6567H27.0505H26.9292C26.561 29.6473 26.1969 29.5778 25.8511 29.4511C25.4822 29.3142 25.1424 29.1091 24.8494 28.8466C24.5598 28.6066 24.3268 28.3057 24.1668 27.9654C24.0068 27.6252 23.9239 27.2539 23.9239 26.878C23.9239 26.502 24.0068 26.1308 24.1668 25.7905C24.3268 25.4502 24.5598 25.1494 24.8494 24.9093C25.4249 24.4046 26.1634 24.1242 26.9292 24.1197H27.0505H27.7319L27.6133 24.0012L27.92 23.6949L27.9854 23.6296L28.3561 24.0012L28.2362 24.1197H28.5088C28.6912 24.1193 28.8734 24.1325 29.0539 24.1592C29.6693 24.243 30.2468 24.5047 30.7153 24.912C31.052 25.2107 31.3091 25.5882 31.4635 26.0107H31.2877C31.246 25.8826 31.1946 25.7579 31.1337 25.6377L31.1119 25.6159V25.5928C30.8452 25.166 30.4636 24.8229 30.0106 24.603C29.7104 24.4521 29.3886 24.3483 29.0566 24.2953C28.8764 24.266 28.6941 24.2514 28.5115 24.2517H28.1135L27.9936 24.3729L27.8723 24.2517H27.0546H26.9333C26.2332 24.2756 25.5588 24.5211 25.0075 24.9529C24.7184 25.1955 24.4823 25.4948 24.3138 25.8324C24.1472 26.1597 24.0603 26.5217 24.0603 26.8889C24.0596 27.2522 24.1465 27.6104 24.3138 27.9331C24.4844 28.2662 24.7203 28.5616 25.0075 28.8017C25.546 29.2589 26.2267 29.5149 26.9333 29.526H27.6992L27.9241 29.3027L27.9895 29.2373L28.0563 29.3041L28.2771 29.526H28.4134C28.6233 29.526 28.833 29.5379 29.0416 29.5614C29.44 29.6054 29.8316 29.6968 30.2083 29.8337C30.7646 30.034 31.2766 30.3405 31.7156 30.7363C32.6415 31.5423 33.1039 32.5243 33.103 33.6825C33.1064 34.2356 32.9892 34.7829 32.7596 35.2862ZM25.6481 25.7194C26.0102 25.4175 26.4645 25.248 26.936 25.2388H27.0573H27.9254V24.3048L27.8696 24.249H27.0518H26.9305C26.2305 24.2729 25.5561 24.5184 25.0048 24.9502C24.7157 25.1928 24.4796 25.4921 24.3111 25.8297C24.1445 26.157 24.0576 26.5189 24.0576 26.8861C24.0568 27.2495 24.1438 27.6077 24.3111 27.9304C24.4817 28.2635 24.7176 28.5589 25.0048 28.799C25.5432 29.2561 26.224 29.5122 26.9305 29.5233H27.6965L27.9214 29.3V28.5416H27.0518H26.9305C26.4589 28.5331 26.0044 28.3635 25.6426 28.0611C25.4644 27.9233 25.3201 27.7465 25.2208 27.5444C25.1216 27.3423 25.0699 27.1201 25.0699 26.895C25.0699 26.6698 25.1216 26.4477 25.2208 26.2456C25.3201 26.0434 25.4644 25.8667 25.6426 25.7289L25.6481 25.7194Z" fill="white"/>
</svg>
