<svg width="13" height="13" viewBox="0 0 13 13" fill="none" xmlns="http://www.w3.org/2000/svg">
<path d="M5.875 10.25H7.125V9H5.875V10.25ZM6.5 0.25C3.05 0.25 0.25 3.05 0.25 6.5C0.25 9.95 3.05 12.75 6.5 12.75C9.95 12.75 12.75 9.95 12.75 6.5C12.75 3.05 9.95 0.25 6.5 0.25ZM6.5 11.5C3.74375 11.5 1.5 9.25625 1.5 6.5C1.5 3.74375 3.74375 1.5 6.5 1.5C9.25625 1.5 11.5 3.74375 11.5 6.5C11.5 9.25625 9.25625 11.5 6.5 11.5ZM6.5 2.75C5.11875 2.75 4 3.86875 4 5.25H5.25C5.25 4.5625 5.8125 4 6.5 4C7.1875 4 7.75 4.5625 7.75 5.25C7.75 6.5 5.875 6.34375 5.875 8.375H7.125C7.125 6.96875 9 6.8125 9 5.25C9 3.86875 7.88125 2.75 6.5 2.75Z" fill="white" fill-opacity="0.87"/>
</svg>
