<svg width="28" height="28" viewBox="0 0 28 28" fill="none" xmlns="http://www.w3.org/2000/svg">
<path d="M18.0836 16.3333H17.1619L16.8352 16.0183C18.2352 14.385 18.9586 12.1567 18.5619 9.78833C18.0136 6.545 15.3069 3.955 12.0402 3.55833C7.10524 2.95166 2.95191 7.105 3.55857 12.04C3.95524 15.3067 6.54524 18.0133 9.78858 18.5617C12.1569 18.9583 14.3852 18.235 16.0186 16.835L16.3336 17.1617V18.0833L21.2919 23.0417C21.7702 23.52 22.5519 23.52 23.0302 23.0417C23.5086 22.5633 23.5086 21.7817 23.0302 21.3033L18.0836 16.3333ZM11.0836 16.3333C8.17858 16.3333 5.83358 13.9883 5.83358 11.0833C5.83358 8.17833 8.17858 5.83333 11.0836 5.83333C13.9886 5.83333 16.3336 8.17833 16.3336 11.0833C16.3336 13.9883 13.9886 16.3333 11.0836 16.3333Z" fill="white" fill-opacity="0.87"/>
</svg>
