<svg width="28" height="28" viewBox="0 0 28 28" fill="none" xmlns="http://www.w3.org/2000/svg">
<path d="M18.0831 16.3333H17.1614L16.8348 16.0183C18.2348 14.385 18.9581 12.1567 18.5614 9.78833C18.0131 6.545 15.3064 3.955 12.0398 3.55833C7.10475 2.95166 2.95142 7.105 3.55809 12.04C3.95475 15.3067 6.54475 18.0133 9.78809 18.5617C12.1564 18.9583 14.3848 18.235 16.0181 16.835L16.3331 17.1617V18.0833L21.2914 23.0417C21.7698 23.52 22.5514 23.52 23.0298 23.0417C23.5081 22.5633 23.5081 21.7817 23.0298 21.3033L18.0831 16.3333ZM11.0831 16.3333C8.17809 16.3333 5.83309 13.9883 5.83309 11.0833C5.83309 8.17833 8.17809 5.83333 11.0831 5.83333C13.9881 5.83333 16.3331 8.17833 16.3331 11.0833C16.3331 13.9883 13.9881 16.3333 11.0831 16.3333Z" fill="#001C4E" fill-opacity="0.6"/>
</svg>
