<svg width="28" height="28" viewBox="0 0 28 28" fill="none" xmlns="http://www.w3.org/2000/svg">
<path d="M14.0003 0.666992C6.64033 0.666992 0.666992 6.64033 0.666992 14.0003C0.666992 21.3603 6.64033 27.3337 14.0003 27.3337C21.3603 27.3337 27.3337 21.3603 27.3337 14.0003C27.3337 6.64033 21.3603 0.666992 14.0003 0.666992ZM14.0003 24.667C8.12033 24.667 3.33366 19.8803 3.33366 14.0003C3.33366 8.12033 8.12033 3.33366 14.0003 3.33366C19.8803 3.33366 24.667 8.12033 24.667 14.0003C24.667 19.8803 19.8803 24.667 14.0003 24.667ZM19.1737 9.05366L11.3337 16.8937L8.82699 14.387C8.30699 13.867 7.46699 13.867 6.94699 14.387C6.42699 14.907 6.42699 15.747 6.94699 16.267L10.4003 19.7203C10.9203 20.2403 11.7603 20.2403 12.2803 19.7203L21.067 10.9337C21.587 10.4137 21.587 9.57366 21.067 9.05366C20.547 8.53366 19.6937 8.53366 19.1737 9.05366Z" fill="#72BF65"/>
</svg>
