<svg width="24" height="20" viewBox="0 0 24 20" fill="none" xmlns="http://www.w3.org/2000/svg">
<path d="M23.6654 5.96366V3.00033C23.6654 1.71699 22.6154 0.666992 21.332 0.666992H2.66536C1.38203 0.666992 0.343698 1.70533 0.343698 3.00033V5.96366C0.343698 6.76866 0.728698 7.56199 1.44036 7.93532C2.17536 8.34366 2.66536 9.11366 2.66536 10.0003C2.66536 10.887 2.1637 11.6687 1.4287 12.0537C0.728698 12.4387 0.332031 13.232 0.332031 14.037V17.0003C0.332031 18.2837 1.38203 19.3337 2.66536 19.3337H21.332C22.6154 19.3337 23.6654 18.2837 23.6654 17.0003V14.037C23.6654 13.232 23.2687 12.4387 22.5687 12.0537C21.8337 11.657 21.332 10.887 21.332 10.0003C21.332 9.11366 21.8337 8.34366 22.5687 7.94699C23.2687 7.56199 23.6654 6.76866 23.6654 5.96366ZM13.1654 16.417H10.832V14.0837H13.1654V16.417ZM13.1654 11.167H10.832V8.83366H13.1654V11.167ZM13.1654 5.91699H10.832V3.58366H13.1654V5.91699Z" fill="#72BF65"/>
</svg>
