<svg width="214" height="56" viewBox="0 0 214 56" fill="none" xmlns="http://www.w3.org/2000/svg">
<rect width="56" height="56" rx="8" fill="#313B3C"/>
<path d="M21.7145 36H25.2184V19.0898H21.7028L17.3317 22.125V25.3125L21.6442 22.3359H21.7145V36ZM33.6058 36H37.1097V19.0898H33.5941L29.223 22.125V25.3125L33.5355 22.3359H33.6058V36Z" fill="white"/>
<path d="M67.5 36.6406C68.5547 36.6406 69.3867 35.7969 69.3867 34.7539C69.3867 33.6992 68.5547 32.8672 67.5 32.8672C66.4453 32.8672 65.6133 33.6992 65.6133 34.7539C65.6133 35.7969 66.4453 36.6406 67.5 36.6406ZM67.5 28.2617C68.5547 28.2617 69.3867 27.418 69.3867 26.375C69.3867 25.3203 68.5547 24.4883 67.5 24.4883C66.4453 24.4883 65.6133 25.3203 65.6133 26.375C65.6133 27.418 66.4453 28.2617 67.5 28.2617Z" fill="white"/>
<rect x="79" width="56" height="56" rx="8" fill="#313B3C"/>
<path d="M93.0739 24.1758V24.2344H96.3552V24.1758C96.3552 22.6172 97.5622 21.4688 99.2028 21.4688C100.773 21.4688 101.886 22.4766 101.886 23.7422C101.886 24.9141 101.359 25.7695 99.6481 27.4805L93.2731 33.6211V36H105.566V33.1875H97.9372V33.1172L102.062 29.1445C103.925 27.293 105.332 25.7109 105.332 23.6016C105.332 20.7773 102.882 18.7148 99.32 18.7148C95.6286 18.7148 93.0739 20.9766 93.0739 24.1758ZM114.621 36.375C118.5 36.375 121.149 33.9375 121.149 30.3516C121.149 27.0586 118.828 24.6797 115.594 24.6797C113.871 24.6797 112.524 25.3945 111.832 26.5312H111.762L112.149 21.9023H120.129V19.0898H109.371L108.539 28.8164H111.703C112.289 27.8438 113.391 27.2578 114.668 27.2578C116.496 27.2578 117.774 28.5703 117.774 30.4453C117.774 32.2852 116.496 33.5742 114.645 33.5742C113.004 33.5742 111.739 32.5898 111.539 31.1602H108.27C108.375 34.2188 110.989 36.375 114.621 36.375Z" fill="white"/>
<path d="M146.5 36.6406C147.555 36.6406 148.387 35.7969 148.387 34.7539C148.387 33.6992 147.555 32.8672 146.5 32.8672C145.445 32.8672 144.613 33.6992 144.613 34.7539C144.613 35.7969 145.445 36.6406 146.5 36.6406ZM146.5 28.2617C147.555 28.2617 148.387 27.418 148.387 26.375C148.387 25.3203 147.555 24.4883 146.5 24.4883C145.445 24.4883 144.613 25.3203 144.613 26.375C144.613 27.418 145.445 28.2617 146.5 28.2617Z" fill="white"/>
<rect x="158" width="56" height="56" rx="8" fill="#313B3C"/>
<path d="M179.515 36H182.879V32.9883H185.082V30.1523H182.879V19.0898H177.886C174.418 24.1992 172.578 27.1641 171.101 29.9766V32.9883H179.515V36ZM174.207 30.1641C175.578 27.5156 177.054 25.207 179.515 21.5977H179.586V30.2578H174.207V30.1641ZM193.926 36.375C198.18 36.375 200.758 32.9648 200.758 27.5039C200.758 22.043 198.157 18.7031 193.926 18.7031C189.696 18.7031 187.082 22.0547 187.082 27.5156C187.082 32.9883 189.672 36.375 193.926 36.375ZM193.926 33.5391C191.91 33.5391 190.68 31.3594 190.68 27.5156C190.68 23.707 191.934 21.5391 193.926 21.5391C195.93 21.5391 197.16 23.6953 197.16 27.5156C197.16 31.3711 195.942 33.5391 193.926 33.5391Z" fill="white"/>
</svg>
