<svg width="226" height="60" viewBox="0 0 226 60" fill="none" xmlns="http://www.w3.org/2000/svg">
<rect width="60" height="60" rx="8" fill="white"/>
<path d="M23.7145 39H27.2184V22.0898H23.7028L19.3317 25.125V28.3125L23.6442 25.3359H23.7145V39ZM35.6058 39H39.1097V22.0898H35.5941L31.223 25.125V28.3125L35.5355 25.3359H35.6058V39Z" fill="#001C4E" fill-opacity="0.87"/>
<path d="M71.5 38.6406C72.5547 38.6406 73.3867 37.7969 73.3867 36.7539C73.3867 35.6992 72.5547 34.8672 71.5 34.8672C70.4453 34.8672 69.6133 35.6992 69.6133 36.7539C69.6133 37.7969 70.4453 38.6406 71.5 38.6406ZM71.5 30.2617C72.5547 30.2617 73.3867 29.418 73.3867 28.375C73.3867 27.3203 72.5547 26.4883 71.5 26.4883C70.4453 26.4883 69.6133 27.3203 69.6133 28.375C69.6133 29.418 70.4453 30.2617 71.5 30.2617Z" fill="#001C4E" fill-opacity="0.87"/>
<rect x="83" width="60" height="60" rx="8" fill="white"/>
<path d="M99.0739 27.1758V27.2344H102.355V27.1758C102.355 25.6172 103.562 24.4688 105.203 24.4688C106.773 24.4688 107.886 25.4766 107.886 26.7422C107.886 27.9141 107.359 28.7695 105.648 30.4805L99.2731 36.6211V39H111.566V36.1875H103.937V36.1172L108.062 32.1445C109.925 30.293 111.332 28.7109 111.332 26.6016C111.332 23.7773 108.882 21.7148 105.32 21.7148C101.629 21.7148 99.0739 23.9766 99.0739 27.1758ZM120.621 39.375C124.5 39.375 127.149 36.9375 127.149 33.3516C127.149 30.0586 124.828 27.6797 121.594 27.6797C119.871 27.6797 118.524 28.3945 117.832 29.5312H117.762L118.149 24.9023H126.129V22.0898H115.371L114.539 31.8164H117.703C118.289 30.8438 119.391 30.2578 120.668 30.2578C122.496 30.2578 123.774 31.5703 123.774 33.4453C123.774 35.2852 122.496 36.5742 120.645 36.5742C119.004 36.5742 117.739 35.5898 117.539 34.1602H114.27C114.375 37.2188 116.989 39.375 120.621 39.375Z" fill="#001C4E" fill-opacity="0.87"/>
<path d="M154.5 38.6406C155.555 38.6406 156.387 37.7969 156.387 36.7539C156.387 35.6992 155.555 34.8672 154.5 34.8672C153.445 34.8672 152.613 35.6992 152.613 36.7539C152.613 37.7969 153.445 38.6406 154.5 38.6406ZM154.5 30.2617C155.555 30.2617 156.387 29.418 156.387 28.375C156.387 27.3203 155.555 26.4883 154.5 26.4883C153.445 26.4883 152.613 27.3203 152.613 28.375C152.613 29.418 153.445 30.2617 154.5 30.2617Z" fill="#001C4E" fill-opacity="0.87"/>
<rect x="166" width="60" height="60" rx="8" fill="white"/>
<path d="M189.515 39H192.879V35.9883H195.082V33.1523H192.879V22.0898H187.886C184.418 27.1992 182.578 30.1641 181.101 32.9766V35.9883H189.515V39ZM184.207 33.1641C185.578 30.5156 187.054 28.207 189.515 24.5977H189.586V33.2578H184.207V33.1641ZM203.926 39.375C208.18 39.375 210.758 35.9648 210.758 30.5039C210.758 25.043 208.157 21.7031 203.926 21.7031C199.696 21.7031 197.082 25.0547 197.082 30.5156C197.082 35.9883 199.672 39.375 203.926 39.375ZM203.926 36.5391C201.91 36.5391 200.68 34.3594 200.68 30.5156C200.68 26.707 201.934 24.5391 203.926 24.5391C205.93 24.5391 207.16 26.6953 207.16 30.5156C207.16 34.3711 205.942 36.5391 203.926 36.5391Z" fill="#001C4E" fill-opacity="0.87"/>
</svg>
